<svg xmlns="http://www.w3.org/2000/svg" viewBox="0 0 24 24"><title>calendar-2</title><g id="Livello_1" data-name="Livello 1"><path d="M18.51,5H16.42V4.81a.5.5,0,0,0-.5-.5.51.51,0,0,0-.5.5V5H12.5V4.81a.5.5,0,1,0-1,0V5H8.58V4.81a.51.51,0,0,0-.5-.5.5.5,0,0,0-.5.5V5H5.49A2.1,2.1,0,0,0,3.4,7.11V17.85a2.1,2.1,0,0,0,2.09,2.09h13a2.1,2.1,0,0,0,2.09-2.09V7.11A2.1,2.1,0,0,0,18.51,5Zm-13,1.5h2.1a.49.49,0,0,0,1,0h2.95a.49.49,0,0,0,1,0h2.95a.49.49,0,0,0,1,0h2.1a.59.59,0,0,1,.59.59V8.47H4.9V7.11A.59.59,0,0,1,5.49,6.52Zm13,11.92h-13a.59.59,0,0,1-.59-.59V10H19.1v7.88A.59.59,0,0,1,18.51,18.44Z"/><path d="M12.35,11h-.7a1.11,1.11,0,0,0-1.11,1.11v.7a1.11,1.11,0,0,0,1.11,1.11h.7a1.11,1.11,0,0,0,1.11-1.11v-.7A1.11,1.11,0,0,0,12.35,11Zm.11,1.81a.11.11,0,0,1-.11.11h-.7a.11.11,0,0,1-.11-.11v-.7a.11.11,0,0,1,.11-.11h.7a.11.11,0,0,1,.11.11Z"/><path d="M16.89,11h-.7a1.11,1.11,0,0,0-1.11,1.11v.7a1.11,1.11,0,0,0,1.11,1.11h.7A1.11,1.11,0,0,0,18,12.8v-.7A1.11,1.11,0,0,0,16.89,11ZM17,12.8a.11.11,0,0,1-.11.11h-.7a.11.11,0,0,1-.11-.11v-.7a.11.11,0,0,1,.11-.11h.7a.11.11,0,0,1,.11.11Z"/><path d="M7.81,11h-.7A1.11,1.11,0,0,0,6,12.1v.7a1.11,1.11,0,0,0,1.11,1.11h.7A1.11,1.11,0,0,0,8.92,12.8v-.7A1.11,1.11,0,0,0,7.81,11Zm.11,1.81a.11.11,0,0,1-.11.11h-.7A.11.11,0,0,1,7,12.8v-.7A.11.11,0,0,1,7.11,12h.7a.11.11,0,0,1,.11.11Z"/><path d="M12.35,14.5h-.7a1.11,1.11,0,0,0-1.11,1.11v.7a1.11,1.11,0,0,0,1.11,1.11h.7a1.11,1.11,0,0,0,1.11-1.11v-.7A1.11,1.11,0,0,0,12.35,14.5Zm.11,1.81a.11.11,0,0,1-.11.11h-.7a.11.11,0,0,1-.11-.11v-.7a.11.11,0,0,1,.11-.11h.7a.11.11,0,0,1,.11.11Z"/><path d="M16.89,14.5h-.7a1.11,1.11,0,0,0-1.11,1.11v.7a1.11,1.11,0,0,0,1.11,1.11h.7A1.11,1.11,0,0,0,18,16.31v-.7A1.11,1.11,0,0,0,16.89,14.5ZM17,16.31a.11.11,0,0,1-.11.11h-.7a.11.11,0,0,1-.11-.11v-.7a.11.11,0,0,1,.11-.11h.7a.11.11,0,0,1,.11.11Z"/><path d="M7.81,14.5h-.7A1.11,1.11,0,0,0,6,15.61v.7a1.11,1.11,0,0,0,1.11,1.11h.7a1.11,1.11,0,0,0,1.11-1.11v-.7A1.11,1.11,0,0,0,7.81,14.5Zm.11,1.81a.11.11,0,0,1-.11.11h-.7A.11.11,0,0,1,7,16.31v-.7a.11.11,0,0,1,.11-.11h.7a.11.11,0,0,1,.11.11Z"/></g></svg>