<svg xmlns="http://www.w3.org/2000/svg" viewBox="0 0 24 24"><title>calendar-1</title><g id="Livello_1" data-name="Livello 1"><path d="M18.51,5H16.42V4.81a.5.5,0,0,0-.5-.5.51.51,0,0,0-.5.5V5H12.5V4.81a.5.5,0,1,0-1,0V5H8.58V4.81a.51.51,0,0,0-.5-.5.5.5,0,0,0-.5.5V5H5.49A2.1,2.1,0,0,0,3.4,7.11V17.85a2.1,2.1,0,0,0,2.09,2.09h13a2.1,2.1,0,0,0,2.09-2.09V7.11A2.1,2.1,0,0,0,18.51,5Zm-13,1.5h2.1a.49.49,0,0,0,1,0h2.95a.49.49,0,0,0,1,0h2.95a.49.49,0,0,0,1,0h2.1a.59.59,0,0,1,.59.59V8.47H4.9V7.11A.59.59,0,0,1,5.49,6.52Zm13,11.92h-13a.59.59,0,0,1-.59-.59V10H19.1v7.88A.59.59,0,0,1,18.51,18.44Z"/><path d="M14.13,11.62c-1.07,0-1.9,1.14-1.9,2.59s.82,2.53,1.9,2.53S16,15.65,16,14.21,15.2,11.62,14.13,11.62Zm0,4.12c-.5,0-.9-.69-.9-1.53s.47-1.59.9-1.59.91.64.91,1.59S14.63,15.74,14.13,15.74Z"/><path d="M10.84,15.79H9.74c1-1,1.93-2.1,1.49-3.15a1.6,1.6,0,0,0-1-.94,2.55,2.55,0,0,0-2,.39.5.5,0,1,0,.57.83,1.53,1.53,0,0,1,1.17-.26.59.59,0,0,1,.39.37c.27.64-1.1,1.9-2,2.73l-.17.16a.48.48,0,0,0-.13.55.5.5,0,0,0,.46.32h2.38a.5.5,0,0,0,.5-.5A.5.5,0,0,0,10.84,15.79Z"/></g></svg>