<?xml version="1.0" encoding="UTF-8"?>
<svg id="Livello_1" data-name="Livello 1" xmlns="http://www.w3.org/2000/svg" viewBox="0 0 24 24">
  <path d="M19,13.88c-.41,0-.75,.34-.75,.75v4.5c0,.41-.34,.75-.75,.75H6.5c-.41,0-.75-.34-.75-.75v-4.5c0-.41-.34-.75-.75-.75s-.75,.34-.75,.75v4.5c0,1.24,1.01,2.25,2.25,2.25h11c1.24,0,2.25-1.01,2.25-2.25v-4.5c0-.41-.34-.75-.75-.75Z"/>
  <path d="M11.47,15.15c.14,.14,.33,.22,.53,.22s.39-.08,.53-.22l4.24-4.24c.29-.29,.29-.77,0-1.06s-.77-.29-1.06,0l-2.96,2.96V3.38c0-.41-.34-.75-.75-.75s-.75,.34-.75,.75V12.81l-2.96-2.96c-.29-.29-.77-.29-1.06,0s-.29,.77,0,1.06l4.24,4.24Z"/>
</svg>