<?xml version="1.0" encoding="UTF-8"?>
<svg id="Livello_1" data-name="Livello 1" xmlns="http://www.w3.org/2000/svg" viewBox="0 0 24 24">
  <path d="M7.78,5.04c.69,0,1.4,.24,1.99,.68,.38,.28,.7,.62,.95,1.03l1.27,2.05,1.27-2.05c.25-.41,.57-.75,.95-1.03,.6-.44,1.3-.68,1.99-.68,.29,0,.58,.04,.85,.12,1.78,.53,2.75,2.57,2.17,4.56-.13,.44-.34,.87-.63,1.26l-.04,.05-.03,.04-.27,.31-6.27,7.18-6.26-7.16-.25-.3-.08-.1-.02-.03c-.29-.39-.5-.82-.63-1.27-.29-.98-.21-1.99,.22-2.86,.41-.83,1.11-1.43,1.95-1.68,.28-.08,.56-.12,.85-.12m8.44-1.5c-1.03,0-2.04,.35-2.88,.97-.52,.38-.98,.87-1.34,1.45-.36-.58-.82-1.07-1.34-1.45-.84-.62-1.85-.97-2.88-.97-.43,0-.86,.06-1.28,.19-2.58,.77-4.01,3.63-3.18,6.41,.19,.66,.5,1.25,.88,1.76,.04,.05,.08,.1,.12,.15l.28,.33,6.83,7.82c.15,.17,.36,.26,.57,.26s.42-.09,.57-.26l6.83-7.82,.28-.33s.08-.1,.12-.15c.38-.51,.69-1.1,.88-1.76,.82-2.78-.6-5.64-3.18-6.41-.42-.13-.85-.19-1.28-.19h0Z"/>
</svg>