<svg xmlns="http://www.w3.org/2000/svg" viewBox="0 0 24 24"><title>floppy</title><g id="Livello_1" data-name="Livello 1"><path d="M18.86,7.64l-2.49-2.5a1.77,1.77,0,0,0-1.19-.51H6.4A1.78,1.78,0,0,0,4.62,6.4V17.6A1.78,1.78,0,0,0,6.4,19.38H17.6a1.78,1.78,0,0,0,1.78-1.78V8.9A1.8,1.8,0,0,0,18.86,7.64ZM14.39,6.12V8H9.61V6.12Zm-6,11.76V13.69h7.3v4.19Zm9.53-.28a.29.29,0,0,1-.28.28h-.45V13.5a1.31,1.31,0,0,0-1.31-1.31H8.16A1.31,1.31,0,0,0,6.85,13.5v4.38H6.4a.29.29,0,0,1-.28-.28V6.4a.29.29,0,0,1,.28-.28H8.11v2A1.31,1.31,0,0,0,9.42,9.46h5.16a1.31,1.31,0,0,0,1.31-1.31V6.79L17.8,8.7a.28.28,0,0,1,.08.2Z"/><path d="M9.56,15.51h3.08a.51.51,0,0,0,.5-.5.5.5,0,0,0-.5-.5H9.56a.5.5,0,0,0-.5.5A.51.51,0,0,0,9.56,15.51Z"/><path d="M13.8,16.06H9.56a.51.51,0,0,0-.5.5.5.5,0,0,0,.5.5H13.8a.5.5,0,0,0,.5-.5A.51.51,0,0,0,13.8,16.06Z"/></g></svg>