<?xml version="1.0" encoding="UTF-8"?>
<svg id="Livello_1" data-name="Livello 1" xmlns="http://www.w3.org/2000/svg" viewBox="0 0 24 24">
  <path d="M15.08,6.33l.73,.29-.29,.73c-.1,.26,.03,.55,.28,.65,.06,.02,.12,.03,.18,.03,.2,0,.39-.12,.47-.32l.29-.73,.73,.29c.06,.02,.12,.03,.18,.03,.2,0,.39-.12,.47-.32,.1-.26-.03-.55-.28-.65l-.73-.29,.29-.73c.1-.26-.03-.55-.28-.65-.26-.1-.55,.03-.65,.28l-.29,.73-.73-.29c-.26-.1-.55,.03-.65,.28-.1,.26,.03,.55,.28,.65Z"/>
  <path d="M17.54,10.88l-.73,.31-.31-.72c-.11-.26-.4-.37-.66-.27-.25,.11-.37,.4-.26,.66l.31,.72-.73,.31c-.25,.11-.37,.4-.27,.66,.08,.19,.27,.31,.46,.31,.07,0,.13-.01,.2-.04l.73-.31,.31,.72c.08,.19,.27,.31,.46,.31,.07,0,.13-.01,.2-.04,.25-.11,.37-.4,.26-.66l-.31-.72,.73-.31c.25-.11,.37-.4,.27-.66-.11-.26-.4-.37-.66-.27Z"/>
  <path d="M20.85,13.67c-.31-.17-.69-.1-.93,.16-1.31,.99-2.92,1.41-4.55,1.18-1.62-.23-3.06-1.07-4.04-2.38s-1.4-2.92-1.17-4.55c.23-1.62,1.08-3.06,2.4-4.05,.31-.15,.48-.5,.4-.84-.08-.34-.38-.58-.72-.58-2.1-.02-4.06,.63-5.73,1.89-2.01,1.51-3.31,3.71-3.66,6.2-.35,2.49,.29,4.96,1.8,6.97,1.51,2.01,3.71,3.31,6.2,3.66,.45,.06,.9,.1,1.34,.1,2.02,0,3.98-.65,5.63-1.89,1.67-1.26,2.85-2.99,3.4-4.99,.09-.34-.07-.69-.37-.86Zm-3.93,4.65c-1.69,1.27-3.77,1.8-5.86,1.51-2.09-.3-3.94-1.39-5.21-3.08-2.62-3.48-1.92-8.44,1.57-11.06,.82-.62,1.74-1.06,2.71-1.32-.76,1.02-1.26,2.21-1.45,3.5-.29,2.02,.23,4.03,1.46,5.66,2.09,2.78,5.72,3.72,8.82,2.54-.52,.87-1.2,1.63-2.03,2.25Z"/>
</svg>