<?xml version="1.0" encoding="UTF-8"?>
<svg id="Livello_1" data-name="Livello 1" xmlns="http://www.w3.org/2000/svg" viewBox="0 0 24 24">
  <path d="M12,7.43c-2.52,0-4.57,2.05-4.57,4.57s2.05,4.57,4.57,4.57,4.57-2.05,4.57-4.57-2.05-4.57-4.57-4.57Zm0,7.63c-1.69,0-3.07-1.38-3.07-3.07s1.38-3.07,3.07-3.07,3.07,1.38,3.07,3.07-1.38,3.07-3.07,3.07Z"/>
  <path d="M12,6.14c.41,0,.75-.34,.75-.75v-1.99c0-.41-.34-.75-.75-.75s-.75,.34-.75,.75v1.99c0,.41,.34,.75,.75,.75Z"/>
  <path d="M12,17.86c-.41,0-.75,.34-.75,.75v1.99c0,.41,.34,.75,.75,.75s.75-.34,.75-.75v-1.99c0-.41-.34-.75-.75-.75Z"/>
  <path d="M20.6,11.25h-1.99c-.41,0-.75,.34-.75,.75s.34,.75,.75,.75h1.99c.41,0,.75-.34,.75-.75s-.34-.75-.75-.75Z"/>
  <path d="M6.14,12c0-.41-.34-.75-.75-.75h-1.99c-.41,0-.75,.34-.75,.75s.34,.75,.75,.75h1.99c.41,0,.75-.34,.75-.75Z"/>
  <path d="M17.21,16.15c-.29-.29-.77-.29-1.06,0-.29,.29-.29,.77,0,1.06l1.41,1.41c.15,.15,.34,.22,.53,.22s.38-.07,.53-.22c.29-.29,.29-.77,0-1.06l-1.41-1.41Z"/>
  <path d="M6.79,7.85c.15,.15,.34,.22,.53,.22s.38-.07,.53-.22c.29-.29,.29-.77,0-1.06l-1.41-1.41c-.29-.29-.77-.29-1.06,0-.29,.29-.29,.77,0,1.06l1.41,1.41Z"/>
  <path d="M16.68,8.07c.19,0,.38-.07,.53-.22l1.41-1.41c.29-.29,.29-.77,0-1.06s-.77-.29-1.06,0l-1.41,1.41c-.29,.29-.29,.77,0,1.06,.15,.15,.34,.22,.53,.22Z"/>
  <path d="M6.79,16.15l-1.41,1.41c-.29,.29-.29,.77,0,1.06,.15,.15,.34,.22,.53,.22s.38-.07,.53-.22l1.41-1.41c.29-.29,.29-.77,0-1.06s-.77-.29-1.06,0Z"/>
</svg>