<?xml version="1.0" encoding="UTF-8"?>
<svg id="Livello_1" data-name="Livello 1" xmlns="http://www.w3.org/2000/svg" viewBox="0 0 24 24">
  <path d="M11.06,10.93c2.2,0,3.98-1.79,3.98-3.98s-1.79-3.98-3.98-3.98-3.98,1.79-3.98,3.98,1.79,3.98,3.98,3.98Zm0-6.46c1.37,0,2.48,1.11,2.48,2.48s-1.11,2.48-2.48,2.48-2.48-1.11-2.48-2.48,1.11-2.48,2.48-2.48Z"/>
  <path d="M11.06,12.07c-3.8,0-7.12,2.57-8.07,6.25-.09,.34,.07,.69,.38,.85,2.35,1.22,5.01,1.86,7.68,1.86s5.33-.64,7.68-1.86c.31-.16,.47-.51,.38-.85-.95-3.68-4.26-6.25-8.07-6.25Zm-6.44,6.05c.96-2.71,3.52-4.55,6.44-4.55s5.48,1.84,6.44,4.55c-4,1.86-8.88,1.86-12.88,0Z"/>
  <path d="M20.28,10.18h-1.26v-1.26c0-.41-.34-.75-.75-.75s-.75,.34-.75,.75v1.26h-1.26c-.41,0-.75,.34-.75,.75s.34,.75,.75,.75h1.26v1.26c0,.41,.34,.75,.75,.75s.75-.34,.75-.75v-1.26h1.26c.41,0,.75-.34,.75-.75s-.34-.75-.75-.75Z"/>
</svg>