<?xml version="1.0" encoding="UTF-8"?>
<svg id="Livello_1" data-name="Livello 1" xmlns="http://www.w3.org/2000/svg" viewBox="0 0 24 24">
  <path d="M16.59,10.77c1.51,0,2.75-1.24,2.75-2.75s-1.24-2.75-2.75-2.75-2.76,1.23-2.76,2.75,1.24,2.75,2.76,2.75Zm0-4c.69,0,1.25,.56,1.25,1.25s-.56,1.25-1.25,1.25-1.26-.56-1.26-1.25,.57-1.25,1.26-1.25Z"/>
  <path d="M21.86,15.27c-.62-2.4-2.79-4.08-5.27-4.08-1.49,0-2.86,.6-3.85,1.59-1.02-.52-2.17-.81-3.38-.81-3.41,0-6.38,2.3-7.23,5.6-.08,.34,.08,.69,.39,.85,2.09,1.09,4.46,1.66,6.84,1.66s4.74-.57,6.84-1.66c.31-.16,.47-.51,.38-.85-.02-.09-.05-.18-.08-.26h.09c1.7,0,3.39-.41,4.88-1.18,.32-.17,.47-.52,.39-.86Zm-6.91,2.1c-3.48,1.59-7.7,1.59-11.18-.01,.85-2.32,3.07-3.89,5.59-3.89,.87,0,1.71,.19,2.46,.53h0c.46,.21,.9,.48,1.29,.8,.2,.16,.39,.34,.57,.53,.5,.52,.91,1.15,1.18,1.84,.04,.07,.06,.13,.09,.2Zm.9-1.6c-.46-.83-1.08-1.56-1.81-2.14,.69-.59,1.59-.94,2.55-.94,1.59,0,3,.95,3.62,2.38-1.36,.58-2.87,.81-4.36,.7Z"/>
  <path d="M9.36,11.13c1.99,0,3.61-1.62,3.61-3.61s-1.62-3.61-3.61-3.61-3.61,1.62-3.61,3.61,1.62,3.61,3.61,3.61Zm0-5.72c1.16,0,2.11,.95,2.11,2.11s-.95,2.11-2.11,2.11-2.11-.94-2.11-2.11,.94-2.11,2.11-2.11Z"/>
</svg>