<?xml version="1.0" encoding="UTF-8"?>
<svg id="Livello_1" data-name="Livello 1" xmlns="http://www.w3.org/2000/svg" viewBox="0 0 24 24">
  <path d="M12,13.21c2.12,0,3.85-1.73,3.85-3.85s-1.73-3.85-3.85-3.85-3.85,1.73-3.85,3.85,1.73,3.85,3.85,3.85Zm0-6.2c1.3,0,2.35,1.05,2.35,2.35s-1.05,2.35-2.35,2.35-2.35-1.05-2.35-2.35,1.05-2.35,2.35-2.35Z"/>
  <path d="M22.18,12c0-5.61-4.57-10.18-10.18-10.18S1.82,6.39,1.82,12c0,2.88,1.21,5.48,3.14,7.34,.04,.06,.1,.1,.16,.14,1.81,1.67,4.22,2.7,6.88,2.7s5.03-1.02,6.84-2.66c.07-.05,.14-.11,.19-.18,1.93-1.85,3.14-4.45,3.14-7.34Zm-18.85,0C3.32,7.22,7.22,3.32,12,3.32s8.68,3.89,8.68,8.68c0,2.18-.81,4.17-2.15,5.69-1.57-2.12-4.04-3.45-6.53-3.45s-4.96,1.33-6.53,3.45c-1.33-1.53-2.15-3.51-2.15-5.69Zm3.24,6.75c1.29-1.84,3.36-3.01,5.44-3.01s4.15,1.17,5.44,3.01c-1.49,1.2-3.38,1.92-5.44,1.92s-3.95-.72-5.44-1.92Z"/>
</svg>