<?xml version="1.0" encoding="UTF-8"?>
<svg id="Livello_1" data-name="Livello 1" xmlns="http://www.w3.org/2000/svg" viewBox="0 0 24 24">
  <path d="M12,10.93c2.2,0,3.98-1.79,3.98-3.98s-1.79-3.98-3.98-3.98-3.98,1.79-3.98,3.98,1.79,3.98,3.98,3.98Zm0-6.46c1.37,0,2.48,1.11,2.48,2.48s-1.11,2.48-2.48,2.48-2.48-1.11-2.48-2.48,1.11-2.48,2.48-2.48Z"/>
  <path d="M20.07,18.32c-.95-3.68-4.26-6.25-8.07-6.25s-7.12,2.57-8.07,6.25c-.09,.34,.07,.69,.38,.85,2.35,1.22,5.01,1.86,7.68,1.86s5.33-.64,7.68-1.86c.31-.16,.47-.51,.38-.85Zm-14.5-.21c.96-2.71,3.52-4.55,6.44-4.55s5.48,1.84,6.44,4.55c-4,1.86-8.88,1.86-12.88,0Z"/>
</svg>