<svg xmlns="http://www.w3.org/2000/svg" viewBox="0 0 24 24"><title>browser</title><g id="Livello_1" data-name="Livello 1"><path d="M20.54,4.62H3.46A1.87,1.87,0,0,0,1.59,6.49v11a1.87,1.87,0,0,0,1.87,1.86H20.54a1.87,1.87,0,0,0,1.87-1.86v-11A1.87,1.87,0,0,0,20.54,4.62ZM3.46,6.12H20.54a.37.37,0,0,1,.37.37V7.83H3.09V6.49A.37.37,0,0,1,3.46,6.12ZM20.54,17.87H3.46a.36.36,0,0,1-.37-.36V9.33H20.91v8.18A.36.36,0,0,1,20.54,17.87Z"/><path d="M12.45,10.49H4.63a.5.5,0,0,0-.5.5.5.5,0,0,0,.5.5h7.82A.5.5,0,0,0,13,11,.5.5,0,0,0,12.45,10.49Z"/><path d="M4.63,13.13h5.3a.5.5,0,0,0,.5-.5.5.5,0,0,0-.5-.5H4.63a.5.5,0,0,0-.5.5A.5.5,0,0,0,4.63,13.13Z"/><path d="M11,13.78H4.63a.5.5,0,0,0-.5.5.5.5,0,0,0,.5.5H11a.5.5,0,0,0,.5-.5A.5.5,0,0,0,11,13.78Z"/><path d="M4,7.48a.65.65,0,0,0,.19,0,.57.57,0,0,0,.16-.11A.51.51,0,0,0,4.49,7a.41.41,0,0,0,0-.19.5.5,0,0,0-.11-.17.91.91,0,0,0-.16-.11.53.53,0,0,0-.55.11.48.48,0,0,0-.1.17.41.41,0,0,0,0,.19.5.5,0,0,0,.14.35A.55.55,0,0,0,4,7.48Z"/><path d="M5.13,7.44a.65.65,0,0,0,.19,0,.53.53,0,0,0,.36-.15A.5.5,0,0,0,5.82,7a.54.54,0,0,0-.14-.36.53.53,0,0,0-.55-.11A.64.64,0,0,0,5,6.62.53.53,0,0,0,4.82,7,.51.51,0,0,0,5,7.33.46.46,0,0,0,5.13,7.44Z"/><path d="M6.66,7.48a.65.65,0,0,0,.19,0A.46.46,0,0,0,7,7.33.47.47,0,0,0,7.16,7,.51.51,0,0,0,7,6.62a.52.52,0,0,0-.7,0A.51.51,0,0,0,6.16,7a.47.47,0,0,0,.15.35A.51.51,0,0,0,6.66,7.48Z"/></g></svg>