<svg xmlns="http://www.w3.org/2000/svg" viewBox="0 0 24 24"><title>folder-favorite-open</title><g id="Livello_1" data-name="Livello 1"><path d="M21.07,9.36V8.82a2,2,0,0,0-2-2H11.28a.58.58,0,0,1-.43-.21L9.57,5a2.5,2.5,0,0,0-2-1H4.91a2,2,0,0,0-2,2V9.36a1.94,1.94,0,0,0-.86,1.84L3,18.25a1.94,1.94,0,0,0,1.93,1.68H19.09A2,2,0,0,0,21,18.26l.9-7.06A1.89,1.89,0,0,0,21.07,9.36ZM4.43,6.05a.47.47,0,0,1,.48-.48H7.59A1,1,0,0,1,8.4,6L9.68,7.57a2.09,2.09,0,0,0,1.6.77h7.81a.48.48,0,0,1,.48.48v.23H4.43Zm15.11,12a.45.45,0,0,1-.45.36H4.91a.43.43,0,0,1-.44-.36L3.56,11a.42.42,0,0,1,.33-.45H20.13a.41.41,0,0,1,.31.45Z"/><path d="M13.83,12.36a1.51,1.51,0,0,0-1.83.1,1.51,1.51,0,0,0-1.83-.1,1.53,1.53,0,0,0-.71,1.26,2,2,0,0,0,.7,1.54c.09.11,1,1.09,1.43,1.5l.11.11a.49.49,0,0,0,.3.1.5.5,0,0,0,.31-.1l.12-.12c.37-.37,1.32-1.37,1.41-1.48a2.09,2.09,0,0,0,.71-1.55A1.59,1.59,0,0,0,13.83,12.36Zm-.75,2.15c-.06.08-.63.68-1.08,1.15L10.9,14.5c-.31-.35-.45-.52-.44-.84a.56.56,0,0,1,.25-.46.52.52,0,0,1,.31-.1.65.65,0,0,1,.19,0h0a.61.61,0,0,1,.32.33.57.57,0,0,0,.47.31.51.51,0,0,0,.46-.32.57.57,0,0,1,.31-.32.61.61,0,0,1,.51,0,.63.63,0,0,1,.26.47C13.56,14,13.44,14.12,13.08,14.51Z"/></g></svg>