<svg xmlns="http://www.w3.org/2000/svg" viewBox="0 0 24 24"><title>folder-download</title><g id="Livello_1" data-name="Livello 1"><path d="M19.09,7.2H11.28A.56.56,0,0,1,10.85,7L9.57,5.38a2.52,2.52,0,0,0-2-1H4.91a2,2,0,0,0-2,2V17.6a2,2,0,0,0,2,2H19.09a2,2,0,0,0,2-2V9.17A2,2,0,0,0,19.09,7.2Zm.48,10.4a.49.49,0,0,1-.48.48H4.91a.49.49,0,0,1-.48-.48V6.4a.49.49,0,0,1,.48-.48H7.59a1.07,1.07,0,0,1,.81.39L9.68,7.93a2,2,0,0,0,1.6.77h7.81a.48.48,0,0,1,.48.47Z"/><path d="M13.24,13.54l-.74.74v-3a.5.5,0,0,0-1,0v3l-.74-.74a.5.5,0,0,0-.71,0,.51.51,0,0,0,0,.71l1.6,1.59a.48.48,0,0,0,.7,0L14,14.25a.51.51,0,0,0,0-.71A.5.5,0,0,0,13.24,13.54Z"/></g></svg>