<svg xmlns="http://www.w3.org/2000/svg" viewBox="0 0 24 24"><title>folder-favorite</title><g id="Livello_1" data-name="Livello 1"><path d="M19.09,7.2H11.28A.56.56,0,0,1,10.85,7L9.57,5.38a2.52,2.52,0,0,0-2-1H4.91a2,2,0,0,0-2,2V17.6a2,2,0,0,0,2,2H19.09a2,2,0,0,0,2-2V9.17A2,2,0,0,0,19.09,7.2Zm.48,10.4a.49.49,0,0,1-.48.48H4.91a.49.49,0,0,1-.48-.48V6.4a.49.49,0,0,1,.48-.48H7.59a1.07,1.07,0,0,1,.81.39L9.68,7.93a2,2,0,0,0,1.6.77h7.81a.48.48,0,0,1,.48.47Z"/><path d="M13.83,11.25a1.59,1.59,0,0,0-1.42-.14,1.55,1.55,0,0,0-.41.25,1.55,1.55,0,0,0-.41-.25,1.56,1.56,0,0,0-2.13,1.42,2.06,2.06,0,0,0,.7,1.54l1.4,1.47.09.09a.42.42,0,0,0,.31.11.73.73,0,0,0,.47-.19l1.41-1.48a2.07,2.07,0,0,0,.7-1.55h0A1.59,1.59,0,0,0,13.83,11.25ZM13.1,13.4,12,14.55,10.9,13.4c-.31-.35-.45-.52-.44-.84a.56.56,0,0,1,.26-.47A.53.53,0,0,1,11,12a.51.51,0,0,1,.2,0,.61.61,0,0,1,.32.33.49.49,0,0,0,.46.31h0a.5.5,0,0,0,.47-.31.56.56,0,0,1,.31-.33.52.52,0,0,1,.5.05.6.6,0,0,1,.26.47C13.55,12.87,13.44,13,13.1,13.4Z"/></g></svg>