<svg xmlns="http://www.w3.org/2000/svg" viewBox="0 0 24 24"><title>folder-minus</title><g id="Livello_1" data-name="Livello 1"><path d="M19.09,19.58H4.91a2,2,0,0,1-2-2V6.4a2,2,0,0,1,2-2H7.59a2.52,2.52,0,0,1,2,1L10.85,7a.56.56,0,0,0,.43.21h7.81a2,2,0,0,1,2,2V17.6A2,2,0,0,1,19.09,19.58ZM4.91,5.92a.49.49,0,0,0-.48.48V17.6a.49.49,0,0,0,.48.48H19.09a.49.49,0,0,0,.48-.48V9.17a.48.48,0,0,0-.48-.47H11.28a2,2,0,0,1-1.6-.78L8.4,6.31a1.07,1.07,0,0,0-.81-.39Z"/><path d="M13.94,13.89H10.06a.51.51,0,0,1-.5-.5.5.5,0,0,1,.5-.5h3.88a.5.5,0,0,1,.5.5A.51.51,0,0,1,13.94,13.89Z"/></g></svg>