<svg xmlns="http://www.w3.org/2000/svg" viewBox="0 0 24 24"><title>folder-open</title><g id="Livello_1" data-name="Livello 1"><path d="M21.07,9.36V8.82a2,2,0,0,0-2-2H11.28a.58.58,0,0,1-.43-.21L9.57,5a2.5,2.5,0,0,0-2-1H4.91a2,2,0,0,0-2,2V9.36a1.93,1.93,0,0,0-.86,1.84L3,18.25a1.94,1.94,0,0,0,1.93,1.68H19.09A2,2,0,0,0,21,18.26l.9-7.06A1.9,1.9,0,0,0,21.07,9.36ZM4.43,6.05a.47.47,0,0,1,.48-.48H7.59A1,1,0,0,1,8.4,6L9.68,7.57a2.07,2.07,0,0,0,1.6.77h7.81a.48.48,0,0,1,.48.48v.23H4.43Zm16,5-.9,7.06a.45.45,0,0,1-.45.36H4.91a.43.43,0,0,1-.44-.36L3.56,11a.42.42,0,0,1,.33-.45H20a.2.2,0,0,1,.11,0h0a.41.41,0,0,1,.31.44Z"/></g></svg>