<svg xmlns="http://www.w3.org/2000/svg" viewBox="0 0 24 24"><title>cassette-tape</title><g id="Livello_1" data-name="Livello 1"><path d="M16.39,8.14H7.61a2,2,0,1,0,0,3.95h8.78a2,2,0,1,0,0-3.95ZM7.61,10.59a.48.48,0,1,1,0-.95.48.48,0,1,1,0,.95Zm6.86,0H9.53a1.86,1.86,0,0,0,.06-.48,1.84,1.84,0,0,0-.06-.47h4.94a1.84,1.84,0,0,0-.06.47A1.86,1.86,0,0,0,14.47,10.59Zm1.92,0a.48.48,0,1,1,.48-.48A.48.48,0,0,1,16.39,10.59Z"/><path d="M20.06,5H3.94A2.15,2.15,0,0,0,1.79,7.12v9.76A2.15,2.15,0,0,0,3.94,19H20.06a2.15,2.15,0,0,0,2.15-2.14V7.12A2.15,2.15,0,0,0,20.06,5ZM7.14,17.52l.25-.92a.26.26,0,0,1,.24-.19h8.74a.26.26,0,0,1,.24.19l.25.92Zm13.57-.64a.65.65,0,0,1-.65.64H18.41l-.35-1.31a1.74,1.74,0,0,0-1.69-1.3H7.63a1.74,1.74,0,0,0-1.69,1.3l-.35,1.31H3.94a.65.65,0,0,1-.65-.64V7.12a.65.65,0,0,1,.65-.64H20.06a.65.65,0,0,1,.65.64Z"/><path d="M19.91,15.65a.63.63,0,0,0-.24-.16.75.75,0,0,0-.82.16.78.78,0,0,0-.16.24.72.72,0,0,0-.06.29.75.75,0,0,0,1.5,0,.72.72,0,0,0-.06-.29A.63.63,0,0,0,19.91,15.65Z"/><path d="M4.32,15.49a.63.63,0,0,0-.24.16.75.75,0,0,0-.22.53.77.77,0,0,0,.22.53.75.75,0,0,0,.53.22.72.72,0,0,0,.29-.06.78.78,0,0,0,.24-.16.63.63,0,0,0,.16-.24.75.75,0,0,0-1-1Z"/><path d="M19.67,7.12a.76.76,0,0,0-1,.7.79.79,0,0,0,.22.53.75.75,0,0,0,1.06,0,.79.79,0,0,0,.22-.53.75.75,0,0,0-.22-.53A.81.81,0,0,0,19.67,7.12Z"/><path d="M5.14,7.29a.81.81,0,0,0-.24-.17.83.83,0,0,0-.58,0,.81.81,0,0,0-.24.17.78.78,0,0,0-.16.24.72.72,0,0,0-.06.29.77.77,0,0,0,.75.75.72.72,0,0,0,.29-.06.66.66,0,0,0,.24-.17.71.71,0,0,0,.22-.52.72.72,0,0,0-.06-.29A.63.63,0,0,0,5.14,7.29Z"/></g></svg>