<svg xmlns="http://www.w3.org/2000/svg" viewBox="0 0 24 24"><title>cd</title><g id="Livello_1" data-name="Livello 1"><path d="M12,10.21A1.79,1.79,0,1,0,13.78,12,1.79,1.79,0,0,0,12,10.21Zm0,2.57a.78.78,0,0,1-.78-.78.78.78,0,1,1,1.56,0A.78.78,0,0,1,12,12.78Z"/><path d="M6,12a.75.75,0,0,0-.75-.74h0a.76.76,0,0,0-.74.75h0a7.46,7.46,0,0,0,1.22,4,.74.74,0,0,0,.62.34.75.75,0,0,0,.41-.12.74.74,0,0,0,.34-.63A.78.78,0,0,0,7,15.24,6,6,0,0,1,6,12Z"/><path d="M12,2.16A9.84,9.84,0,1,0,21.84,12,9.85,9.85,0,0,0,12,2.16Zm0,18.18A8.34,8.34,0,1,1,20.34,12,8.35,8.35,0,0,1,12,20.34Z"/><path d="M16.44,5.91a.74.74,0,0,0-1.05.16.79.79,0,0,0-.14.44.74.74,0,0,0,.31.61A6,6,0,0,1,18,11.88a.75.75,0,0,0,.75.74h0a.75.75,0,0,0,.74-.75h0A7.45,7.45,0,0,0,16.44,5.91Z"/><path d="M12,8.07A3.93,3.93,0,1,0,15.92,12,3.93,3.93,0,0,0,12,8.07Zm0,6.35A2.43,2.43,0,1,1,14.42,12,2.42,2.42,0,0,1,12,14.42Z"/></g></svg>