<svg xmlns="http://www.w3.org/2000/svg" viewBox="0 0 24 24"><title>headphones</title><g id="Livello_1" data-name="Livello 1"><path d="M20.57,13.41v-2a8.57,8.57,0,0,0-17.14,0v2a3.16,3.16,0,0,0-1.12,2.41v1.45a3.15,3.15,0,0,0,2.59,3.1,1.79,1.79,0,0,0,3.15-.42,2,2,0,0,0,.11-.64V13.76A1.79,1.79,0,0,0,6.36,12a1.83,1.83,0,0,0-1.43.69v-1.2a7.07,7.07,0,0,1,14.14,0v1.21a1.81,1.81,0,0,0-3.12.47,2,2,0,0,0-.11.64v5.54a1.79,1.79,0,0,0,3.26,1.05,3.15,3.15,0,0,0,2.59-3.1V15.82A3.16,3.16,0,0,0,20.57,13.41ZM3.81,17.26V15.81a1.64,1.64,0,0,1,.63-1.29l.11-.06v4.19A1.68,1.68,0,0,1,3.81,17.26Zm2.55-3.8a.3.3,0,0,1,.29.2s0,.06,0,.1V19.3a.25.25,0,0,1,0,.12c-.1.26-.5.18-.57,0,0,0,0-.11,0-.12V13.65A.3.3,0,0,1,6.36,13.46Zm11.28,6.16a.31.31,0,0,1-.29-.21s0-.06,0-.1V13.77a.25.25,0,0,1,0-.12.28.28,0,0,1,.28-.19.3.3,0,0,1,.29.19l0,.12v5.65A.3.3,0,0,1,17.64,19.62Zm2.55-2.36a1.66,1.66,0,0,1-.74,1.39V14.46a.6.6,0,0,0,.11.06,1.67,1.67,0,0,1,.63,1.3Z"/></g></svg>