<svg xmlns="http://www.w3.org/2000/svg" viewBox="0 0 24 24"><title>musical-note</title><g id="Livello_1" data-name="Livello 1"><path d="M20.3,14.82V3.46a.75.75,0,0,0-.3-.6.77.77,0,0,0-.66-.12L9.45,5.56a.76.76,0,0,0-.54.73v9.29a3.47,3.47,0,0,0-.67-.19,4,4,0,0,0-2.48.44A4,4,0,0,0,4,17.6a2.46,2.46,0,0,0,1.9,3.64,3.43,3.43,0,0,0,.56.05,4.25,4.25,0,0,0,1.91-.48,3.48,3.48,0,0,0,2.06-3.23V10.05L18.8,7.66v5.1a3.83,3.83,0,0,0-3.15.24,4,4,0,0,0-1.78,1.77,2.46,2.46,0,0,0,1.89,3.65,3.56,3.56,0,0,0,.57,0A4.19,4.19,0,0,0,18.24,18,4,4,0,0,0,20,16.21,2.91,2.91,0,0,0,20.3,14.82ZM7.66,19.47a2.55,2.55,0,0,1-1.54.29,1.08,1.08,0,0,1-.84-.52,1.11,1.11,0,0,1,0-1,2.54,2.54,0,0,1,1.13-1.09,2.62,2.62,0,0,1,1.22-.32,1.73,1.73,0,0,1,.32,0,1.12,1.12,0,0,1,.84.52,1.42,1.42,0,0,1,.07.22v.08s0,0,0,.06A2.09,2.09,0,0,1,7.66,19.47Zm2.75-11V6.85l8.39-2.4V6.1Zm7.13,8.16a2.54,2.54,0,0,1-1.54.29,1.15,1.15,0,0,1-.84-.52,1.14,1.14,0,0,1,.06-1,2.59,2.59,0,0,1,1.12-1.1A2.76,2.76,0,0,1,17.57,14a1.22,1.22,0,0,1,1.15.55.9.9,0,0,1,.08.23v.06s0,.05,0,.07a1.4,1.4,0,0,1-.14.63A2.54,2.54,0,0,1,17.54,16.65Z"/></g></svg>