<svg id="Livello_1" data-name="Livello 1" xmlns="http://www.w3.org/2000/svg" viewBox="0 0 50 50"><defs><style>.cls-1{fill:none;stroke:#1d1d1b;stroke-linecap:round;stroke-linejoin:round;}</style></defs><title>cassette</title><path class="cls-1" d="M32.65,31.31,33.37,34H16.63l.72-2.68a1.43,1.43,0,0,1,1.38-1.06H31.27A1.43,1.43,0,0,1,32.65,31.31Zm5.91.68V18a2,2,0,0,0-2-2H13.44a2,2,0,0,0-2,2V32a2,2,0,0,0,2,2H36.56A2,2,0,0,0,38.56,32ZM18.71,21.45m14.34.85h0a1.76,1.76,0,0,0-1.76-1.77H18.71A1.76,1.76,0,0,0,17,22.3h0a1.76,1.76,0,0,0,1.76,1.76H31.29A1.76,1.76,0,0,0,33.05,22.3Zm-12.58,0a1.76,1.76,0,1,0-1.76,1.76A1.76,1.76,0,0,0,20.47,22.3Zm12.58,0a1.76,1.76,0,1,0-1.76,1.76A1.76,1.76,0,0,0,33.05,22.3ZM13.44,18h0m23.12,0h0m0,14h0M13.44,32h0"/></svg>