<svg id="Livello_1" data-name="Livello 1" xmlns="http://www.w3.org/2000/svg" viewBox="0 0 50 50"><defs><style>.cls-1{fill:none;stroke:#1d1d1b;stroke-linecap:round;stroke-linejoin:round;}</style></defs><title>cd</title><path class="cls-1" d="M25,38.56A13.56,13.56,0,1,1,38.56,25,13.56,13.56,0,0,1,25,38.56Zm10.48-13.7a10.48,10.48,0,0,0-4.28-8.31M14.52,25.14a10.45,10.45,0,0,0,1.7,5.58M26.92,25A1.92,1.92,0,1,0,25,26.92,1.92,1.92,0,0,0,26.92,25Zm2.81,0A4.73,4.73,0,1,0,25,29.73,4.73,4.73,0,0,0,29.73,25Z"/></svg>