<svg id="Livello_1" data-name="Livello 1" xmlns="http://www.w3.org/2000/svg" viewBox="0 0 50 50"><defs><style>.cls-1{fill:none;stroke:#000;stroke-linecap:round;stroke-linejoin:round;}</style></defs><title>database-remove</title><path class="cls-1" d="M15.27,20.59m10.1,10q1.11.06,2.28.06c6.82,0,12.37-1.43,12.37-3.19V20.59c0,1.75-5.55,3.18-12.37,3.18s-12.39-1.43-12.39-3.18M27.65,17c-6.83,0-12.38-1.43-12.38-3.18v6.82c0,1.75,5.55,3.18,12.38,3.18S40,22.34,40,20.59V13.77C40,15.52,34.47,17,27.65,17ZM25.49,37.38c.7,0,1.42,0,2.16,0C34.47,37.43,40,36,40,34.24V27.42c0,1.76-5.55,3.19-12.37,3.19q-1.17,0-2.28-.06m2.28-20c-6.83,0-12.38,1.43-12.38,3.19S20.82,17,27.65,17,40,15.52,40,13.77,34.47,10.58,27.65,10.58Zm-4.86,23a8.11,8.11,0,1,0-8.11,8.1A8.11,8.11,0,0,0,22.79,33.58ZM11.86,30.75l5.65,5.65m0-5.65L11.86,36.4"/></svg>