<svg id="Livello_1" data-name="Livello 1" xmlns="http://www.w3.org/2000/svg" viewBox="0 0 50 50"><defs><style>.cls-1{fill:none;stroke:#000;stroke-linecap:round;stroke-linejoin:round;}</style></defs><title>database</title><path class="cls-1" d="M37.38,21.58v6.84c0,1.75-5.55,3.18-12.37,3.18s-12.39-1.43-12.39-3.18V21.58c0,1.76,5.55,3.18,12.39,3.18S37.38,23.34,37.38,21.58ZM25,17.94c-6.84,0-12.39-1.42-12.39-3.18v6.82c0,1.76,5.55,3.18,12.39,3.18s12.37-1.42,12.37-3.18V14.76C37.38,16.52,31.83,17.94,25,17.94ZM25,31.6c-6.84,0-12.39-1.43-12.39-3.18v6.82c0,1.75,5.55,3.18,12.39,3.18S37.38,37,37.38,35.24V28.42C37.38,30.17,31.83,31.6,25,31.6Zm0-20c-6.84,0-12.39,1.43-12.39,3.18S18.17,17.94,25,17.94s12.37-1.42,12.37-3.18S31.83,11.58,25,11.58Z"/></svg>