<svg id="Livello_1" data-name="Livello 1" xmlns="http://www.w3.org/2000/svg" viewBox="0 0 50 50"><defs><style>.cls-1{fill:none;stroke:#000;stroke-linecap:round;stroke-linejoin:round;}</style></defs><title>file-video</title><path class="cls-1" d="M34.46,21.89V37.22a1.38,1.38,0,0,1-1.39,1.38H16.92a1.38,1.38,0,0,1-1.38-1.38V14.9a1.39,1.39,0,0,1,1.39-1.39h9.15v0l8.37,8.36Zm-8.38-8.36v7a1.38,1.38,0,0,0,1.38,1.38h7Zm-2.9,18.4L19.39,29a.48.48,0,0,0-.77.37v5.87a.48.48,0,0,0,.77.38l3.79-2.94A.47.47,0,0,0,23.18,31.93Z"/></svg>