<svg id="Livello_1" data-name="Livello 1" xmlns="http://www.w3.org/2000/svg" viewBox="0 0 50 50"><defs><style>.cls-1{fill:none;stroke:#000;stroke-linecap:round;stroke-linejoin:round;}</style></defs><title>file-pdf</title><path class="cls-1" d="M34.46,21.89V37.22a1.38,1.38,0,0,1-1.39,1.38H16.92a1.38,1.38,0,0,1-1.38-1.38V14.9a1.39,1.39,0,0,1,1.39-1.39h9.15v0l8.37,8.36Zm-8.38-8.36v7a1.38,1.38,0,0,0,1.38,1.38h7Zm-7.66,21.1c.62,0,1.55.16,2-.39A1,1,0,0,0,20,32.7a6.6,6.6,0,0,0-1.65,0v3.19m7-1.69c0-1.79-2.71-1.53-2.71-1.53v3.19S25.29,36,25.29,34.17Zm4.24-1.55H27.24v3.22m.17-1.41H28.9"/></svg>