<svg id="Livello_1" data-name="Livello 1" xmlns="http://www.w3.org/2000/svg" viewBox="0 0 50 50"><defs><style>.cls-1{fill:none;stroke:#000;stroke-linecap:round;stroke-linejoin:round;}</style></defs><title>file-image</title><path class="cls-1" d="M24.89,30.39a.57.57,0,0,1,.92.08l2.59,4.28a.57.57,0,0,1-.46.89h-9a.57.57,0,0,1-.47-.89l1.82-3.14a.57.57,0,0,1,.9-.11l1,1.36a.56.56,0,0,0,.84,0Zm9.56-8.5-8.37-8.36v0H16.93a1.39,1.39,0,0,0-1.39,1.39V37.22a1.38,1.38,0,0,0,1.38,1.38H33.07a1.38,1.38,0,0,0,1.39-1.38V21.89Zm-8.37-8.36v7a1.38,1.38,0,0,0,1.38,1.38h7Z"/></svg>