<svg id="Livello_1" data-name="Livello 1" xmlns="http://www.w3.org/2000/svg" viewBox="0 0 50 50"><defs><style>.cls-1{fill:none;stroke:#000;stroke-linecap:round;stroke-linejoin:round;}</style></defs><title>file-jpg</title><path class="cls-1" d="M22,34.59c.61,0,1.53.16,2-.38a1,1,0,0,0-.44-1.52,6.73,6.73,0,0,0-1.61,0v3.15M34.46,21.89V37.22a1.38,1.38,0,0,1-1.39,1.38H16.92a1.38,1.38,0,0,1-1.38-1.38V14.9a1.39,1.39,0,0,1,1.39-1.39h9.15v0l8.37,8.36Zm0,0h-7a1.38,1.38,0,0,1-1.38-1.38v-7ZM19.87,32.63v1.93c0,.73-.08,1.23-1,1.31-.24,0-.75-.17-.83-.44m10-1H29c0,2.08-3.16,1.9-3.11-.16a1.73,1.73,0,0,1,2.62-1.32"/></svg>