<svg id="Livello_1" data-name="Livello 1" xmlns="http://www.w3.org/2000/svg" viewBox="0 0 50 50"><defs><style>.cls-1{fill:none;stroke:#000;stroke-linecap:round;stroke-linejoin:round;}</style></defs><title>file-csv</title><path class="cls-1" d="M34.46,21.89V37.22a1.38,1.38,0,0,1-1.39,1.38H16.92a1.38,1.38,0,0,1-1.38-1.38V14.9a1.39,1.39,0,0,1,1.39-1.39h9.15v0l8.37,8.36Zm-8.38-8.36v7a1.38,1.38,0,0,0,1.38,1.38h7Zm-5,19.63a1.59,1.59,0,0,0-2.33-.06,1.68,1.68,0,0,0-.06,2.31,1.72,1.72,0,0,0,2.43-.18m2,.29a2,2,0,0,0,1.95.18.68.68,0,0,0,.24-1c-.29-.45-1.09-.5-1.53-.7-.22-.1-.47-.25-.52-.51-.21-1.07,1.51-1.17,2-.61m2.06-.31,1.22,3.25h.28l1.24-3.24"/></svg>