<svg id="Livello_1" data-name="Livello 1" xmlns="http://www.w3.org/2000/svg" viewBox="0 0 50 50"><defs><style>.cls-1{fill:none;stroke:#1d1d1b;stroke-linecap:round;stroke-linejoin:round;}</style></defs><title>floppy</title><path class="cls-1" d="M36.9,19.43V35.05a1.85,1.85,0,0,1-1.85,1.85H15a1.85,1.85,0,0,1-1.85-1.85V15A1.85,1.85,0,0,1,15,13.1H30.57a1.83,1.83,0,0,1,1.31.54l4.48,4.48A1.83,1.83,0,0,1,36.9,19.43Zm-6.26-2.06V13.1H19.36v4.27a1,1,0,0,0,1,1h9.28A1,1,0,0,0,30.64,17.37Zm1.26,9.32H18.1a1,1,0,0,0-1,1V36.9H32.9V27.69A1,1,0,0,0,31.9,26.69ZM28.38,15.23v1M19.55,30.4h7.1m-7.1,2.79h9.78"/></svg>