<svg id="Livello_1" data-name="Livello 1" xmlns="http://www.w3.org/2000/svg" viewBox="0 0 50 50"><defs><style>.cls-1{fill:none;stroke:#1d1d1b;stroke-linejoin:round;}</style></defs><title>folder-open-favorite</title><path class="cls-1" d="M38.56,22.05A1.88,1.88,0,0,0,38,22H12a1.88,1.88,0,0,0-.53.07A1.91,1.91,0,0,0,10,24.11L11.5,35.62a1.93,1.93,0,0,0,1.94,1.66H36.55a1.94,1.94,0,0,0,2-1.66L40,24.11A1.89,1.89,0,0,0,38.56,22.05Zm0-1.66v1.66A1.88,1.88,0,0,0,38,22H12a1.88,1.88,0,0,0-.53.07V15.87a2,2,0,0,1,2-2H17.8A2.89,2.89,0,0,1,20.08,15l2.09,2.62a2.12,2.12,0,0,0,1.65.8H36.56A2,2,0,0,1,38.56,20.39ZM24,26.68a1.81,1.81,0,0,1,1,1,1.76,1.76,0,0,1,1-1,1.73,1.73,0,0,1,2.36,1.57,2.56,2.56,0,0,1-.94,1.94c-.14.17-1.64,1.75-2.27,2.39L25,32.7l-.12-.12c-.63-.64-2.13-2.22-2.28-2.39a2.58,2.58,0,0,1-.93-1.94A1.73,1.73,0,0,1,24,26.68Z"/></svg>