<svg id="Livello_1" data-name="Livello 1" xmlns="http://www.w3.org/2000/svg" viewBox="0 0 50 50"><defs><style>.cls-1{fill:none;stroke:#13110c;stroke-linecap:round;stroke-linejoin:round;}</style></defs><title>folder-favorite</title><path class="cls-1" d="M28.33,25.88a2.58,2.58,0,0,1-.93,1.94c-.15.17-1.65,1.75-2.28,2.39a.68.68,0,0,1-.12.12l-.12-.12c-.63-.64-2.13-2.22-2.28-2.39a2.58,2.58,0,0,1-.93-1.94A1.73,1.73,0,0,1,24,24.31a1.78,1.78,0,0,1,1,1,1.78,1.78,0,0,1,1-1A1.73,1.73,0,0,1,28.33,25.88ZM13.44,36.13H36.56a2,2,0,0,0,2-2V20.39a2,2,0,0,0-2-2H23.82a2.12,2.12,0,0,1-1.65-.79L20.08,15a2.92,2.92,0,0,0-2.27-1.1H13.44a2,2,0,0,0-2,2V34.13A2,2,0,0,0,13.44,36.13Z"/></svg>