<svg id="Livello_1" data-name="Livello 1" xmlns="http://www.w3.org/2000/svg" viewBox="0 0 50 50"><defs><style>.cls-1{fill:none;stroke:#1d1d1b;stroke-linejoin:round;}</style></defs><title>folder-open</title><path class="cls-1" d="M40,24.11,38.5,35.62a1.94,1.94,0,0,1-2,1.66H13.44a1.93,1.93,0,0,1-1.94-1.66L10,24.11a1.91,1.91,0,0,1,1.42-2.06A1.88,1.88,0,0,1,12,22H38A1.94,1.94,0,0,1,40,24.11Zm-3.41-5.72H23.82a2.12,2.12,0,0,1-1.65-.8L20.08,15a2.89,2.89,0,0,0-2.28-1.1H13.44a2,2,0,0,0-2,2v6.18A1.88,1.88,0,0,1,12,22H38a1.88,1.88,0,0,1,.53.07V20.39A2,2,0,0,0,36.56,18.39Z"/></svg>