<svg id="Livello_1" data-name="Livello 1" xmlns="http://www.w3.org/2000/svg" viewBox="0 0 50 50"><defs><style>.cls-1{fill:none;stroke:#000;stroke-linecap:round;stroke-linejoin:round;}</style></defs><title>mouse copia 2</title><path class="cls-1" d="M25.37,41h-.74a6.07,6.07,0,0,1-6.07-6.07V27.1A6.07,6.07,0,0,1,24.63,21h.74a6.06,6.06,0,0,1,6.06,6.07v7.83A6.06,6.06,0,0,1,25.37,41ZM25,24.18v2.24M31.72,5.68V8h0a2.61,2.61,0,0,1-2.62,2.61h-14a2.62,2.62,0,0,0-2.62,2.62h0A2.62,2.62,0,0,0,15.1,15.8h7.36A2.55,2.55,0,0,1,25,18.35V21"/></svg>