<svg id="Livello_1" data-name="Livello 1" xmlns="http://www.w3.org/2000/svg" viewBox="0 0 50 50"><defs><style>.cls-1{fill:none;stroke:#000;stroke-linecap:round;stroke-linejoin:round;}</style></defs><title>mouse-apple</title><path class="cls-1" d="M24.87,30.93h0a1.23,1.23,0,0,1-1.23-1.24m7.15-8.87a13.18,13.18,0,0,0-.61-3.67A3.29,3.29,0,0,0,27,15H23a3.31,3.31,0,0,0-3.23,2.13,12.82,12.82,0,0,0-.6,3.67c-.1,1.92-.1,3.14-.12,4.17s0,2.27.12,4.19a12.81,12.81,0,0,0,.6,3.66A3.3,3.3,0,0,0,23,35H27a3.28,3.28,0,0,0,3.23-2.14,13.17,13.17,0,0,0,.61-3.66c.09-1.92.1-3.14.12-4.19S30.88,22.74,30.79,20.82Z"/></svg>