<svg id="Livello_1" data-name="Livello 1" xmlns="http://www.w3.org/2000/svg" viewBox="0 0 50 50"><defs><style>.cls-1{fill:none;stroke:#000;stroke-linecap:round;stroke-linejoin:round;}</style></defs><title>mouse-wifi</title><path class="cls-1" d="M17.45,15.81a11.44,11.44,0,0,1,15.09,0m2.48-3A15,15,0,0,0,25,9.05a14.79,14.79,0,0,0-10,3.77m15.07,6a7.66,7.66,0,0,0-10.12,0M31.44,34.89V27.05A6.07,6.07,0,0,0,25.37,21h-.74a6.07,6.07,0,0,0-6.07,6.07v7.84A6.06,6.06,0,0,0,24.63,41h.74A6.06,6.06,0,0,0,31.44,34.89ZM25,24.13v2.24"/></svg>