<svg id="Livello_1" data-name="Livello 1" xmlns="http://www.w3.org/2000/svg" viewBox="0 0 50 50"><defs><style>.cls-1{fill:none;stroke:#000;stroke-linecap:round;stroke-linejoin:round;}</style></defs><title>pen-tablet</title><path class="cls-1" d="M8.15,12.93H36.48a1.37,1.37,0,0,1,1.37,1.37V35.7a1.37,1.37,0,0,1-1.37,1.37H8.15A1.37,1.37,0,0,1,6.78,35.7V14.3A1.37,1.37,0,0,1,8.15,12.93ZM6.78,19.8H37.85m0-3.27h-6m-19.07,0h-6M42.94,17c0-.64-.23-1.16-.87-1.16h0c-.64,0-.87.52-.87,1.16l-.28,2.23V33.86A1.15,1.15,0,0,0,42.07,35h0a1.15,1.15,0,0,0,1.15-1.16V19.21Zm-.87-1.13V15"/></svg>