<svg id="Livello_1" data-name="Livello 1" xmlns="http://www.w3.org/2000/svg" viewBox="0 0 50 50"><defs><style>.cls-1{fill:none;stroke:#000;stroke-linecap:round;stroke-linejoin:round;}</style></defs><title>server</title><path class="cls-1" d="M37.68,22H12.32a1.43,1.43,0,0,1-1.42-1.43V14.65a1.43,1.43,0,0,1,1.42-1.43H37.68a1.43,1.43,0,0,1,1.42,1.43v5.88A1.43,1.43,0,0,1,37.68,22ZM39.1,32.2V26.32a1.43,1.43,0,0,0-1.42-1.43H12.32a1.43,1.43,0,0,0-1.42,1.43V32.2a1.43,1.43,0,0,0,1.42,1.43H37.68A1.43,1.43,0,0,0,39.1,32.2ZM35.59,17.59a1.14,1.14,0,1,0-1.13,1.13A1.13,1.13,0,0,0,35.59,17.59Zm-4.16,0a1.62,1.62,0,1,0-1.61,1.61A1.61,1.61,0,0,0,31.43,17.59Zm-17,0H28.2m7.39,11.67a1.14,1.14,0,1,0-1.13,1.13A1.13,1.13,0,0,0,35.59,29.26Zm-4.16,0a1.62,1.62,0,1,0-1.61,1.61A1.61,1.61,0,0,0,31.43,29.26Zm-17,0H28.2m8-7.3v2.93M13.79,22v2.93m1,11.89H35.18a1,1,0,0,0,1-1V33.63H13.79v2.13A1,1,0,0,0,14.82,36.78Z"/></svg>