<svg id="Livello_1" data-name="Livello 1" xmlns="http://www.w3.org/2000/svg" viewBox="0 0 50 50"><defs><style>.cls-1{fill:none;stroke:#000;stroke-linecap:round;stroke-linejoin:round;}</style></defs><title>server-remove</title><path class="cls-1" d="M14.84,41.84A8.11,8.11,0,1,1,23,33.73,8.11,8.11,0,0,1,14.84,41.84ZM12,30.9l5.65,5.65m0-5.65L12,36.55M41.56,19.44V13.56a1.43,1.43,0,0,0-1.43-1.43H14.78a1.43,1.43,0,0,0-1.43,1.43v5.88a1.43,1.43,0,0,0,1.43,1.43H40.13A1.43,1.43,0,0,0,41.56,19.44ZM26,32.54H40.13a1.43,1.43,0,0,0,1.43-1.42V25.23a1.43,1.43,0,0,0-1.43-1.43H20m18.07-7.3a1.14,1.14,0,1,0-1.13,1.14A1.13,1.13,0,0,0,38.05,16.5Zm-4.16,0a1.62,1.62,0,1,0-1.62,1.62A1.61,1.61,0,0,0,33.89,16.5Zm-17,0h13.8m7.39,11.67a1.14,1.14,0,0,0-2.27,0,1.14,1.14,0,1,0,2.27,0Zm-4.16,0a1.62,1.62,0,1,0-1.62,1.61A1.61,1.61,0,0,0,33.89,28.17Zm-9.36,0h6.13m8-4.37V20.88M25.84,35.7h11.8a1,1,0,0,0,1-1V32.54H26"/></svg>