<svg id="Livello_1" data-name="Livello 1" xmlns="http://www.w3.org/2000/svg" viewBox="0 0 50 50"><defs><style>.cls-1{fill:none;stroke:#000;stroke-linecap:round;stroke-linejoin:round;}</style></defs><title>server-download</title><path class="cls-1" d="M40.13,20.87H14.78a1.43,1.43,0,0,1-1.43-1.43V13.56a1.43,1.43,0,0,1,1.43-1.43H40.13a1.43,1.43,0,0,1,1.43,1.43v5.88A1.43,1.43,0,0,1,40.13,20.87ZM26,32.54H40.13a1.43,1.43,0,0,0,1.43-1.42V25.23a1.43,1.43,0,0,0-1.43-1.43H20m18.07-7.3a1.14,1.14,0,1,0-1.13,1.14A1.13,1.13,0,0,0,38.05,16.5Zm-4.16,0a1.62,1.62,0,1,0-1.62,1.62A1.61,1.61,0,0,0,33.89,16.5Zm-17,0h13.8m7.39,11.67a1.14,1.14,0,0,0-2.27,0,1.14,1.14,0,1,0,2.27,0Zm-4.16,0a1.62,1.62,0,1,0-1.62,1.61A1.61,1.61,0,0,0,33.89,28.17Zm-9.36,0h6.13m8-4.37V20.88M25.84,35.7h11.8a1,1,0,0,0,1-1V32.54H26M6.74,33.73a8.11,8.11,0,1,0,8.1-8.11A8.11,8.11,0,0,0,6.74,33.73Zm8.1-4.39v8.77M11.53,34.8l3.31,3.31,3.32-3.31"/></svg>