<?xml version="1.0" encoding="UTF-8"?>
<svg id="Livello_1" data-name="Livello 1" xmlns="http://www.w3.org/2000/svg" viewBox="0 0 24 24">
  <path d="M10.05,10.74c-2.83,0-5.13,2.3-5.13,5.13s2.3,5.13,5.13,5.13,5.13-2.3,5.13-5.13-2.3-5.13-5.13-5.13Zm0,8.76c-2,0-3.63-1.63-3.63-3.63s1.63-3.63,3.63-3.63,3.63,1.63,3.63,3.63-1.63,3.63-3.63,3.63Z"/>
  <path d="M11.36,15.87c0,.73-.59,1.32-1.32,1.32-.41,0-.75,.34-.75,.75s.34,.75,.75,.75c1.55,0,2.82-1.26,2.82-2.82,0-.41-.34-.75-.75-.75s-.75,.34-.75,.75Z"/>
  <path d="M16.14,6.21c-1.62,0-2.94,1.32-2.94,2.94s1.32,2.94,2.94,2.94,2.94-1.32,2.94-2.94-1.32-2.94-2.94-2.94Zm0,4.38c-.79,0-1.44-.65-1.44-1.44s.65-1.44,1.44-1.44,1.44,.65,1.44,1.44-.65,1.44-1.44,1.44Z"/>
  <path d="M13.38,5.39c0-1.32-1.07-2.39-2.39-2.39s-2.39,1.07-2.39,2.39,1.07,2.39,2.39,2.39,2.39-1.07,2.39-2.39Zm-3.28,0c0-.49,.4-.89,.89-.89s.89,.4,.89,.89-.4,.89-.89,.89-.89-.4-.89-.89Z"/>
</svg>