<?xml version="1.0" encoding="UTF-8"?>
<svg id="Livello_1" data-name="Livello 1" xmlns="http://www.w3.org/2000/svg" viewBox="0 0 24 24">
  <path d="M12,1.59c-3.05,0-5.53,2.48-5.53,5.53v.67c0,1.29,.99,2.35,2.24,2.48,.25,.47,.24,.75-.05,1.2-.1,.16-.23,.29-.38,.44-.29,.3-.66,.66-.81,1.34-.24,1.03,.26,1.72,.63,2.22,.11,.15,.22,.3,.31,.46,.47,.86,.24,1.46-.04,2.22-.13,.35-.27,.71-.33,1.12-.28,1.71,.28,2.68,.35,2.79,.14,.23,.38,.35,.63,.35,.13,0,.27-.03,.39-.11,.35-.21,.47-.67,.27-1.02-.01-.02-.34-.62-.15-1.76,.04-.26,.15-.54,.26-.83,.32-.84,.75-1.99-.04-3.46-.12-.22-.27-.43-.42-.63-.34-.46-.45-.66-.38-.98,.06-.25,.17-.38,.42-.63,.17-.18,.39-.4,.58-.7,.47-.76,.52-1.41,.39-1.97h.86c-.06,.27-.1,.56-.09,.86,0,.57,.12,1.1,.23,1.62,.1,.46,.19,.9,.19,1.32s-.18,.84-.38,1.3c-.24,.57-.51,1.22-.48,1.95,.02,.57,.24,1.04,.42,1.45,.12,.27,.24,.53,.28,.76,.09,.52-.05,1.06-.36,1.45-.26,.32-.2,.8,.12,1.05,.14,.11,.3,.16,.46,.16,.22,0,.44-.1,.59-.29,.57-.72,.82-1.7,.66-2.63-.07-.43-.24-.8-.39-1.13-.15-.33-.28-.62-.29-.89-.02-.4,.16-.82,.37-1.31,.23-.55,.49-1.17,.5-1.88,0-.58-.12-1.12-.23-1.64-.1-.46-.19-.89-.19-1.31,0-.32,.07-.61,.17-.85h.77c-.09,.48-.07,.97,.09,1.45,.17,.5,.49,.87,.76,1.19,.38,.45,.52,.65,.47,.97-.04,.26-.22,.55-.4,.86-.07,.12-.15,.24-.22,.37-.43,.77-.5,1.53-.21,2.19,.14,.31,.33,.55,.5,.76,.13,.16,.24,.3,.29,.42,.15,.37,.15,.85,0,1.35-.13,.44-.36,.92-.66,1.37-.23,.34-.14,.81,.2,1.04,.13,.09,.27,.13,.42,.13,.24,0,.48-.12,.62-.33,.4-.59,.69-1.19,.86-1.79,.17-.59,.3-1.47-.05-2.34-.14-.33-.34-.58-.52-.8-.12-.15-.23-.29-.29-.41-.12-.28,.02-.62,.15-.87,.06-.11,.12-.21,.19-.32,.24-.4,.51-.84,.6-1.4,.17-1.04-.4-1.7-.81-2.18-.22-.25-.4-.47-.49-.71-.11-.32-.09-.66,.05-.96,1.35-.04,2.44-1.14,2.44-2.5v-.67c0-3.05-2.48-5.53-5.53-5.53Zm4.03,6.2c0,.56-.45,1.01-1.01,1.01h-6.04c-.56,0-1.01-.45-1.01-1.01v-.67c0-2.22,1.81-4.03,4.03-4.03s4.03,1.81,4.03,4.03v.67Z"/>
</svg>