<?xml version="1.0" encoding="UTF-8"?>
<svg id="Livello_1" data-name="Livello 1" xmlns="http://www.w3.org/2000/svg" viewBox="0 0 24 24">
  <path d="M13.64,4.31h-3.28c-4.07,0-7.37,3.31-7.37,7.37v.71c0,1.15,.73,2.12,1.75,2.49-.31,.46-.49,.99-.53,1.52,0,.03,0,.12,0,.15v1.39c0,.97,.79,1.76,1.75,1.76s1.76-.79,1.76-1.76v-.61c0-.29,.52-.27,.52,0v.61c0,.97,.79,1.76,1.75,1.76s1.76-.79,1.76-1.76v-.61c0-.28,.5-.3,.5,0v.61c0,.97,.79,1.76,1.77,1.76s1.76-.79,1.76-1.76v-.61c0-.29,.51-.29,.51,0v.61c0,.47,.18,.91,.5,1.22,.32,.34,.78,.53,1.26,.53,.97,0,1.76-.79,1.76-1.76v-1.14c.02-.18,0-.35,0-.47-.04-.5-.22-1.01-.52-1.45,1.01-.38,1.74-1.34,1.74-2.49v-.71c0-4.06-3.31-7.37-7.37-7.37Zm4.65,12.39v1.24c0,.21-.31,.31-.44,.18-.03-.03-.07-.09-.07-.18v-.61c0-.97-.79-1.76-1.76-1.76s-1.76,.79-1.76,1.76v.61c0,.14-.12,.26-.26,.26s-.27-.12-.27-.26v-.61c0-.97-.78-1.76-1.74-1.76s-1.76,.79-1.76,1.76v.61c0,.27-.51,.28-.51,0v-.61c0-.97-.79-1.76-1.77-1.76s-1.76,.79-1.76,1.76v.61c0,.27-.51,.28-.51,0v-1.38s0-.1,0-.11c.05-.65,.58-1.33,1.38-1.4h9.82c.83,.07,1.33,.76,1.39,1.41,0,0,0,0,0,0,0,.07,0,.12,0,.23Zm1.22-4.31c0,.64-.52,1.16-1.16,1.16h-1.43s-.07-.01-.11-.01H7.18s-.07,.01-.11,.01h-1.42c-.64,0-1.16-.52-1.16-1.16v-.71c0-3.24,2.63-5.87,5.87-5.87h3.28c3.24,0,5.87,2.63,5.87,5.87v.71Z"/>
  <path d="M10.41,7.56c-.49,0-.89,.4-.89,.89s.4,.89,.89,.89,.89-.4,.89-.89-.4-.89-.89-.89Z"/>
  <path d="M13.59,7.56c-.49,0-.89,.4-.89,.89s.4,.89,.89,.89,.89-.4,.89-.89-.4-.89-.89-.89Z"/>
  <path d="M15.4,10.11c-.49,0-.89,.4-.89,.89s.4,.89,.89,.89,.89-.4,.89-.89-.4-.89-.89-.89Z"/>
  <path d="M12,10.11c-.49,0-.89,.4-.89,.89s.4,.89,.89,.89,.89-.4,.89-.89-.4-.89-.89-.89Z"/>
  <path d="M8.6,10.11c-.49,0-.89,.4-.89,.89s.4,.89,.89,.89,.89-.4,.89-.89-.4-.89-.89-.89Z"/>
</svg>