<?xml version="1.0" encoding="UTF-8"?>
<svg id="Livello_1" data-name="Livello 1" xmlns="http://www.w3.org/2000/svg" viewBox="0 0 24 24">
  <path d="M18.13,20.5c-1.53-.1-2.13-.73-2.83-1.46-.72-.76-1.54-1.61-3.37-1.69-1.74,.07-2.56,.93-3.28,1.69-.7,.73-1.3,1.36-2.83,1.46-.41,.03-.73,.38-.7,.8,.03,.41,.42,.72,.8,.7,2.11-.14,3.06-1.12,3.81-1.92,.65-.68,1.12-1.17,2.22-1.22,1.14,.05,1.61,.54,2.26,1.22,.76,.79,1.7,1.78,3.81,1.92,.02,0,.03,0,.05,0,.39,0,.72-.3,.75-.7,.03-.41-.29-.77-.7-.8Z"/>
  <path d="M20.21,15.94c-.9,1.18-1.82,1.31-3.21,1.32,0-.03-.01-.07-.02-.1,0,0,.01,0,.02,0,1.18-.33,2.41-.66,3.07-2.3,.16-.38-.03-.82-.42-.98-.38-.15-.82,.03-.98,.42-.29,.71-.68,.98-1.41,1.22,.15-.32,.34-.67,.55-1.05,.35-.61,.7-1.25,.95-1.92,.38-1.02,.17-2.05-.54-2.85,.2-1.34,.02-2.7-.56-3.95-1.03-2.2-3.31-3.67-5.68-3.67s-4.65,1.48-5.68,3.67c-.59,1.25-.76,2.61-.56,3.95-.7,.8-.91,1.83-.53,2.85,.25,.67,.6,1.3,.95,1.92,.21,.37,.41,.73,.55,1.05-.72-.24-1.12-.5-1.41-1.22-.15-.38-.59-.57-.98-.42-.38,.15-.57,.59-.42,.98,.66,1.64,1.88,1.97,3.07,2.3,0,0,.01,0,.02,0,0,.03,0,.07-.02,.1-1.39-.01-2.31-.14-3.21-1.32-.25-.33-.72-.39-1.05-.14-.33,.25-.39,.72-.14,1.05,.87,1.14,1.82,1.59,2.83,1.78-.39,.07-.82,.08-1.26,0-.41-.08-.8,.18-.88,.59-.08,.41,.18,.8,.59,.88,.33,.07,.66,.1,.99,.1,1.13,0,2.16-.4,2.84-1.12,.21-.22,.37-.46,.5-.73,.01-.03,.03-.06,.04-.09,.34-.75,.4-1.65,.13-2.63-.16-.6-.51-1.22-.89-1.89-.32-.56-.64-1.15-.85-1.7-.28-.75,.12-1.27,.49-1.57,.5-.39,.94-.52,1.49-.42,.4,.07,.8-.2,.87-.61,.07-.41-.2-.8-.61-.87-.6-.1-1.16-.04-1.7,.17,0-.8,.15-1.6,.5-2.34,.77-1.65,2.55-2.81,4.32-2.81s3.55,1.15,4.32,2.81c.35,.75,.51,1.54,.5,2.34-.54-.21-1.1-.28-1.7-.17-.41,.07-.68,.46-.61,.87,.07,.41,.47,.68,.87,.61,.55-.1,1,.03,1.49,.42,.38,.3,.77,.82,.5,1.57-.21,.56-.53,1.14-.85,1.7-.37,.67-.73,1.29-.89,1.89-.27,.98-.21,1.88,.13,2.63,.01,.03,.02,.06,.04,.09,.13,.26,.3,.51,.5,.73,.68,.72,1.72,1.12,2.84,1.12,.32,0,.66-.03,.99-.1,.41-.08,.67-.48,.59-.88-.08-.41-.48-.67-.88-.59-.44,.09-.87,.08-1.26,0,1.01-.19,1.96-.64,2.83-1.78,.25-.33,.19-.8-.14-1.05-.33-.25-.8-.19-1.05,.14Z"/>
  <path d="M15.46,13.79c.55-.17,.9-.75,1.01-1.25,.1-.47-.04-.95-.37-1.28-.47-.46-1.09-.47-1.62-.03-.06,.05-.11,.11-.15,.17-.52,.82-.35,1.65,.06,2.1,.22,.21,.49,.33,.76,.33,.1,0,.21-.02,.31-.05Z"/>
  <path d="M9.64,13.48c.38-.42,.55-1.24,.03-2.07-.04-.07-.09-.12-.15-.17-.53-.44-1.15-.43-1.61,.03-.33,.33-.47,.81-.37,1.28,.11,.5,.46,1.08,1.01,1.25,.1,.03,.2,.04,.3,.04,.28,0,.57-.12,.8-.36Z"/>
</svg>