<?xml version="1.0" encoding="UTF-8"?>
<svg id="Livello_1" data-name="Livello 1" xmlns="http://www.w3.org/2000/svg" viewBox="0 0 24 24">
  <path d="M21.74,16.28c.22-3.5-1.84-11.06-9.77-13.08-.03,0-.05,0-.08,0v-.11c0-.41-.34-.75-.75-.75s-.75,.34-.75,.75v.29s-.04,.02-.05,.04c-2.82,3.64-5.35,7.16-7.75,10.75-.15,.23-.17,.53-.04,.77,.13,.24,.38,.4,.66,.4h7.18v.93H2.34s0,0,0,0c-.26,0-.51,.14-.64,.37-.14,.23-.14,.51-.02,.74,1.17,2.16,3.31,3.61,4.94,4.24,.09,.03,.18,.05,.27,.05h10.22c.09,0,.19-.02,.27-.05,1.62-.64,3.77-2.08,4.93-4.24,.13-.23,.12-.51-.01-.74-.12-.2-.33-.32-.56-.34ZM13.74,5.41c4.56,2.13,6.24,6.6,6.49,9.54-1.71-1.02-3.47-1.53-5.37-1.53-.39,0-.79,.02-1.2,.07,1.67-2.69,1.38-5.65,.07-8.08Zm-1.84,7.98V5.28c1.53,2.21,2.23,5.32,0,8.12Zm-7.27,.44c1.81-2.67,3.72-5.31,5.77-8.01V13.85H4.63Zm7.27,1.49s.08,0,.13-.01c2.81-.74,5.16-.45,7.46,.94h-7.48s-.1,0-.1,0v-.93Zm5.07,4.82H7.04c-1.05-.43-2.32-1.25-3.28-2.4H12s8.24,0,8.24,0c-.96,1.15-2.23,1.96-3.28,2.4Z"/>
</svg>