<?xml version="1.0" encoding="UTF-8"?>
<svg id="Livello_1" data-name="Livello 1" xmlns="http://www.w3.org/2000/svg" viewBox="0 0 24 24">
  <path d="M19.67,12.76V6.08c0-2.05-1.67-3.71-3.71-3.71h-3.41v-.22c0-.41-.34-.75-.75-.75s-.75,.34-.75,.75v.22h-2.18c-.41,0-.75,.34-.75,.75s.34,.75,.75,.75h2.18v.7h-.77c-.41,0-.75,.34-.75,.75v1.17h-.22c-1.14,0-2.07,.87-2.07,1.93v12.26c0,1.07,.93,1.94,2.07,1.94h4.97c1.14,0,2.07-.87,2.07-1.94V8.41c0-1.06-.93-1.93-2.07-1.93h-.21v-1.17c0-.41-.34-.75-.75-.75h-.77v-.7h3.41c1.22,0,2.21,.99,2.21,2.21v6.69c-.32,.24-.54,.6-.54,1.03,0,.72,.58,1.29,1.29,1.29s1.29-.58,1.29-1.29c0-.43-.22-.79-.54-1.03Zm-5.39,8.35h-4.97c-.31,0-.57-.2-.57-.44v-3.06h6.11v3.06c0,.24-.26,.44-.57,.44Zm-5.54-5v-3.14h6.1v3.14h-6.1Zm6.11-7.7v3.07h-6.11v-3.07c0-.23,.26-.43,.57-.43h4.97c.31,0,.57,.2,.57,.43Zm-2.28-1.93h-1.54v-.42h1.54v.42Z"/>
</svg>