<?xml version="1.0" encoding="UTF-8"?>
<svg id="Livello_1" data-name="Livello 1" xmlns="http://www.w3.org/2000/svg" viewBox="0 0 24 24">
  <path d="M21.16,9.32h-.42V3.38c0-.41-.34-.75-.75-.75s-.75,.34-.75,.75v5.94h-.41c-.71-1.16-2.01-1.95-3.52-1.95h-6.64c-1.51,0-2.81,.79-3.52,1.95H2.84c-.23,0-.45,.11-.59,.29-.14,.18-.19,.42-.14,.64l.16,.64c.08,.34,.38,.57,.73,.57h1.63c.1,2.11,1.67,3.69,3.76,3.69,1.72,0,2.54-1.08,3.08-1.79,.09-.12,.18-.24,.29-.37,.13-.17,.23-.22,.24-.22,.03,0,.12,.05,.28,.25,.09,.1,.18,.22,.27,.34,.54,.71,1.36,1.79,3.08,1.79s3.19-1.15,3.62-2.8v4.27c0,1.79-1.46,3.25-3.25,3.25-1.46,0-2.68-.97-3.09-2.3,.37-.05,.66-.35,.66-.73v-.74c0-.41-.34-.75-.75-.75h-1.64c-.41,0-.75,.34-.75,.75v.74c0,.41,.34,.75,.75,.75h.18c.45,2.15,2.36,3.78,4.65,3.78,2.62,0,4.75-2.13,4.75-4.75v-5.15h.26c.35,0,.65-.24,.73-.57l.15-.64c.05-.22,0-.46-.14-.64-.14-.18-.36-.29-.59-.29Zm-5.54,4.33c-.98,0-1.42-.58-1.89-1.2-.11-.15-.22-.28-.3-.38-.4-.52-.91-.81-1.44-.81s-1.04,.29-1.41,.78c-.11,.12-.21,.26-.32,.41-.47,.62-.91,1.2-1.89,1.2-1.34,0-2.28-.98-2.28-2.39,0-1.32,1.16-2.39,2.58-2.39h6.64c1.42,0,2.58,1.07,2.58,2.39,0,1.41-.94,2.39-2.28,2.39Z"/>
</svg>