<?xml version="1.0" encoding="UTF-8"?>
<svg id="Livello_1" data-name="Livello 1" xmlns="http://www.w3.org/2000/svg" viewBox="0 0 24 24">
  <path d="M19.58,6.67c-1.71,.78-3,.95-3.84,.48-.06-.03-.12-.04-.19-.06-.33-.27-.68-.51-1.06-.7v-1.62c0-1.37-1.11-2.48-2.48-2.48s-2.48,1.11-2.48,2.48v1.62c-.38,.19-.73,.43-1.05,.7-.07,.02-.13,.03-.2,.06-.84,.46-2.13,.3-3.84-.48-.23-.11-.49-.09-.71,.04-.21,.13-.35,.36-.36,.61-.03,.88,.56,2.72,2.79,3.86-.06,.38-.1,.76-.1,1.16,0,.64,.09,1.25,.24,1.83-2.08,2.14-1.12,4.67-.33,5.72,.14,.19,.36,.29,.6,.29,.01,0,.02,0,.03,0,.25-.01,.47-.14,.6-.35l1.36-2.17c.43,.33,.89,.61,1.39,.81l.65,2.18c.19,.64,.75,1.07,1.4,1.07s1.2-.43,1.4-1.07l.65-2.18c.5-.2,.97-.47,1.39-.81l1.36,2.17c.13,.21,.35,.34,.6,.35,.01,0,.02,0,.03,0,.23,0,.45-.11,.6-.29,.8-1.04,1.75-3.58-.33-5.72,.15-.58,.24-1.2,.24-1.83,0-.39-.04-.78-.1-1.16,2.23-1.14,2.81-2.98,2.79-3.86,0-.25-.14-.48-.36-.61-.21-.13-.48-.15-.71-.04Zm-7.58,10.71c-1.27,0-2.42-.62-3.23-1.59l1.72-1.72,1.07,.77c.13,.1,.29,.14,.44,.14s.31-.05,.44-.14l1.01-.73,1.74,1.74c-.81,.94-1.94,1.53-3.19,1.53Zm-1.14-9.92c.35-.11,.73-.17,1.14-.17s.79,.06,1.16,.18c.59,.18,1.11,.49,1.57,.9l-2.16,2.16h-1.3l-2.08-2.08c.48-.45,1.04-.8,1.68-.99Zm5.13,7.07l-1.75-1.75-.44-1.36,1.89-1.89c.48,.81,.77,1.78,.77,2.81,0,.79-.17,1.53-.46,2.19Zm-8.44-2.19c0-.99,.26-1.91,.71-2.7l1.91,1.91-.35,1.08-1.84,1.84c-.27-.65-.43-1.36-.43-2.12Zm4.04-.31h.83l.26,.79-.67,.49-.67-.49,.26-.79Zm.41-8.24c.55,0,.98,.43,.98,.98v1.13c-.65-.12-1.33-.12-1.96,0v-1.12c0-.54,.44-.98,.98-.98Zm-6.66,4.83c.59,.17,1.12,.25,1.63,.27-.15,.27-.28,.55-.4,.84-.59-.34-.98-.74-1.23-1.1Zm1.31,9.27c-.16-.59-.18-1.35,.3-2.13,.16,.28,.33,.55,.53,.81l-.83,1.32Zm5.4,2.32l-.41-1.36c.12,0,.24,.02,.37,.02,.14,0,.27-.01,.4-.02l-.36,1.36Zm5.32-2.32l-.83-1.32c.2-.25,.37-.52,.53-.81,.48,.78,.47,1.54,.3,2.13Zm.07-8.17c-.12-.29-.25-.57-.4-.83,.51-.02,1.04-.09,1.63-.27-.25,.37-.64,.76-1.23,1.1Z"/>
</svg>