<?xml version="1.0" encoding="UTF-8"?>
<svg id="Livello_1" data-name="Livello 1" xmlns="http://www.w3.org/2000/svg" viewBox="0 0 24 24">
  <path d="M22.71,16.15c-1.66,0-2.82-.78-2.82-1.48,0-.41-.34-.75-.75-.75s-.75,.34-.75,.75c0,.28-.19,.56-.51,.81-1.04-5.6-5.97-8.78-7.88-9.12-.24-.04-.49,.04-.67,.21-.17,.18-.25,.43-.2,.67,.8,4.08-.08,6.84-2.68,8.45-.53-.29-.85-.67-.85-1.03,0-.41-.34-.75-.75-.75s-.75,.34-.75,.75c0,.7-1.16,1.48-2.82,1.48-.41,0-.75,.34-.75,.75s.34,.75,.75,.75c1.5,0,2.8-.5,3.57-1.28,.77,.78,2.07,1.28,3.57,1.28s2.8-.5,3.57-1.28c.77,.78,2.07,1.28,3.57,1.28s2.8-.5,3.57-1.28c.77,.78,2.07,1.28,3.57,1.28,.41,0,.75-.34,.75-.75s-.34-.75-.75-.75Zm-9.96-1.48c0-.41-.34-.75-.75-.75s-.75,.34-.75,.75c0,.7-1.16,1.48-2.82,1.48-.02,0-.04,0-.07,0,2.04-1.79,2.87-4.43,2.45-7.88,1.89,1,5,3.7,5.64,7.8-.28,.05-.57,.09-.89,.09-1.66,0-2.82-.78-2.82-1.48Z"/>
</svg>