<?xml version="1.0" encoding="UTF-8"?>
<svg id="Livello_1" data-name="Livello 1" xmlns="http://www.w3.org/2000/svg" viewBox="0 0 24 24">
  <path d="M18.56,5.24c-.04-.05-.09-.09-.14-.13-1.71-1.52-3.96-2.45-6.42-2.45s-4.71,.93-6.42,2.45c-.05,.04-.09,.08-.13,.12-1.92,1.77-3.13,4.3-3.13,7.12,0,.28,.01,.56,.04,.82,.02,.19,.11,.36,.25,.49l4.29,3.83-1.57,3.22c-.11,.23-.1,.51,.04,.73,.14,.22,.38,.35,.64,.35h12.01c.26,0,.5-.13,.64-.35,.14-.22,.15-.49,.04-.73l-1.57-3.22,4.3-3.84c.14-.13,.23-.3,.25-.49,.02-.27,.04-.54,.04-.82,0-2.81-1.21-5.34-3.13-7.11Zm-7.32,13.75L6.88,5.96c1.22-.98,2.72-1.62,4.37-1.77v14.79Zm1.5-14.79c1.64,.15,3.15,.79,4.37,1.77l-4.37,13.02V4.19ZM3.81,12.35c0-1.98,.7-3.8,1.88-5.21l3.48,10.39L3.82,12.74c0-.13,0-.26,0-.4Zm3.38,7.95l.86-1.76,1.98,1.76h-2.84Zm6.77,0l1.98-1.76,.86,1.76h-2.84Zm6.21-7.55l-5.36,4.78,3.49-10.4c1.18,1.42,1.88,3.24,1.88,5.22,0,.13,0,.27,0,.4Z"/>
</svg>