<?xml version="1.0" encoding="UTF-8"?>
<svg id="Livello_1" data-name="Livello 1" xmlns="http://www.w3.org/2000/svg" viewBox="0 0 24 24">
  <path d="M22.3,16.35c-.99,0-1.83-.6-1.83-1.3,0-.41-.34-.75-.75-.75s-.75,.34-.75,.75c0,.71-.84,1.3-1.83,1.3s-1.83-.6-1.83-1.3c0-.41-.34-.75-.75-.75s-.75,.34-.75,.75c0,.71-.84,1.3-1.83,1.3s-1.83-.6-1.83-1.3c0-.41-.34-.75-.75-.75s-.75,.34-.75,.75c0,.71-.84,1.3-1.83,1.3s-1.83-.6-1.83-1.3c0-.41-.34-.75-.75-.75s-.75,.34-.75,.75c0,.71-.84,1.3-1.83,1.3-.41,0-.75,.34-.75,.75s.34,.75,.75,.75c1.04,0,1.97-.4,2.58-1.03,.61,.63,1.54,1.03,2.58,1.03s1.97-.4,2.58-1.03c.61,.63,1.54,1.03,2.58,1.03s1.97-.4,2.58-1.03c.61,.63,1.54,1.03,2.58,1.03s1.97-.4,2.58-1.03c.61,.63,1.54,1.03,2.58,1.03,.41,0,.75-.34,.75-.75s-.34-.75-.75-.75Z"/>
  <path d="M22.3,12.28c-.99,0-1.83-.6-1.83-1.3,0-.41-.34-.75-.75-.75s-.75,.34-.75,.75c0,.71-.84,1.3-1.83,1.3s-1.83-.6-1.83-1.3c0-.41-.34-.75-.75-.75s-.75,.34-.75,.75c0,.71-.84,1.3-1.83,1.3s-1.83-.6-1.83-1.3c0-.41-.34-.75-.75-.75s-.75,.34-.75,.75c0,.71-.84,1.3-1.83,1.3s-1.83-.6-1.83-1.3c0-.41-.34-.75-.75-.75s-.75,.34-.75,.75c0,.71-.84,1.3-1.83,1.3-.41,0-.75,.34-.75,.75s.34,.75,.75,.75c1.04,0,1.97-.4,2.58-1.03,.61,.63,1.54,1.03,2.58,1.03s1.97-.4,2.58-1.03c.61,.63,1.54,1.03,2.58,1.03s1.97-.4,2.58-1.03c.61,.63,1.54,1.03,2.58,1.03s1.97-.4,2.58-1.03c.61,.63,1.54,1.03,2.58,1.03,.41,0,.75-.34,.75-.75s-.34-.75-.75-.75Z"/>
  <path d="M22.3,8.21c-.99,0-1.83-.6-1.83-1.3,0-.41-.34-.75-.75-.75s-.75,.34-.75,.75c0,.71-.84,1.3-1.83,1.3s-1.83-.6-1.83-1.3c0-.41-.34-.75-.75-.75s-.75,.34-.75,.75c0,.71-.84,1.3-1.83,1.3s-1.83-.6-1.83-1.3c0-.41-.34-.75-.75-.75s-.75,.34-.75,.75c0,.71-.84,1.3-1.83,1.3s-1.83-.6-1.83-1.3c0-.41-.34-.75-.75-.75s-.75,.34-.75,.75c0,.71-.84,1.3-1.83,1.3-.41,0-.75,.34-.75,.75s.34,.75,.75,.75c1.04,0,1.97-.4,2.58-1.03,.61,.63,1.54,1.03,2.58,1.03s1.97-.4,2.58-1.03c.61,.63,1.54,1.03,2.58,1.03s1.97-.4,2.58-1.03c.61,.63,1.54,1.03,2.58,1.03s1.97-.4,2.58-1.03c.61,.63,1.54,1.03,2.58,1.03,.41,0,.75-.34,.75-.75s-.34-.75-.75-.75Z"/>
</svg>