<svg id="Livello_1" data-name="Livello 1" xmlns="http://www.w3.org/2000/svg" viewBox="0 0 28 28"><defs><style>.cls-1{fill:#221f20;}</style></defs><title>chart</title><path class="cls-1" d="M21.59,22.09H6.41a.5.5,0,0,1-.5-.5V6.41a.5.5,0,0,1,.5-.5H21.59a.5.5,0,0,1,.5.5V21.59A.5.5,0,0,1,21.59,22.09Zm-13.68-2H20.09V7.91H7.91ZM11.7,18V13.37a.5.5,0,0,0-.5-.5h-1a.5.5,0,0,0-.5.5V18a.5.5,0,0,0,.5.5h1A.5.5,0,0,0,11.7,18Zm6.6,0v-2.6a.5.5,0,0,0-.5-.5h-1a.5.5,0,0,0-.5.5V18a.5.5,0,0,0,.5.5h1A.5.5,0,0,0,18.3,18ZM15,18v-7.3a.5.5,0,0,0-.5-.5h-1a.5.5,0,0,0-.5.5V18a.5.5,0,0,0,.5.5h1A.5.5,0,0,0,15,18Z"/></svg>