<svg id="Livello_1" data-name="Livello 1" xmlns="http://www.w3.org/2000/svg" viewBox="0 0 28 28"><defs><style>.cls-1{fill:#221f20;}</style></defs><title>download</title><path class="cls-1" d="M14.07,16.77h-.14l-.17-.08-3.13-3-.08-.18v-.14l.08-.18.88-.86.18-.07h.14l.17.07,1,1V6.77l.07-.18.1-.1.18-.07h1.25l.18.07.1.1.07.18v6.51l1-1,.17-.07h.14l.18.07.88.86.07.18v.14l-.07.18-3.13,3Zm8.38,4.31V16.16a.5.5,0,0,0-.5-.5H21a.51.51,0,0,0-.5.5v3.42H7.55V16.16a.51.51,0,0,0-.5-.5h-1a.5.5,0,0,0-.5.5v4.92a.5.5,0,0,0,.5.5H22A.5.5,0,0,0,22.45,21.08Z"/></svg>