<svg id="Livello_1" data-name="Livello 1" xmlns="http://www.w3.org/2000/svg" viewBox="0 0 28 28"><defs><style>.cls-1{fill:#221f20;}</style></defs><title>expand</title><path class="cls-1" d="M20,22H8a2,2,0,0,1-2-2V8A2,2,0,0,1,8,6H20a2,2,0,0,1,2,2V20A2,2,0,0,1,20,22ZM8,20H20V8H8ZM14.87,9.33l0,.14v1l.06.14.07.07.14.06,1.11,0-1.87,1.87-.06.13v.11l.06.14.69.69.14.06h.11l.13-.06,1.87-1.87,0,1.11.06.14.07.07.14.06h1l.14,0,.07-.08.06-.14-.05-3.4-.05-.13-.08-.08-.13-.05-3.4-.05L15,9.26Zm-1.74,9.34,0-.14v-1l-.06-.14L13,17.36l-.14-.06-1.11,0,1.87-1.87.06-.13v-.11L13.66,15,13,14.34l-.14-.06h-.11l-.13.06-1.87,1.87,0-1.11L10.64,15l-.07-.07-.14-.06h-1l-.14,0L9.26,15l-.06.14.05,3.4.05.13.08.08.13.05,3.4.05.14-.06Z"/></svg>