<svg id="Livello_1" data-name="Livello 1" xmlns="http://www.w3.org/2000/svg" viewBox="0 0 28 28"><defs><style>.cls-1{fill:#221f20;}</style></defs><title>filter-list</title><path class="cls-1" d="M12,7.08a2.21,2.21,0,0,0-4,0H6.5a.5.5,0,0,0-.5.5v1a.5.5,0,0,0,.5.5H8.05a2.21,2.21,0,0,0,3.94,0H21.5a.5.5,0,0,0,.5-.5v-1a.5.5,0,0,0-.5-.5ZM10,8.79a.72.72,0,1,1,.71-.71A.71.71,0,0,1,10,8.79Zm8,3A2.22,2.22,0,0,0,16,13H6.5a.5.5,0,0,0-.5.5v1a.5.5,0,0,0,.5.5H16A2.2,2.2,0,0,0,20,15H21.5a.5.5,0,0,0,.5-.5v-1a.5.5,0,0,0-.5-.5H20A2.21,2.21,0,0,0,18,11.78Zm0,2.94a.72.72,0,0,1,0-1.44.72.72,0,1,1,0,1.44Zm-6.09,3a2.21,2.21,0,0,0-2,1.22H6.5a.5.5,0,0,0-.5.5v1a.5.5,0,0,0,.5.5H9.92a2.21,2.21,0,0,0,3.95,0H21.5a.5.5,0,0,0,.5-.5v-1a.5.5,0,0,0-.5-.5H13.87A2.21,2.21,0,0,0,11.89,17.71Zm0,2.94a.72.72,0,1,1,.72-.72A.72.72,0,0,1,11.89,20.65Z"/></svg>