<svg id="Livello_1" data-name="Livello 1" xmlns="http://www.w3.org/2000/svg" viewBox="0 0 28 28"><defs><style>.cls-1{fill:#221f20;}</style></defs><title>help</title><path class="cls-1" d="M14,5.2A8.8,8.8,0,1,0,22.8,14,8.81,8.81,0,0,0,14,5.2Zm0,15.6A6.8,6.8,0,1,1,20.8,14,6.81,6.81,0,0,1,14,20.8Zm1-3.28a1,1,0,1,1-1-1A1,1,0,0,1,15,17.52ZM16.86,12a3.67,3.67,0,0,1-1.46,2.48c-.49.51-.59.8-.59,1.1h-1.4a2.42,2.42,0,0,1,.87-1.81c.48-.54,1.12-1,1.12-1.76a1.2,1.2,0,0,0-1.32-1.24,1.38,1.38,0,0,0-1.4,1.46H11.14A2.9,2.9,0,0,1,14.08,9.5,2.46,2.46,0,0,1,16.86,12Z"/></svg>