<svg id="Livello_1" data-name="Livello 1" xmlns="http://www.w3.org/2000/svg" viewBox="0 0 28 28"><defs><style>.cls-1{fill:#221f20;}</style></defs><title>hidden</title><path class="cls-1" d="M16.27,14.21a.57.57,0,0,0,0-.13,2.16,2.16,0,0,0-2.16-2.16H14l-1.59-1.59A3.93,3.93,0,0,1,14.12,10a4.12,4.12,0,0,1,4.13,4.12,4,4,0,0,1-.38,1.72ZM14,6.5a11.28,11.28,0,0,0-4.49.94L11,9h0a9.32,9.32,0,0,1,3-.49c4.93,0,8.15,4,8.85,5.3a.51.51,0,0,1,0,.45,11.16,11.16,0,0,1-3.17,3.4L21.1,19c2.45-1.84,3.84-4.18,3.84-5C24.94,12.5,20.71,6.5,14,6.5Zm5.86,12.72L22,21.36l-.63.63-.07.08-.64.63-2.15-2.15A11.21,11.21,0,0,1,14,21.5c-6.71,0-10.94-6-10.94-7.5,0-.86,1.42-3.2,3.88-5L5.32,7.34,6,6.71,6,6.64,6.66,6l1.9,1.9h0L10,9.37h0l5.89,5.9h0l1.41,1.41h0l1.49,1.49h0ZM12,14.08a2.15,2.15,0,0,0,2.15,2.15h.07L12,14S12,14.06,12,14.08ZM17,19,15.8,17.84a4.29,4.29,0,0,1-1.68.36,4.1,4.1,0,0,1-3.75-5.8l-2-2a11.3,11.3,0,0,0-3.19,3.4.51.51,0,0,0,0,.45c.7,1.33,3.92,5.31,8.85,5.31A8.81,8.81,0,0,0,17,19Z"/></svg>