<svg id="Livello_1" data-name="Livello 1" xmlns="http://www.w3.org/2000/svg" viewBox="0 0 28 28"><defs><style>.cls-1{fill:#221f20;}</style></defs><title>link</title><path class="cls-1" d="M15.94,17.13a1,1,0,0,1,0,1.37l-2.2,2.2a4.45,4.45,0,0,1-6.3-6.3l2.2-2.19A1,1,0,0,1,11,13.58l-2.2,2.2a2.49,2.49,0,0,0-.73,1.77,2.51,2.51,0,0,0,4.29,1.78l2.19-2.2A1,1,0,0,1,15.94,17.13Zm4.9-9.83a4.47,4.47,0,0,0-6.3,0L12.35,9.5a1,1,0,0,0,0,1.37.92.92,0,0,0,.68.29.94.94,0,0,0,.69-.29l2.2-2.2a2.52,2.52,0,0,1,3.55,0,2.53,2.53,0,0,1,.73,1.78,2.45,2.45,0,0,1-.73,1.77l-2.2,2.2a1,1,0,0,0,0,1.37,1,1,0,0,0,1.37,0l2.2-2.19a4.38,4.38,0,0,0,1.3-3.15A4.42,4.42,0,0,0,20.84,7.3ZM14.78,12l-2.65,2.65a1,1,0,0,0,0,1.37,1,1,0,0,0,1.37,0l2.65-2.65A1,1,0,0,0,14.78,12Z"/></svg>