<svg id="Livello_1" data-name="Livello 1" xmlns="http://www.w3.org/2000/svg" viewBox="0 0 28 28"><defs><style>.cls-1{fill:#221f20;}</style></defs><title>logout</title><path class="cls-1" d="M21.81,7.94V20.06a1.81,1.81,0,0,1-1.6,1.83H7.92a1.78,1.78,0,0,1-1.73-1.69V17.42l.11-.11H7.92l.12.11V20H20V8.05H8v2.53l-.12.11H6.3l-.11-.11V7.94A1.8,1.8,0,0,1,7.78,6.11H20.07A1.78,1.78,0,0,1,21.8,7.79Zm-5.29,5.81-3-3.13-.18-.07h-.14l-.18.07-.86.88-.07.18v.14l.07.17,1,1H6.6l-.18.07-.1.1-.07.18v1.25l.07.18.1.1L6.6,15h6.52l-1,1-.07.17v.14l.07.18.86.88.18.08h.14l.18-.08,3-3.13.08-.17v-.14Z"/></svg>