<svg id="Livello_1" data-name="Livello 1" xmlns="http://www.w3.org/2000/svg" viewBox="0 0 28 28"><defs><style>.cls-1{fill:#221f20;}</style></defs><title>media</title><path class="cls-1" d="M14.49,11.35l2.36,3.45a.52.52,0,0,1-.43.82H8a.52.52,0,0,1-.43-.82l1.62-2.39a.53.53,0,0,1,.85,0L11.32,14a.21.21,0,0,0,.33,0l2-2.7A.52.52,0,0,1,14.49,11.35Zm9.43-.3v9.43a2,2,0,0,1-2,2H9.62a2,2,0,0,1-2-2V19H6.08a2,2,0,0,1-2-2v-10A1.44,1.44,0,0,1,5.52,5.5H18.37a2,2,0,0,1,2,2V9h1.53A2,2,0,0,1,23.92,11.05ZM18.37,17V7.51H6.08v9.44Zm3.55-5.91H20.38v5.89a2,2,0,0,1-2,2H9.62v1.52l12.29,0Z"/></svg>