<svg id="Livello_1" data-name="Livello 1" xmlns="http://www.w3.org/2000/svg" viewBox="0 0 28 28"><defs><style>.cls-1{fill:#221f20;}</style></defs><title>reduce</title><path class="cls-1" d="M20,22H8a2,2,0,0,1-2-2V8A2,2,0,0,1,8,6H20a2,2,0,0,1,2,2V20A2,2,0,0,1,20,22ZM8,20H20V8H8Zm10.38-6.59.06-.14,0-1-.05-.14-.08-.07-.14-.06-1.11,0,1.87-1.87.06-.13V10l-.06-.14-.69-.69L18,9.07h-.11l-.13.06L15.93,11l0-1.11-.06-.14-.07-.08-.14-.05-1,0-.14.06-.08.08-.06.14.05,3.39,0,.14.08.08.14,0,3.39.05.14-.06Zm-8.68,1.1-.06.14,0,1,.05.14.08.07.14.06,1.11,0L9.13,17.8l-.06.13V18l.06.14.69.69.14.06h.11l.13-.06L12.07,17l0,1.11.06.14.07.08.14.05,1,0,.14-.06.08-.08.06-.14-.05-3.39,0-.14-.08-.08-.14,0-3.39-.05-.14.06Z"/></svg>