<svg id="Livello_1" data-name="Livello 1" xmlns="http://www.w3.org/2000/svg" viewBox="0 0 28 28"><defs><style>.cls-1{fill:#221f20;}</style></defs><title>reply</title><path class="cls-1" d="M10.3,9l.11.11v1.63l-.11.11H8.05V21.22H20V10.86H17.7l-.11-.11V9.12L17.7,9h2.36a1.8,1.8,0,0,1,1.83,1.6V21.34a1.78,1.78,0,0,1-1.69,1.73H7.94a1.8,1.8,0,0,1-1.83-1.59V10.75A1.78,1.78,0,0,1,7.79,9H10.3Zm.23-1.81L10.61,7l3.13-3,.17-.08h.14l.18.08,3.13,3,.07.18v.14l-.07.18-.88.86-.18.07h-.14L16,8.38l-1-1V13.9l-.07.18-.1.1-.18.07H13.36l-.18-.07-.1-.1L13,13.9V7.39l-1,1-.17.07h-.14l-.18-.07-.88-.86-.08-.18Z"/></svg>