<svg id="Livello_1" data-name="Livello 1" xmlns="http://www.w3.org/2000/svg" viewBox="0 0 28 28"><defs><style>.cls-1{fill:#221f20;}</style></defs><title>replace</title><path class="cls-1" d="M19.06,8.58l-.6.63a.51.51,0,0,1-.69,0A6.06,6.06,0,0,0,8,14a.76.76,0,0,0,0,.15s0,.07,0,.1v.23l1.07-1.05.13,0h.1l.14,0,.83.82.05.13v.11l-.05.13-3,3-.15.06H7l-.13-.06-3-3-.06-.14v-.09l.06-.14.84-.82.14,0h.1l.13,0,1.11,1.1v-.25a.53.53,0,0,0,0-.13c0-.05,0-.1,0-.15A7.94,7.94,0,0,1,14,6.07a7.84,7.84,0,0,1,5,1.78A.5.5,0,0,1,19.06,8.58Zm5.15,4.65-3.05-3L21,10.21h-.09l-.15.06-3,3-.05.14v.1l.05.14.83.81.14.06h.1l.13-.06L20,13.36v.22c0,.05,0,.11,0,.16a2.28,2.28,0,0,1,0,.26,6.06,6.06,0,0,1-10,4.6.5.5,0,0,0-.68,0l-.62.6a.5.5,0,0,0,0,.73,7.86,7.86,0,0,0,5.26,2A7.94,7.94,0,0,0,22,14a1.5,1.5,0,0,0,0-.22c0-.06,0-.12,0-.18l0-.26L23,14.42l.13.06h.1l.14-.06.84-.81.06-.14v-.1Z"/></svg>