<svg id="Livello_1" data-name="Livello 1" xmlns="http://www.w3.org/2000/svg" viewBox="0 0 28 28"><defs><style>.cls-1{fill:#221f20;fill-rule:evenodd;}</style></defs><title>show</title><path class="cls-1" d="M14.12,11.93a2.15,2.15,0,1,0,2.16,2.15A2.15,2.15,0,0,0,14.12,11.93Zm0-2A4.12,4.12,0,1,1,10,14.08,4.13,4.13,0,0,1,14.12,10ZM14,8.47c-4.93,0-8.15,4-8.85,5.31a.49.49,0,0,0,0,.44c.7,1.34,3.92,5.31,8.85,5.31s8.15-4,8.85-5.31a.49.49,0,0,0,0-.44C22.15,12.44,18.93,8.47,14,8.47Zm0-2c6.71,0,10.94,6,10.94,7.5S20.71,21.5,14,21.5,3.06,15.5,3.06,14,7.29,6.5,14,6.5Z"/></svg>