<svg id="Livello_1" data-name="Livello 1" xmlns="http://www.w3.org/2000/svg" viewBox="0 0 28 28"><defs><style>.cls-1{fill:#221f20;}</style></defs><title>sidebar-posts</title><path class="cls-1" d="M22.78,6.45H21.55V5.22a2.14,2.14,0,0,0-2.14-2.15H5.22A2.15,2.15,0,0,0,3.07,5.22V19.41a2.14,2.14,0,0,0,2.15,2.14H6.45v1.23a2.14,2.14,0,0,0,2.14,2.15H22.78a2.15,2.15,0,0,0,2.15-2.15V8.59A2.14,2.14,0,0,0,22.78,6.45ZM5.22,19.55a.14.14,0,0,1-.15-.14V5.22a.14.14,0,0,1,.15-.15H19.41a.14.14,0,0,1,.14.15V19.41a.14.14,0,0,1-.14.14H5.22Zm17.71,3.23a.14.14,0,0,1-.15.15H8.59a.14.14,0,0,1-.14-.15V21.55h11a2.14,2.14,0,0,0,2.14-2.14v-11h1.23a.14.14,0,0,1,.15.14Zm-5.12-5.69a.62.62,0,0,1-.51,1h-10a.62.62,0,0,1-.51-1l1.93-2.84a.62.62,0,0,1,1,0l1.47,1.95a.25.25,0,0,0,.4,0L14,13a.62.62,0,0,1,1,0Z"/></svg>