<svg id="Livello_1" data-name="Livello 1" xmlns="http://www.w3.org/2000/svg" viewBox="0 0 28 28"><defs><style>.cls-1{fill:#221f20;}</style></defs><title>sidebar-moderation</title><path class="cls-1" d="M23.39,6.46h-1.2V5.2A2.15,2.15,0,0,0,20,3.05H5.85A2.15,2.15,0,0,0,3.71,5.2v5.22a3.65,3.65,0,0,1-.77,2.22L.46,15.78A1.39,1.39,0,0,0,1.55,18L3.71,18V19.4a2.14,2.14,0,0,0,2.14,2.14h1.2V22.8A2.15,2.15,0,0,0,9.19,25h14.2a2.15,2.15,0,0,0,2.14-2.15V8.61A2.15,2.15,0,0,0,23.39,6.46ZM5.71,19.4V18A1.93,1.93,0,0,0,3.78,16h-1l1.69-2.14a5.63,5.63,0,0,0,1.2-3.46V5.2a.15.15,0,0,1,.14-.15H20a.15.15,0,0,1,.15.15V19.4a.15.15,0,0,1-.15.14H5.85A.14.14,0,0,1,5.71,19.4Zm17.82,3.4a.15.15,0,0,1-.14.15H9.19a.15.15,0,0,1-.14-.15V21.54H20a2.14,2.14,0,0,0,2.15-2.14V8.46h1.2a.15.15,0,0,1,.14.15ZM12,11.27l-1,1,1,1a.8.8,0,0,1,0,1.13.76.76,0,0,1-.56.23.78.78,0,0,1-.57-.23l-1-1-1,1a.78.78,0,0,1-.57.23.76.76,0,0,1-.56-.23.8.8,0,0,1,0-1.13l1-1-1-1a.8.8,0,0,1,0-1.13.79.79,0,0,1,1.13,0l1,1,1-1a.79.79,0,0,1,1.13,0A.8.8,0,0,1,12,11.27Zm5.92-1.75a.8.8,0,0,0-1.09.3l-1.47,2.6-1-1.66a.8.8,0,0,0-1.1-.25.79.79,0,0,0-.25,1.1l1.55,2.47a1.07,1.07,0,0,0,.86.43h0a1.11,1.11,0,0,0,.9-.54l1.91-3.36A.81.81,0,0,0,17.91,9.52Z"/></svg>