<?xml version="1.0" encoding="UTF-8"?>
<svg id="Livello_1" data-name="Livello 1" xmlns="http://www.w3.org/2000/svg" viewBox="0 0 24 24">
  <path d="M16.48,5.46c-1.21-1.19-2.8-1.84-4.48-1.84-3.5,0-6.34,2.84-6.34,6.33v8.56c0,1.03,.84,1.87,1.87,1.87s1.87-.84,1.87-1.87c0-.21,.16-.37,.37-.37s.37,.17,.37,.37c0,1.03,.83,1.87,1.86,1.87s1.86-.84,1.86-1.87c0-.21,.16-.37,.37-.37s.37,.17,.37,.37c0,1.03,.84,1.87,1.87,1.87s1.86-.84,1.86-1.87V9.95c0-1.67-.66-3.26-1.85-4.49Zm0,13.42c-.21,0-.37-.16-.37-.37,0-1.03-.84-1.87-1.87-1.87s-1.87,.84-1.87,1.87c0,.2-.16,.37-.36,.37s-.36-.17-.36-.37c0-1.03-.84-1.87-1.87-1.87s-1.87,.84-1.87,1.87c0,.21-.16,.37-.37,.37s-.37-.16-.37-.37V9.95c0-2.66,2.17-4.83,4.84-4.83,1.28,0,2.49,.5,3.41,1.41,.91,.93,1.42,2.15,1.42,3.42v3.5s0,.03,0,.05v2.94s0,.07,0,.11v1.97c0,.2-.16,.37-.36,.37Z"/>
  <path d="M14.84,8.87c-.7,0-1.26,.63-1.26,1.4s.57,1.4,1.26,1.4,1.26-.63,1.26-1.4-.57-1.4-1.26-1.4Zm0,1.8c-.12,0-.26-.17-.26-.4s.14-.4,.26-.4,.26,.16,.26,.4-.14,.4-.26,.4Z"/>
  <path d="M9.16,8.87c-.7,0-1.26,.63-1.26,1.4s.57,1.4,1.26,1.4,1.26-.63,1.26-1.4-.57-1.4-1.26-1.4Zm0,1.8c-.12,0-.26-.17-.26-.4s.14-.4,.26-.4,.26,.16,.26,.4-.14,.4-.26,.4Z"/>
  <path d="M13.43,11.71c-.24-.13-.54-.05-.68,.19-.3,.53-1.18,.54-1.5,0-.14-.24-.45-.32-.68-.18-.24,.14-.32,.45-.18,.68,.34,.58,.94,.93,1.62,.93s1.29-.36,1.62-.94c.13-.24,.05-.55-.19-.68Z"/>
</svg>