<svg id="Livello_1" data-name="Livello 1" xmlns="http://www.w3.org/2000/svg" viewBox="0 0 28 28"><defs><style>.cls-1{fill:#221f20;}</style></defs><title>comments</title><path class="cls-1" d="M21,22.43H7.74a2.07,2.07,0,0,1-2.07-2.07V19.13H3.72a1.35,1.35,0,0,1-1.22-.76,1.36,1.36,0,0,1,.15-1.44L5,14a3.31,3.31,0,0,0,.71-2V7.64A2.07,2.07,0,0,1,7.74,5.57H21a2.07,2.07,0,0,1,2.07,2.07V20.36A2.07,2.07,0,0,1,21,22.43ZM5,17.13H5.8A1.87,1.87,0,0,1,7.67,19v1.36a.07.07,0,0,0,.07.07H21l.07-12.79A.07.07,0,0,0,21,7.57H7.74a.07.07,0,0,0-.07.07V12a5.32,5.32,0,0,1-1.13,3.27Zm-.81,1h0ZM19,11.81a.76.76,0,0,0-.75-.75H10.51a.75.75,0,0,0,0,1.5H18.2A.75.75,0,0,0,19,11.81Zm-3,4.38a.75.75,0,0,0-.75-.75H10.51a.75.75,0,0,0,0,1.5h4.68A.76.76,0,0,0,15.94,16.19Z"/></svg>