<svg id="Livello_1" data-name="Livello 1" xmlns="http://www.w3.org/2000/svg" viewBox="0 0 28 28"><defs><style>.cls-1{fill:#221f20;}</style></defs><title>delete</title><path class="cls-1" d="M22.11,9a.51.51,0,0,0-.5-.5H17.38V7.25a1.93,1.93,0,0,0-1.93-1.93h-2.9a1.93,1.93,0,0,0-1.93,1.93v1.2H6.39a.51.51,0,0,0-.5.5v1a.5.5,0,0,0,.5.5H8l.29,11.74a.49.49,0,0,0,.5.49H19.17a.49.49,0,0,0,.5-.49L20,10.45h1.65a.5.5,0,0,0,.5-.5Zm-9.69-1.7a.13.13,0,0,1,.13-.13h2.9a.13.13,0,0,1,.13.13v1.2H12.42Zm5.29,13.43H10.29l-.24-10.23H18ZM13,18.79h-.5a.5.5,0,0,1-.51-.49l-.12-5.46a.51.51,0,0,1,.49-.51h.5a.49.49,0,0,1,.51.49l.12,5.46A.49.49,0,0,1,13,18.79Zm3.19-5.94L16,18.31a.5.5,0,0,1-.51.49H15a.49.49,0,0,1-.49-.51l.12-5.46a.49.49,0,0,1,.51-.49h.5A.51.51,0,0,1,16.16,12.85Z"/></svg>