<svg id="Livello_1" data-name="Livello 1" xmlns="http://www.w3.org/2000/svg" viewBox="0 0 28 28"><defs><style>.cls-1{fill:#221f20;}</style></defs><title>edit</title><path class="cls-1" d="M21.13,8.14,19.86,6.86a1.94,1.94,0,0,0-2.72,0L7,17a1.66,1.66,0,0,0-.48,1l-.24,2.15A1.4,1.4,0,0,0,7.7,21.7h.17L10,21.45A1.71,1.71,0,0,0,11,21L21.14,10.86A1.92,1.92,0,0,0,21.7,9.5,1.89,1.89,0,0,0,21.13,8.14ZM17.8,11.63,10,19.41a1,1,0,0,1-.6.29l-.93.1a.26.26,0,0,1-.29-.29l.1-.93a1,1,0,0,1,.29-.6l7.78-7.78ZM19.89,9.5a.11.11,0,0,1,0,.08l-.77.77L17.66,8.91l.77-.77c.05-.05.09-.05.15,0l1.28,1.28A.11.11,0,0,1,19.89,9.5Z"/></svg>