<svg id="Livello_1" data-name="Livello 1" xmlns="http://www.w3.org/2000/svg" viewBox="0 0 28 28"><defs><style>.cls-1{fill:#010101;}</style></defs><title>heart</title><path class="cls-1" d="M18,7.67a3.05,3.05,0,0,1,3.09,3.09c0,2.55-2.75,5.05-7,8.87l-.1.08-.11-.1C9.71,15.82,7,13.31,7,10.76A3.05,3.05,0,0,1,10,7.67,3.51,3.51,0,0,1,12.67,8.9L14,10.46,15.33,8.9A3.51,3.51,0,0,1,18,7.67m0-1.75a5.3,5.3,0,0,0-4,1.84,5.3,5.3,0,0,0-4-1.84A4.79,4.79,0,0,0,5.2,10.76c0,3.33,3,6,7.52,10.16L14,22.08l1.28-1.16c4.53-4.12,7.52-6.83,7.52-10.16A4.79,4.79,0,0,0,18,5.92Z"/></svg>