<svg id="Livello_1" data-name="Livello 1" xmlns="http://www.w3.org/2000/svg" viewBox="0 0 28 28"><title>move-to</title><path d="M23.52,19.94a2.32,2.32,0,0,1-2,2.28l-.29,0H8a2.31,2.31,0,0,1-2.28-2l0-.15V18.37A.33.33,0,0,1,6,18.06h1.4a.33.33,0,0,1,.31.25v1.64a.33.33,0,0,0,.22.32l.13,0H21.22a.37.37,0,0,0,.32-.23l0-.13V10.7a.34.34,0,0,0-.23-.32l-.13,0H14.33a.34.34,0,0,1-.22-.09l0-.07L12.63,7.72h-5v4.55a.34.34,0,0,1-.17.28l-.13,0H6a.33.33,0,0,1-.32-.25V7.4A1.64,1.64,0,0,1,7.06,5.79l.29,0h5.47a1.67,1.67,0,0,1,1.25.57l.09.11.08.14,1,1.82h5.94a2.29,2.29,0,0,1,2.25,1.84l.05.46Zm-9.89-4.83-3-3.13-.18-.07h-.15l-.18.07-.86.89L9.15,13v.14l.07.17,1,1H3.7l-.17.07-.1.1-.08.18V16l.08.18.1.1.17.07h6.52l-1,1-.07.18v.14l.07.17.86.88.18.08h.15l.18-.08,3-3.13.07-.17v-.14Z"/></svg>