<svg id="Livello_1" data-name="Livello 1" xmlns="http://www.w3.org/2000/svg" viewBox="0 0 28 28"><defs><style>.cls-1{fill:#221f20;}</style></defs><title>open-link</title><path class="cls-1" d="M21.88,13.84v6.21a1.8,1.8,0,0,1-1.59,1.84H7.86A1.78,1.78,0,0,1,6.13,20.2V7.94a1.8,1.8,0,0,1,1.6-1.83h6.45a.44.44,0,0,1,.45.44V7.61a.44.44,0,0,1-.45.44H8V19.94H20v-6.1a.44.44,0,0,1,.44-.44h1A.44.44,0,0,1,21.88,13.84ZM16.82,6.28l-.07.18,0,1.23.07.18.1.1.17.07,1.43,0-4.61,4.61-.07.18V13l.07.17.89.89.18.07h.14l.17-.07,4.61-4.61,0,1.43.07.18.1.09.17.08h1.23l.18-.07.1-.1.08-.18-.06-4.37-.08-.17-.1-.1-.17-.07L17.1,6.11l-.18.07Z"/></svg>