<svg id="Livello_1" data-name="Livello 1" xmlns="http://www.w3.org/2000/svg" viewBox="0 0 28 28"><defs><style>.cls-1{fill:#221f20;}</style></defs><title>update</title><path class="cls-1" d="M22.77,8.92l-.89,3.86-.1.15-.11.07-.16,0-3.88-.78-.15-.1-.07-.1,0-.18.25-1.09.1-.14.11-.07.16,0,1,.2a6,6,0,1,0,.53,5.54.49.49,0,0,1,.61-.3l1,.3a.5.5,0,0,1,.32.65,8,8,0,1,1-.67-7.15l.28-1.21.09-.14.11-.06.17,0,1.09.22.14.11.07.1Zm-8.4,1.66h-.8a.51.51,0,0,0-.5.5v3.33a.48.48,0,0,0,.17.37l2.06,1.83a.51.51,0,0,0,.71,0l.53-.6a.51.51,0,0,0,0-.71l-1.63-1.44V11.08A.5.5,0,0,0,14.37,10.58Z"/></svg>