<svg id="Livello_1" data-name="Livello 1" xmlns="http://www.w3.org/2000/svg" viewBox="0 0 28 28"><defs><style>.cls-1{fill:#010101;}</style></defs><title>upload</title><path class="cls-1" d="M20.71,11.54A7,7,0,0,0,8,9.91,5.78,5.78,0,0,0,3.38,16a6,6,0,0,0,6,5.39h1.12a.51.51,0,0,0,.5-.5v-1a.5.5,0,0,0-.5-.5H9.18a3.82,3.82,0,0,1-.42-7.61l.54-.06.19-.36A5.18,5.18,0,0,1,12.9,8.7a5,5,0,0,1,6,3.92l.15.76.76,0a3,3,0,0,1,2.72,3.7,3.13,3.13,0,0,1-3.08,2.3h-2a.5.5,0,0,0-.5.5v1a.51.51,0,0,0,.5.5h2a5.17,5.17,0,0,0,5.14-4.06A5,5,0,0,0,20.71,11.54ZM13.93,13h.14l.17.08,3.13,3,.08.18v.14l-.08.18-.88.86-.18.07h-.14L16,17.43l-1-1V23l-.07.18-.1.1-.18.07H13.37l-.18-.07-.1-.1L13,23V16.44l-1,1-.17.07h-.14l-.18-.07-.88-.86-.07-.18v-.14l.07-.18,3.13-3Z"/></svg>