<?xml version="1.0" encoding="UTF-8"?>
<svg id="Livello_1" data-name="Livello 1" xmlns="http://www.w3.org/2000/svg" viewBox="0 0 24 24">
  <path d="M20.86,11.88l-.25-6.27c-.02-.41-.33-.72-.78-.72-.41,.02-.74,.37-.72,.78l.21,5.31c-3.27-.78-4.81,.43-6.04,1.44l-.26,.21c-.6,.48-1.44,.48-2.04,0l-.26-.21c-1.22-1-2.75-2.2-6.04-1.43l.21-5.32c.02-.41-.31-.76-.72-.78-.41-.03-.76,.31-.78,.72l-.25,6.27c-.74,1.75-1.01,4.35,.04,6.41,.32,.62,1.77,.8,2.87,.8,.39,0,.74-.02,.99-.06,.73-.1,1.33-.21,1.9-.3,.76-.13,1.42-.24,2.22-.33,.56-.06,1.12-.06,1.68,0,.8,.08,1.46,.2,2.22,.33,.57,.1,1.17,.2,1.9,.3,.92,.13,3.43,.1,3.86-.75,1.05-2.06,.78-4.66,.04-6.41Zm-1.28,5.53c-.38,.12-1.39,.29-2.41,.14-.71-.1-1.3-.2-1.85-.29-.76-.13-1.47-.25-2.32-.34-.66-.07-1.33-.07-1.99,0-.85,.09-1.56,.21-2.32,.34-.55,.09-1.15,.2-1.85,.29-1.02,.14-2.03-.03-2.41-.14-.68-1.54-.48-3.49,.04-4.81l.13-.06c2.88-.83,4,.08,5.19,1.05l.27,.22c1.15,.92,2.76,.92,3.91,0h0l.27-.22c1.19-.97,2.31-1.88,5.1-1.08l.22,.09c.52,1.32,.72,3.27,.04,4.81Z"/>
</svg>