<?xml version="1.0" encoding="UTF-8"?>
<svg id="Livello_1" data-name="Livello 1" xmlns="http://www.w3.org/2000/svg" viewBox="0 0 24 24">
  <path d="M21.96,12.25c-.31-2.45-.77-4.57-1.13-6.07,0,0,0-.01,0-.02,0-.01-.01-.02-.01-.03-.16-.66-.3-1.22-.4-1.6-.05-.21-.09-.36-.12-.46-.01-.06-.05-.11-.08-.17-.01-.03-.02-.06-.04-.08-.04-.06-.1-.11-.16-.16-.02-.01-.03-.03-.05-.04-.06-.04-.12-.06-.19-.08-.03,0-.05-.02-.08-.03-.05-.01-.11,0-.16,0-.04,0-.08,0-.12,0-1.43,.26-2.6,.45-3.69,.58-1.32,.16-2.53,.24-3.72,.23-1.27,0-2.45-.08-3.62-.21-1.09-.13-2.25-.31-3.67-.57l-.17-.03s-.09,0-.13,0c-.05,0-.11,0-.16,0-.04,0-.07,.03-.1,.04-.06,.02-.11,.04-.16,.07-.02,.02-.04,.04-.06,.06-.05,.04-.1,.09-.14,.14-.02,.03-.02,.06-.04,.08-.03,.05-.06,.1-.08,.16-.02,.1-.06,.25-.12,.46-.1,.38-.24,.93-.4,1.6,0,.01-.01,.02-.01,.03,0,0,0,.01,0,.02-.36,1.5-.82,3.62-1.13,6.07-.51,3.96-.51,6.04-.51,6.82,0,.34,.23,.63,.55,.72,1.22,.34,5.29,1.08,9.33,.48,.26-.04,.48-.21,.58-.45,.1,.24,.32,.41,.58,.45,1.1,.16,2.2,.23,3.24,.23,2.8,0,5.2-.46,6.09-.7,.33-.09,.55-.39,.55-.72,0-.78,0-2.85-.51-6.82ZM12.02,5.83h.12c1.21,0,2.45-.08,3.79-.24,.93-.11,1.94-.27,3.09-.47,.05,.17,.1,.37,.15,.59-1.08,.19-2.01,.33-2.89,.44-1.44,.18-2.62,.27-3.71,.28-1.37,.01-2.58-.04-3.7-.15-1.12-.11-2.31-.28-3.75-.53-.09-.02-.18-.03-.27-.05,.06-.22,.11-.42,.15-.59,1.21,.21,2.26,.37,3.24,.49,1.22,.15,2.46,.22,3.79,.23Zm.73,2.1c.13,0,.26,0,.39-.01v3.04c0,.59-.13,1.04-.39,1.36V7.92Zm.6,10.93c-.14-.78-.39-2.12-.62-3.29-.02-.12-.07-.23-.14-.32,0,0-.01-.01-.02-.02-.22-.26-.59-.35-.9-.2-.23,.11-.38,.32-.42,.57-.07,.36-.42,2.24-.59,3.27-3.12,.37-6.16-.06-7.62-.38,.02-1.02,.09-2.92,.49-6.03,.26-2.05,.63-3.87,.95-5.28,.12,.02,.25,.04,.37,.07,1.47,.25,2.7,.42,3.86,.54,.79,.08,1.65,.12,2.54,.14v5.66c0,.23,.1,.45,.28,.59,.13,.11,.3,.16,.47,.16,.06,0,.11,0,.17-.02,1.57-.37,2.47-1.59,2.47-3.35v-3.13c.57-.05,1.16-.11,1.82-.19,.93-.12,1.92-.27,3.06-.47,.32,1.41,.69,3.23,.95,5.28,.4,3.11,.48,5.02,.49,6.03-1.46,.32-4.5,.75-7.62,.38Z"/>
</svg>