<?xml version="1.0" encoding="UTF-8"?>
<svg id="Livello_1" data-name="Livello 1" xmlns="http://www.w3.org/2000/svg" viewBox="0 0 24 24">
  <path d="M19.51,10.86l-.25-6.22c-.02-.41-.4-.72-.78-.72-.41,.02-.74,.37-.72,.78l.23,5.9c-1.06,.5-2.25,1.23-3.43,2.11-1.51,1.13-3.63,1.13-5.14,0-1.18-.88-2.37-1.6-3.43-2.11l.23-5.9c.02-.41-.31-.76-.72-.78-.36,0-.76,.31-.78,.72l-.25,6.22c-1.35,2.37-1.71,5.02-1.12,8.56,.06,.34,.34,.6,.69,.63,.08,0,1.95,.12,4.48-.28,2.3-.37,4.63-.37,6.93,0h0c1.59,.25,2.91,.3,3.7,.3,.47,0,.75-.02,.78-.02,.35-.02,.63-.28,.69-.63,.58-3.54,.23-6.19-1.12-8.56Zm-.26,7.71c-.73,0-2.01-.04-3.55-.28-2.45-.39-4.94-.39-7.4,0-1.54,.25-2.83,.28-3.55,.28-.36-2.66-.11-4.71,.8-6.53,.92,.46,1.98,1.12,2.99,1.87,2.04,1.52,4.89,1.52,6.93,0,1.01-.75,2.07-1.41,2.99-1.87,.91,1.81,1.16,3.87,.8,6.53Z"/>
</svg>