<?xml version="1.0" encoding="UTF-8"?>
<svg id="Livello_1" data-name="Livello 1" xmlns="http://www.w3.org/2000/svg" viewBox="0 0 24 24">
  <path d="M21.83,12.16s.05-.07,.06-.1c.02-.04,.02-.09,.03-.13,0-.05,.03-.09,.03-.14,0-.61-.02-4.09-.13-5.9-.01-.21-.12-.41-.29-.55-.17-.13-.39-.19-.6-.15-2.43,.45-5.99,1.04-8.92,.98h-.03c-2.91,.06-6.48-.53-8.92-.98-.21-.04-.43,.01-.6,.15-.17,.13-.27,.33-.29,.55-.11,1.81-.13,5.29-.13,5.9,0,.05,.02,.1,.03,.14,0,.04,0,.09,.03,.13,.02,.04,.04,.07,.06,.1,.03,.05,.05,.1,.09,.14,0,0,0,0,0,.01,2.6,2.6,4.34,4.3,7.28,6.33,.04,.03,.09,.03,.14,.05,.05,.02,.1,.04,.16,.05,.03,0,.05,.03,.08,.03,.53,.03,2.06,.06,2.08,.06,0,0,1.53-.02,2.06-.06,.03,0,.05-.02,.08-.03,.05-.01,.11-.03,.16-.05,.05-.02,.1-.02,.14-.05,2.94-2.03,4.69-3.72,7.28-6.33,0,0,0,0,0-.01,.04-.04,.06-.09,.09-.14Zm-16.77,.8c1.36,.45,2.91,1.38,3.72,3.26-1.29-.98-2.39-1.97-3.72-3.26Zm5.59,4.34c-.91-4.87-5.29-5.96-7.1-6.2,0-1.03,.03-2.87,.08-4.28,2.43,.43,5.66,.91,8.36,.85,2.73,.05,5.93-.42,8.36-.85,.05,1.41,.08,3.26,.08,4.28-1.81,.24-6.19,1.33-7.1,6.2-.61,.02-1.35,.03-1.34,.03,0,0-.74-.01-1.36-.03Zm8.29-4.34c-1.33,1.29-2.44,2.28-3.72,3.26,.81-1.88,2.37-2.81,3.72-3.26Z"/>
</svg>