<?xml version="1.0" encoding="UTF-8"?>
<svg id="Livello_1" data-name="Livello 1" xmlns="http://www.w3.org/2000/svg" viewBox="0 0 24 24">
  <path d="M12,21.51h-.93c-1.41-.02-3-.02-4.37-.18-.34-.04-.63-.21-.8-.49-.17-.27-.22-.61-.12-.92,.37-1.13,.88-4.03,.7-6.96-.02-.4-.07-.81-.15-1.21-.1-.56-.14-1.14-.12-1.68-.26,.15-.5,.29-.64,.39-.29,.19-.67,.17-.93-.07-.76-.7-1.57-2.2-2.1-3.27-.09-.18-.11-.39-.04-.59,.35-1,3.44-3.4,5.43-4.02,.34-.11,.71,.05,.88,.36,.04,.07,1.03,1.8,3.21,1.83,2.16-.03,3.15-1.76,3.19-1.84,.17-.31,.54-.46,.88-.36,1.99,.61,5.08,3.02,5.43,4.02,.07,.19,.05,.4-.04,.59-.54,1.07-1.34,2.56-2.1,3.27-.26,.23-.64,.26-.93,.07-.15-.1-.38-.24-.64-.39,.02,.54-.02,1.11-.12,1.68-.07,.41-.12,.82-.15,1.21-.18,2.94,.33,5.83,.7,6.96,.1,.32,.06,.66-.12,.93-.18,.27-.47,.45-.8,.49-1.38,.15-2.97,.16-4.38,.17h-.92s0,0,0,0Zm-4.66-1.62c1.19,.1,2.53,.11,3.73,.11h.92s.92,0,.92,0c1.2,0,2.54-.02,3.73-.11-.38-1.47-.8-4.21-.62-7.02,.03-.46,.09-.92,.17-1.39,.17-.93,.12-1.93-.12-2.56-.14-.36,.01-.76,.35-.94,.24-.13,.52-.11,.74,.03,.19,.1,.94,.5,1.54,.85,.29-.38,.68-1.01,1.22-2.04-.55-.62-2.29-2.04-3.79-2.69-.6,.76-1.93,2.04-4.13,2.07-2.22-.03-3.56-1.31-4.16-2.07-1.49,.64-3.22,2.05-3.79,2.69,.53,1.03,.93,1.65,1.22,2.03,.63-.37,1.43-.79,1.56-.87,.21-.12,.48-.13,.72-.01,.34,.18,.49,.58,.35,.94-.24,.62-.29,1.63-.12,2.56,.08,.46,.14,.93,.17,1.39,.18,2.81-.24,5.55-.62,7.02Z"/>
</svg>