<?xml version="1.0" encoding="UTF-8"?>
<svg id="Livello_1" data-name="Livello 1" xmlns="http://www.w3.org/2000/svg" viewBox="0 0 24 24">
  <path d="M12,21.52h-.9c-1.36-.01-2.91-.02-4.25-.17-.32-.04-.6-.19-.78-.44-.18-.25-.25-.56-.19-.88,.17-.86,.35-3.34,.49-5.95-.67,2.08-1.32,4.07-1.51,4.51-.11,.25-.34,.41-.6,.44-1.21,.13-1.89-.11-2.87-.53-.33-.14-.52-.5-.44-.85,.57-2.62,2.63-9.72,3.79-12.08,.43-.89,1.03-1.89,2.16-2.57,.38-.23,.82-.38,1.31-.45,.55-.08,1.03-.1,1.44-.08,.35,.03,.63,.29,.68,.63,.03,.17,.25,1.04,1.29,1.11,.25,.01,.5,.01,.75,0,1.11-.07,1.29-1.06,1.29-1.11,.06-.34,.34-.6,.68-.63,.41-.03,.89,0,1.44,.08,.5,.07,.94,.23,1.31,.45,1.13,.68,1.73,1.68,2.16,2.57,1.16,2.37,3.22,9.46,3.79,12.08,.08,.35-.11,.71-.44,.85-.98,.42-1.67,.66-2.87,.53-.27-.03-.5-.2-.6-.44-.19-.44-.84-2.42-1.51-4.51,.14,2.6,.33,5.08,.49,5.95,.06,.32,0,.63-.19,.88-.18,.25-.46,.41-.78,.44-1.34,.15-2.89,.15-4.25,.16h-.89s0,0,0,0Zm-4.57-1.62c1.17,.1,2.5,.11,3.69,.11h.89s.89,0,.89,0c1.19,0,2.52-.01,3.69-.11-.3-2.17-.61-8.13-.68-11.37,0-.37,.26-.7,.63-.75,.37-.06,.73,.16,.84,.52,.98,3.13,2.46,7.79,2.99,9.29,.4,0,.7-.07,1.09-.21-.69-2.91-2.49-9.02-3.53-11.13-.41-.84-.83-1.49-1.59-1.94-.21-.12-.46-.21-.76-.25-.22-.03-.42-.05-.61-.07-.33,.76-1.08,1.65-2.49,1.74-.31,.02-.63,.02-.94,0-1.41-.09-2.16-.98-2.49-1.74-.19,.01-.39,.03-.61,.07-.3,.04-.56,.13-.76,.25-.75,.45-1.18,1.1-1.59,1.94-1.03,2.11-2.83,8.21-3.53,11.13,.4,.15,.71,.21,1.09,.21,.53-1.49,2.01-6.15,2.99-9.29,.11-.36,.47-.58,.84-.52,.37,.06,.64,.38,.63,.75-.06,3.24-.37,9.2-.68,11.37Z"/>
</svg>