<?xml version="1.0" encoding="UTF-8"?>
<svg id="Livello_1" data-name="Livello 1" xmlns="http://www.w3.org/2000/svg" viewBox="0 0 24 24">
  <path d="M17.36,2.08c-.94-.69-1.72-.8-2.69-.81-.38,0-.69,.29-.74,.66,0,.04-.42,3.41-1.71,5.86-1.99-2.9-2.15-5.77-2.15-5.8-.02-.4-.34-.71-.74-.72-.96,.02-1.75,.12-2.69,.81-1.22,.89-3.28,4.55-3.64,6.92-.05,.34,.13,.67,.44,.8,.43,.19,.67,.4,.97,.66,.46,.4,1.02,.89,2.3,1.36,.23,.08,.48,.05,.68-.09,.2-.14,.32-.36,.32-.61,0-.44,.08-.89,.18-1.32,.16,.37,.29,.74,.34,1.25,.05,.65-.13,1.48-.34,2.44-.19,.84-.4,1.79-.52,2.89-.08,.75-.27,1.66-.43,2.46-.29,1.44-.38,1.95-.24,2.33,.15,.41,.47,.58,.72,.72,.5,.27,.84,.43,1.85,.5,.3,.04,2.92,.35,3.75,.35,1.23,0,1.63-.25,1.84-.47,.06-.07,.1-.15,.14-.22,.04,0,.08,0,.12,0,.26-.01,.44-.02,1.22-.1,.44-.05,.78-.33,.95-.77,.14-.38,.05-.88-.24-2.27-.17-.82-.36-1.75-.44-2.51-.11-1.04-.28-2.01-.44-2.86-.18-.99-.34-1.85-.33-2.53,0-.49,.12-.85,.27-1.22,.1,.42,.17,.88,.19,1.36,0,.24,.13,.47,.33,.61,.12,.08,.27,.13,.42,.13,.09,0,.18-.02,.27-.05,.75-.29,1.21-.71,1.61-1.07,.44-.4,.79-.72,1.51-.9,.37-.09,.62-.46,.56-.84-.36-2.37-2.42-6.03-3.64-6.92ZM8.22,6.6c-.35-.1-.72,.05-.88,.38-.04,.07-.74,1.45-1.01,3.03-.41-.23-.66-.45-.93-.68-.23-.2-.48-.42-.81-.62,.5-2.03,2.17-4.85,2.94-5.42,.4-.3,.74-.43,1.13-.49,.19,1.3,.84,4.06,2.98,6.71l.29,.36,.13,.21c.3,.49,.49,.82,.53,1.86-1,.02-2.11-.02-2.87-.16,.03-.29,.04-.58,.01-.86-.07-.89-.34-1.48-.58-2-.23-.51-.42-.91-.4-1.52,.04-.36-.18-.7-.53-.8Zm4.81,14.64c-.63,0-2.79-.25-3.61-.34-.73-.05-.89-.12-1.27-.33,.04-.33,.16-.93,.27-1.43,.17-.83,.36-1.78,.45-2.6,.11-1.01,.31-1.92,.49-2.72,.04-.19,.08-.37,.12-.56,.76,.13,1.74,.2,2.7,.2,.14,0,.27,0,.4,0,.01,1.38,.22,2.51,.45,3.68,.23,1.17,.47,2.38,.57,4.08-.13,.02-.32,.03-.58,.03Zm2.04-.7s0,0,0,0c-.12-1.51-.35-2.66-.55-3.7-.23-1.17-.42-2.2-.43-3.48,.19-.02,.37-.05,.54-.08,.03,.17,.06,.33,.09,.51,.15,.83,.32,1.76,.42,2.74,.08,.84,.28,1.81,.46,2.67,.09,.44,.2,.96,.25,1.29-.42,.04-.57,.05-.77,.06Zm2.86-10.91c-.09,.08-.17,.16-.26,.23-.3-1.61-1-2.85-1.03-2.91-.02-.03-.04-.05-.06-.07-.03-.04-.06-.08-.1-.12-.04-.03-.08-.05-.12-.08-.04-.02-.08-.05-.12-.06-.05-.02-.1-.02-.15-.03-.03,0-.06-.02-.09-.02h-.02s-.02,0-.03,0c-.05,0-.09,.02-.14,.03-.05,.01-.1,.03-.15,.05,0,0-.02,0-.03,0-.03,.02-.05,.04-.07,.06-.05,.03-.09,.07-.13,.11-.03,.03-.05,.07-.07,.11-.03,.04-.05,.09-.07,.14-.02,.05-.02,.09-.02,.14,0,.04-.02,.07-.02,.11,.02,.63-.15,1.03-.37,1.54-.24,.55-.51,1.18-.52,2.1,0,.26,.02,.54,.05,.83-.1,.02-.2,.03-.32,.04-.05-1.29-.33-1.86-.75-2.55l-.14-.23c1.31-2.11,1.91-4.97,2.13-6.28,.4,.05,.74,.19,1.15,.49,.76,.56,2.39,3.31,2.92,5.33-.66,.28-1.08,.67-1.46,1.01Z"/>
</svg>