<?xml version="1.0" encoding="UTF-8"?>
<svg id="Livello_1" data-name="Livello 1" xmlns="http://www.w3.org/2000/svg" viewBox="0 0 24 24">
  <path d="M21.1,11.44l-.25-6.23c-.02-.41-.39-.74-.78-.72-.4,.02-.72,.35-.72,.75,0,.01,0,.02,0,.03l.21,5.42c-.18-.02-.38-.04-.59-.05-2.79-.13-4.14,1.32-5.21,2.48-.54,.59-1.01,1.1-1.58,1.31-.13,.05-.27,.05-.4,0-.57-.22-1.04-.72-1.58-1.31-1.06-1.16-2.39-2.61-5.21-2.48-.21,0-.41,.03-.59,.05l.21-5.42c.02-.41-.31-.76-.72-.78-.36-.02-.76,.31-.78,.72l-.25,6.23c-.38,.79-1.66,3.93-.1,7.22,.31,.62,2.12,.83,3.54,.83,.62,0,1.16-.04,1.47-.1,1.61-.3,2.88-.97,3.73-1.41,.15-.08,.28-.15,.4-.21,.04-.02,.09-.02,.13,0,.12,.06,.25,.13,.4,.21,.84,.44,2.12,1.11,3.73,1.41,1.03,.19,4.56,.17,5.01-.74,1.55-3.28,.28-6.41-.1-7.21Zm-1.14,6.31c-.62,.16-2.34,.38-3.49,.16-1.39-.26-2.54-.87-3.31-1.27-.16-.08-.31-.16-.44-.22-.23-.11-.48-.17-.73-.17s-.5,.06-.73,.17c-.13,.06-.27,.14-.43,.22-.77,.4-1.92,1.01-3.31,1.27-1.14,.21-2.87,0-3.49-.16-1.02-2.41-.22-4.69,.13-5.49,.21-.05,.53-.11,.91-.12,2.11-.09,3.05,.92,4.04,1.99,.61,.67,1.25,1.36,2.15,1.7,.47,.18,.99,.18,1.46,0,.9-.34,1.54-1.03,2.15-1.7,.99-1.07,1.93-2.08,4.04-1.99,.38,.02,.7,.08,.91,.12,.36,.81,1.15,3.09,.13,5.49Z"/>
</svg>