<?xml version="1.0" encoding="UTF-8"?>
<svg id="Livello_1" data-name="Livello 1" xmlns="http://www.w3.org/2000/svg" viewBox="0 0 24 24">
  <path d="M22.08,6.08c-.01-.21-.12-.41-.29-.55-.17-.13-.39-.19-.6-.15-2.72,.5-5.39,.94-8.18,.89-.29,0-.91-.01-1.41-.02h-.61s0,0,0,0c-2.21-.03-7.43-.7-8.09-.84-.06-.02-.13-.03-.2-.04-.42-.03-.77,.29-.79,.7q-.11,1.88-.11,2.31c0,.14,.04,.28,.12,.4,1.1,1.72,6.18,8.62,7.32,9.55,.12,.1,.27,.16,.43,.17,.52,.03,1.9,.1,1.94,.1h.84s1.37-.07,1.9-.1c.16-.01,.31-.07,.43-.17,1.13-.93,6.22-7.83,7.32-9.55,.08-.12,.12-.26,.12-.4q0-.43-.11-2.31ZM4.14,9.39c1.98,.55,4.18,2.12,4.71,6.27-1.38-1.72-3.41-4.44-4.71-6.27Zm8.26,7.73h-.76s-.62-.03-1.19-.06c-.23-7.44-4.85-9.04-7.13-9.36,0-.17,.02-.39,.04-.71,2.39,.41,7.34,.76,7.61,.76h.61c.5,.01,1.11,.02,1.4,.03,2.65,.05,5.14-.31,7.65-.76,.02,.32,.03,.53,.04,.7-2.27,.31-6.92,1.89-7.16,9.35-.54,.03-1.12,.06-1.12,.06Zm7.45-7.72c-1.31,1.85-3.36,4.59-4.74,6.3,.53-4.18,2.75-5.76,4.74-6.3Z"/>
</svg>