<?xml version="1.0" encoding="UTF-8"?>
<svg id="Livello_1" data-name="Livello 1" xmlns="http://www.w3.org/2000/svg" viewBox="0 0 24 24">
  <path d="M20.73,17.66c.47-2.84,.08-5.14-1.47-8.73l-.25-6.26c-.02-.41-.36-.74-.78-.72-.41,.02-.74,.37-.72,.78l.24,5.96c-.83,.5-1.58,1.04-2.21,1.53-1.5,1.17-2.7,2.52-3.54,3.97-.83-1.45-2.04-2.8-3.54-3.97-.63-.49-1.38-1.03-2.21-1.53l.24-5.96c.02-.41-.31-.76-.72-.78-.4-.03-.76,.3-.78,.72l-.25,6.26c-1.55,3.59-1.94,5.89-1.47,8.73,0,.02,.02,.03,.02,.05,.15,1.3,.06,2.64,.01,3.31,0,.27,.1,.54,.31,.73,.2,.19,.46,.29,.73,.29,.03,0,.06,0,.09,0,1.08-.09,2.08-.22,3.14-.36l.81-.11c1.56-.2,2.45-.29,3.61-.29s2.09,.09,3.62,.29l.81,.11c1.06,.14,2.06,.27,3.13,.36,.31,.03,.61-.08,.83-.28,.2-.19,.31-.46,.3-.82-.04-.58-.13-1.92,.02-3.22,0-.02,.02-.03,.02-.05ZM5.84,10.18c.63,.4,1.2,.83,1.7,1.22,1.75,1.36,3.09,3.06,3.76,4.78,.22,.57,1.17,.57,1.4,0,.67-1.72,2.01-3.42,3.76-4.78,.5-.39,1.07-.82,1.7-1.22,1.11,2.73,1.44,4.62,1.16,6.77-.69,.13-2.17,.23-5.32-.03-1.32-.11-2.67-.11-3.99,0-3.15,.26-4.63,.17-5.32,.03-.28-2.15,.05-4.04,1.16-6.77Zm10.78,10.01l-.82-.11c-1.59-.2-2.57-.3-3.8-.3s-2.21,.1-3.8,.3l-.82,.11c-.86,.11-1.68,.22-2.54,.3,.03-.52,.05-1.24,.01-2,.43,.05,.99,.09,1.74,.09,.88,0,2.03-.05,3.53-.17,1.24-.1,2.5-.1,3.75,0,2.77,.23,4.33,.2,5.27,.08-.03,.76-.02,1.47,.01,2-.85-.08-1.67-.19-2.54-.3Z"/>
</svg>