<?xml version="1.0" encoding="UTF-8"?>
<svg id="Livello_1" data-name="Livello 1" xmlns="http://www.w3.org/2000/svg" viewBox="0 0 24 24">
  <path d="M21.7,5.87c-.01-.21-.12-.41-.29-.54-.17-.13-.38-.19-.6-.15l-.45,.08c-2.83,.52-5.5,1.02-8.38,.95-2.82,.06-5.52-.43-8.34-.95l-.45-.08c-.21-.04-.43,.01-.6,.15s-.27,.33-.29,.54c-.09,1.44-.11,1.87-.12,2.15,0,.2,.07,.4,.22,.54,.14,.14,.31,.24,.54,.22,.9-.03,3.14,.18,4.89,1.92,1.58,1.58,2.38,4.03,2.38,7.3,0,.34,.23,.64,.57,.73,.38,.1,.8,.1,1.08,.1h.16s.13,0,.13,0c.28,0,.71,0,1.08-.1,.33-.08,.57-.38,.57-.73,0-3.26,.8-5.72,2.38-7.3,1.73-1.73,3.96-1.92,4.87-1.92h.02c.2,0,.39-.08,.53-.22,.14-.14,.22-.34,.22-.54,0-.28-.03-.7-.12-2.15Zm-6.58,3.77c-1.76,1.75-2.7,4.34-2.82,7.68-.06,0-.12,0-.17,0h-.12s-.15,0-.15,0c-.05,0-.11,0-.17,0-.11-3.35-1.06-5.93-2.82-7.68-1.73-1.73-3.85-2.21-5.17-2.32,0-.14,.02-.31,.03-.51,2.76,.51,5.39,.97,8.24,.91,2.86,.06,5.5-.4,8.27-.91,.01,.2,.02,.37,.03,.51-1.32,.12-3.43,.59-5.17,2.32Z"/>
</svg>