<?xml version="1.0" encoding="UTF-8"?>
<svg id="Livello_1" data-name="Livello 1" xmlns="http://www.w3.org/2000/svg" viewBox="0 0 24 24">
  <path d="M15.03,17.98c.16-.38-.01-.82-.39-.99-.38-.16-.82,.01-.98,.39-.39,.91,.04,2.59,.79,3.11,.13,.09,.28,.13,.43,.13,.24,0,.47-.11,.62-.32,.23-.34,.16-.8-.18-1.04-.2-.2-.39-1.05-.28-1.3Z"/>
  <path d="M22.71,18.76c-.37-3.78-2.67-10.22-4.52-12.61-.31-.4-.76-.63-1.24-.8,.06-.21,.1-.42,.11-.66,.03-.91-.32-1.83-.95-2.49-1.11-1.39-4.1-1.31-4.07-1.31-.03,0-3.03-.09-4.14,1.31-.63,.65-.98,1.58-.95,2.49,0,.23,.05,.45,.11,.66-.48,.16-.94,.4-1.24,.8C3.96,8.54,1.66,14.98,1.29,18.76c-.11,.32-.28,.95-.2,1.39,.04,.23,.19,.43,.39,.54,1,.52,1.79,.5,2.49,.4,.26-.04,.48-.21,.58-.45,.19-.44,.24-.88,.26-1.24,.41-.89,1.01-2.38,1.59-3.85-.13,1.04-.28,2.31-.25,3.11,.02,.51-.11,1.13-.23,1.68-.15,.71-.27,1.26-.11,1.71,.18,.51,.56,.83,1.04,.88,1.32,.14,2.89,.15,4.28,.16h.87s.86,0,.86,0c1.39,0,2.96-.02,4.28-.16,.48-.05,.86-.37,1.05-.88,.16-.45,.04-1.01-.11-1.71-.12-.55-.25-1.17-.23-1.68,.03-.8-.12-2.07-.25-3.11,.58,1.47,1.18,2.96,1.59,3.85,.03,.35,.07,.8,.26,1.24,.1,.24,.32,.41,.58,.45,.7,.1,1.49,.12,2.49-.4,.21-.11,.35-.31,.39-.54,.08-.44-.09-1.08-.2-1.39ZM9.05,3.16s0-.01,.01-.02c.36-.47,1.94-.77,2.97-.74,.95-.03,2.55,.27,2.9,.74,0,0,0,.01,.01,.02,.02,.03,.03,.05,.04,.08,.01,.04,0,.16-.11,.38-.52,.96-2.19,2.09-2.87,2.35-.69-.26-2.35-1.39-2.87-2.35-.12-.22-.13-.34-.11-.38,.01-.03,.02-.05,.04-.08Zm8.16,7.33c-.16-.34-.54-.51-.89-.4-.36,.11-.58,.46-.53,.82,.08,.59,.08,.98,.08,1.47,0,.54,0,1.16,.1,2.18,.02,.2,.06,.48,.1,.81,.12,.98,.31,2.46,.28,3.24-.03,.7,.14,1.46,.27,2.06,.06,.27,.13,.62,.15,.8-1.2,.11-2.64,.12-3.91,.13h-.85s-.86,0-.86,0c-1.27,0-2.71-.02-3.91-.13,.02-.2,.09-.54,.15-.8,.13-.6,.29-1.35,.27-2.06-.03-.78,.16-2.26,.28-3.24,.04-.33,.08-.61,.1-.81,.11-1.02,.1-1.64,.1-2.18,0-.49,0-.88,.08-1.47,.05-.37-.17-.72-.53-.82-.36-.11-.74,.06-.89,.4-.13,.28-.45,1.1-1,2.51-.7,1.8-1.64,4.2-2.23,5.53-.21,0-.48-.03-.73-.09,.48-3.56,2.54-9.28,4.15-11.37,.07-.09,.29-.26,.95-.42,.59,.47,1.17,.72,2.22,.81v3.4c0,.41,.34,.75,.75,.75s.75-.34,.75-.75v-3.36c.12,0,.21,0,.34,0,.12,0,.23,0,.34,0v3.36c0,.41,.34,.75,.75,.75s.75-.34,.75-.75v-3.41c1.05-.09,1.63-.34,2.22-.81,.66,.15,.88,.32,.95,.42,1.61,2.09,3.68,7.82,4.15,11.37-.25,.06-.51,.09-.73,.09-.59-1.33-1.53-3.73-2.23-5.53-.55-1.41-.87-2.23-1-2.51Z"/>
  <path d="M9.36,17c-.38,.16-.56,.6-.39,.99,.11,.25-.08,1.1-.26,1.28-.34,.24-.43,.7-.19,1.04,.15,.21,.38,.33,.62,.33,.15,0,.29-.04,.42-.13,.75-.52,1.18-2.2,.79-3.11-.16-.38-.61-.56-.98-.39Z"/>
</svg>