<?xml version="1.0" encoding="UTF-8"?>
<svg id="Livello_1" data-name="Livello 1" xmlns="http://www.w3.org/2000/svg" viewBox="0 0 24 24">
  <path d="M12,21.74h-.91c-1.4-.01-2.98-.02-4.35-.17-.31-.03-.59-.19-.77-.43-.19-.25-.27-.56-.22-.87,.2-1.25,.22-4.17,.24-7,0-1.16,.02-2.3,.04-3.32,0-.21,.1-.41,.25-.55,1.54-1.35,1.38-4.8,1.19-6.02-.06-.4,.2-.78,.6-.85l1.32-.25c.21-.04,.43,.01,.6,.15,.17,.13,.27,.33,.29,.55,0,0,.05,.73,.44,1.35,.58,.93,1.99,.93,2.57,0,.39-.62,.44-1.35,.44-1.36,.01-.21,.12-.41,.29-.55s.39-.19,.6-.15l1.32,.25c.4,.07,.67,.45,.6,.85-.19,1.22-.34,4.67,1.19,6.02,.16,.14,.25,.34,.25,.55,.02,1.02,.03,2.16,.04,3.32,.02,2.83,.04,5.75,.24,7,.05,.31-.03,.62-.22,.87-.19,.24-.47,.4-.77,.43-1.37,.15-2.95,.16-4.35,.16h-.91s0,0,0,0Zm-4.72-1.63c1.21,.1,2.59,.11,3.81,.12h.91s.91,0,.91,0c1.23,0,2.61-.01,3.82-.12-.17-1.49-.19-4.2-.21-6.84,0-1.04-.02-2.06-.03-2.99-1.52-1.6-1.62-4.37-1.54-5.95-.09,.25-.22,.52-.38,.79-.56,.9-1.52,1.44-2.56,1.44s-2-.54-2.56-1.44c-.16-.26-.29-.53-.38-.79,.08,1.58-.02,4.36-1.54,5.95-.02,.93-.02,1.96-.03,2.99-.02,2.63-.04,5.35-.21,6.84Z"/>
</svg>