<?xml version="1.0" encoding="UTF-8"?>
<svg id="Livello_1" data-name="Livello 1" xmlns="http://www.w3.org/2000/svg" viewBox="0 0 24 24">
  <path d="M18.25,19.35c-.13-.41-1.28-4.13-.59-7.59,.48-2.27,.18-3.36-.59-4.68-.08-.13-.15-.35-.2-.56l.27-2.62c.04-.41-.26-.78-.67-.82-.4-.04-.78,.26-.82,.67l-.28,2.65c-.17,.48-.37,.98-1.13,1.46-1.34,.85-3.14,.85-4.48,0-.75-.48-.96-.97-1.13-1.46l-.28-2.65c-.04-.41-.41-.71-.82-.67-.41,.04-.71,.41-.67,.82l.27,2.62c-.05,.21-.12,.42-.19,.55-.77,1.33-1.08,2.42-.6,4.68,.69,3.48-.46,7.19-.59,7.6-.1,.31-.06,.64,.11,.91,.18,.29,.49,.47,.84,.51,1.34,.14,2.97,.15,4.4,.16h.88s0,0,0,0c.01,0,.03,0,.04,0h.85c1.43-.02,3.05-.03,4.39-.17,.35-.04,.66-.22,.84-.51,.17-.27,.22-.6,.12-.91Zm-5.36,.08h-.9s-.02,0-.02,0h-.85c-1.23-.01-2.61-.02-3.79-.12,.36-1.28,1.13-4.65,.48-7.87-.35-1.63-.2-2.4,.17-3.15,.24,.28,.56,.57,.98,.84,1.85,1.17,4.24,1.17,6.08,0,.42-.27,.74-.55,.98-.84,.37,.75,.51,1.52,.17,3.16-.64,3.21,.13,6.58,.49,7.86-1.18,.1-2.55,.1-3.78,.11Z"/>
</svg>