<?xml version="1.0" encoding="UTF-8"?>
<svg id="Livello_1" data-name="Livello 1" xmlns="http://www.w3.org/2000/svg" viewBox="0 0 24 24">
  <path d="M12,21.51h-.93c-1.41-.02-3-.02-4.37-.18-.34-.04-.63-.22-.8-.49-.17-.27-.22-.61-.12-.92,.35-1.07,.79-3.61,.68-6.35-.77,2.4-1.58,4.91-1.8,5.41-.11,.25-.34,.41-.6,.44-1.09,.12-1.41,.01-2.33-.38l-.21-.09c-.33-.14-.51-.5-.44-.85,.55-2.56,2.54-9.9,3.76-12.38,.53-1.08,1.99-2.86,3.09-3.2,.21-.07,.45-.03,.64,.1,.19,.13,.31,.33,.33,.56,.01,.15,.35,3.65,3.11,3.65s3.1-3.5,3.11-3.65c.02-.23,.14-.43,.33-.56,.19-.13,.43-.16,.64-.1,1.1,.34,2.57,2.12,3.09,3.2,1.21,2.48,3.21,9.82,3.76,12.38,.08,.35-.11,.71-.44,.85l-.21,.09c-.92,.4-1.24,.51-2.33,.38-.27-.03-.5-.2-.6-.44-.22-.5-1.04-3.01-1.8-5.41-.11,2.74,.33,5.28,.68,6.35,.1,.32,.06,.65-.12,.92-.18,.27-.47,.45-.8,.49-1.38,.15-2.97,.16-4.38,.17h-.92s0,0,0,0Zm-4.66-1.62c1.19,.1,2.53,.11,3.73,.11h.92s.92,0,.92,0c1.2,0,2.54-.02,3.73-.11-.41-1.57-.82-4.51-.53-7.53,.02-.18,.04-.36,.07-.54l.03-.18c.13-.95,.09-1.93-.1-2.6-.02-.07-.04-.12-.05-.16-.12-.39,.09-.81,.48-.94,.39-.13,.81,.08,.94,.47,.02,.06,.04,.13,.06,.2,1.01,3.22,2.49,7.88,3.01,9.36,.28,.01,.44-.03,.76-.16-.67-2.86-2.44-9.27-3.5-11.44-.31-.63-.91-1.38-1.44-1.88-.48,1.73-1.74,3.83-4.39,3.83s-3.91-2.1-4.39-3.83c-.52,.5-1.13,1.25-1.44,1.88-1.06,2.17-2.83,8.57-3.5,11.44,.32,.13,.49,.17,.76,.16,.53-1.48,2.01-6.14,3.01-9.36,.02-.07,.04-.13,.06-.2,.13-.39,.55-.6,.94-.47,.39,.13,.61,.54,.48,.94-.01,.04-.03,.09-.05,.16-.19,.67-.23,1.65-.1,2.6l.03,.18c.03,.18,.05,.36,.07,.54,.28,3.03-.13,5.96-.53,7.53Z"/>
</svg>