<?xml version="1.0" encoding="UTF-8"?>
<svg id="Livello_1" data-name="Livello 1" xmlns="http://www.w3.org/2000/svg" viewBox="0 0 24 24">
  <path d="M19.51,10.86l-.25-6.22c-.02-.41-.35-.76-.78-.72-.41,.02-.74,.37-.72,.78l.23,5.9c-2.06,.98-4.56,2.8-6,4.36-1.45-1.56-3.94-3.39-6-4.36l.23-5.9c.02-.41-.31-.76-.72-.78-.4-.03-.76,.3-.78,.72l-.25,6.22c-.74,1.41-1.67,5.21-1.12,8.56,.06,.34,.34,.6,.69,.63,.16,.01,3.87,.23,7.95-1.11,3.01,1,5.82,1.13,7.15,1.13,.47,0,.76-.02,.8-.02,.35-.02,.63-.28,.69-.63,.55-3.35-.39-7.15-1.12-8.56Zm-.28,7.71s-.03,0-.04,0c-1.23,0-4.04-.13-6.95-1.13-.08-.03-.16-.04-.25-.04s-.17,.01-.25,.04c-2.91,1-5.72,1.13-6.95,1.13-.02,0-.03,0-.04,0-.25-2.45,.3-5.15,.83-6.51,2.13,1.06,4.75,3.08,5.81,4.52,.28,.38,.92,.38,1.21,0,1.06-1.44,3.68-3.45,5.81-4.52,.52,1.36,1.08,4.05,.83,6.51Z"/>
</svg>