<?xml version="1.0" encoding="UTF-8"?>
<svg id="Livello_1" data-name="Livello 1" xmlns="http://www.w3.org/2000/svg" viewBox="0 0 24 24">
  <path d="M17.97,12.17c-.89-2.52-2.18-4.33-4.07-5.68,2.43-.87,2.59-2.28,2.57-2.75-.05-.94-.8-1.67-1.78-1.74-.91-.07-1.94,.44-2.68,1.85-.74-1.4-1.77-1.92-2.68-1.85-.98,.07-1.73,.8-1.78,1.74-.02,.47,.14,1.88,2.56,2.75-1.89,1.35-3.18,3.16-4.07,5.68-2.85,2.32-4.28,5.89-3.46,8.78,.07,.26,.28,.46,.54,.52,.11,.03,2.2,.54,4.59,.54,.51,0,1.03-.02,1.54-.08,.89-.1,1.78-.15,2.63-.15,.04,0,.07-.02,.12,0,0,0,0,0,.02,0,0,0,0,0,.01,0,.89,0,1.81,.04,2.74,.15,.52,.06,1.04,.08,1.54,.08,2.39,0,4.48-.51,4.59-.54,.26-.07,.47-.26,.54-.52,.82-2.89-.61-6.46-3.46-8.78ZM14.54,3.49s.03,0,.04,0c.22,.01,.38,.15,.39,.32,.02,.36-.5,.96-1.93,1.38,.42-1.17,1.02-1.71,1.5-1.71Zm-5.5,.32c0-.17,.17-.31,.39-.32,.01,0,.03,0,.04,0,.48,0,1.08,.54,1.5,1.71-1.42-.43-1.94-1.02-1.93-1.38Zm2.96,3.25c2.14,1.17,3.49,2.79,4.43,5.28-2.98,2.17-4.39,4.88-4.07,7.94-.12,0-.24,0-.35,0,0,0,0,0,0,0,0,0,0,0,0,0-.12,0-.24,0-.35,0,.32-3.06-1.09-5.77-4.07-7.94,.94-2.49,2.3-4.11,4.43-5.28Zm-1.88,13.28c-.34,.02-.69,.05-1.04,.09-2.07,.23-4.25-.14-5.17-.33-.38-2.13,.74-4.76,2.79-6.56,2.62,1.9,3.77,4.18,3.42,6.8Zm9.97-.24c-.91,.19-3.09,.55-5.17,.33-.35-.04-.7-.07-1.04-.09-.35-2.61,.79-4.9,3.42-6.8,2.05,1.8,3.17,4.43,2.79,6.56Z"/>
</svg>