<?xml version="1.0" encoding="UTF-8"?>
<svg id="Livello_1" data-name="Livello 1" xmlns="http://www.w3.org/2000/svg" viewBox="0 0 24 24">
  <path d="M20.48,11.2l-.25-6.18c-.02-.41-.33-.75-.78-.72-.41,.02-.74,.37-.72,.78l.22,5.61c-3.77,.13-5.85,2.57-6.96,4.25-1.12-1.68-3.2-4.11-6.96-4.25l.22-5.61c.02-.41-.31-.76-.72-.78-.41-.04-.76,.3-.78,.72l-.25,6.18c-1.07,1.53-1.75,4.84-.28,7.42,.19,.39,.54,.67,.97,.79,.41,.11,1.26,.3,2.32,.3,.04-.02,.1,0,.15,0,1.84,0,3.99-.93,5.33-2.24,1.34,1.31,3.48,2.24,5.31,2.24,1.13,0,2.06-.18,2.49-.3,.42-.11,.77-.4,.94-.75,1.49-2.61,.81-5.93-.26-7.46Zm-13.82,7.01c-.96,0-1.71-.15-2.1-.29-1.16-2.03-.6-4.62,.09-5.74,3.63,.02,5.43,2.49,6.43,4.09-.96,1.01-2.77,1.94-4.41,1.94Zm12.75-.25c-.34,.09-1.05,.25-1.97,.25-1.66,.05-3.53-.91-4.51-1.94,.99-1.59,2.75-4.09,6.39-4.09h.03c.69,1.12,1.25,3.71,.06,5.78Z"/>
</svg>