<?xml version="1.0" encoding="UTF-8"?>
<svg id="Livello_1" data-name="Livello 1" xmlns="http://www.w3.org/2000/svg" viewBox="0 0 24 24">
  <path d="M12,21.74h-.92c-1.4-.01-2.98-.02-4.35-.17-.32-.04-.6-.19-.79-.45-.19-.25-.25-.57-.19-.88,.26-1.33,.56-6.29,.68-10.02-.33,.19-.68,.38-.96,.52-.28,.13-.61,.09-.84-.12-.76-.7-1.56-2.2-2.1-3.26-.09-.18-.11-.39-.04-.59,.38-1.08,5.07-3.93,6.82-4.47,.21-.06,.43-.04,.61,.08,.18,.11,.31,.3,.35,.51,.04,.18,.3,1.12,1.75,1.15,1.41-.04,1.67-.98,1.71-1.16,.04-.21,.17-.39,.35-.5,.18-.11,.4-.14,.6-.08,1.75,.54,6.44,3.38,6.82,4.47,.07,.19,.05,.41-.04,.59-.54,1.07-1.34,2.57-2.1,3.26-.23,.21-.56,.26-.84,.12-.29-.14-.63-.33-.96-.52,.12,3.73,.42,8.69,.68,10.02,.06,.32,0,.63-.19,.88-.19,.25-.46,.41-.78,.44-1.38,.15-2.96,.16-4.36,.17h-.91s0,0,0,0Zm-4.71-1.62c1.21,.1,2.58,.11,3.8,.12h.91s.91,0,.91,0c1.22,0,2.6-.01,3.8-.12-.31-2.16-.61-7.96-.68-11.21,0-.27,.14-.53,.38-.67,.24-.14,.53-.13,.77,.01,0,0,.81,.5,1.52,.89,.34-.44,.75-1.12,1.23-2.05-.73-.66-3.32-2.37-5.03-3.11-.43,.74-1.31,1.52-2.87,1.56-1.59-.04-2.48-.83-2.91-1.56-1.69,.73-4.22,2.4-5.02,3.13,.48,.91,.88,1.59,1.22,2.02,.7-.38,1.51-.88,1.52-.89,.23-.14,.53-.15,.77-.01,.24,.14,.38,.39,.38,.67-.06,3.25-.37,9.06-.68,11.21Z"/>
</svg>