<svg xmlns="http://www.w3.org/2000/svg" xmlns:xlink="http://www.w3.org/1999/xlink" viewBox="0 0 497.82 488.43"><defs><style>.cls-1{fill:#ff00b8;}.cls-2{fill:url(#Nuovo_campione_sfumatura_1);}.cls-3{fill:url(#Nuovo_campione_sfumatura_1-2);}.cls-4{fill:url(#Nuovo_campione_sfumatura_1-3);}.cls-5{fill:url(#Nuovo_campione_sfumatura_1-4);}.cls-6{fill:url(#Nuovo_campione_sfumatura_1-5);}.cls-7{fill:url(#Nuovo_campione_sfumatura_1-6);}.cls-8{fill:url(#Nuovo_campione_sfumatura_1-7);}.cls-9{fill:url(#Nuovo_campione_sfumatura_1-8);}.cls-10{fill:url(#Nuovo_campione_sfumatura_1-9);}.cls-11{fill:url(#Nuovo_campione_sfumatura_1-10);}.cls-12{fill:url(#Nuovo_campione_sfumatura_1-11);}.cls-13{fill:url(#Nuovo_campione_sfumatura_1-12);}</style><linearGradient id="Nuovo_campione_sfumatura_1" x1="83.69" y1="351.25" x2="120.68" y2="373.71" gradientTransform="translate(10.84 -3.15) rotate(1.69)" gradientUnits="userSpaceOnUse"><stop offset="0" stop-color="#00ffd1"/><stop offset="1" stop-color="#ff00b8"/></linearGradient><linearGradient id="Nuovo_campione_sfumatura_1-2" x1="84.52" y1="349.87" x2="121.52" y2="372.33" xlink:href="#Nuovo_campione_sfumatura_1"/><linearGradient id="Nuovo_campione_sfumatura_1-3" x1="86.29" y1="346.96" x2="123.28" y2="369.42" xlink:href="#Nuovo_campione_sfumatura_1"/><linearGradient id="Nuovo_campione_sfumatura_1-4" x1="82.58" y1="353.08" x2="119.57" y2="375.54" xlink:href="#Nuovo_campione_sfumatura_1"/><linearGradient id="Nuovo_campione_sfumatura_1-5" x1="82.18" y1="353.73" x2="119.18" y2="376.19" xlink:href="#Nuovo_campione_sfumatura_1"/><linearGradient id="Nuovo_campione_sfumatura_1-6" x1="82.22" y1="353.66" x2="119.21" y2="376.12" xlink:href="#Nuovo_campione_sfumatura_1"/><linearGradient id="Nuovo_campione_sfumatura_1-7" x1="275.49" y1="271.23" x2="351.67" y2="251.85" gradientTransform="matrix(1, 0, 0, 1, 0, 0)" xlink:href="#Nuovo_campione_sfumatura_1"/><linearGradient id="Nuovo_campione_sfumatura_1-8" x1="277.18" y1="277.87" x2="353.36" y2="258.5" gradientTransform="matrix(1, 0, 0, 1, 0, 0)" xlink:href="#Nuovo_campione_sfumatura_1"/><linearGradient id="Nuovo_campione_sfumatura_1-9" x1="290.64" y1="330.82" x2="366.83" y2="311.44" gradientTransform="matrix(1, 0, 0, 1, 0, 0)" xlink:href="#Nuovo_campione_sfumatura_1"/><linearGradient id="Nuovo_campione_sfumatura_1-10" x1="293.33" y1="341.38" x2="369.51" y2="322" gradientTransform="matrix(1, 0, 0, 1, 0, 0)" xlink:href="#Nuovo_campione_sfumatura_1"/><linearGradient id="Nuovo_campione_sfumatura_1-11" x1="307.26" y1="399.26" x2="383.44" y2="379.88" gradientTransform="translate(-3.89 3.57) rotate(-0.58)" xlink:href="#Nuovo_campione_sfumatura_1"/><linearGradient id="Nuovo_campione_sfumatura_1-12" x1="306.87" y1="397.72" x2="383.05" y2="378.34" gradientTransform="translate(-3.89 3.57) rotate(-0.58)" xlink:href="#Nuovo_campione_sfumatura_1"/></defs><title>Risorsa 4</title><g id="Livello_2" data-name="Livello 2"><g id="Livello_1-2" data-name="Livello 1"><g id="scatola"><path class="cls-1" d="M248.94,224.07q-.48,26-.51,51.95,0,25.55.35,51.11t1.09,51.05q.72,25.51,1.72,51,1,25.89,2.22,51.78c.1,2.18.21,4.37.31,6.55.06,1.19,2.05,1.21,2,0q-1.23-26-2.28-51.91-1-25.53-1.78-51.08t-1.18-51.06q-.42-25.51-.45-51,0-25.91.39-51.81l.12-6.56c0-1.19-2-1.2-2,0Z"/><path class="cls-1" d="M443.43,410.77,367.6,439.48l-75.83,28.71L249.3,484.27a.93.93,0,1,0,.6,1.77l75.83-28.71,75.83-28.71L444,412.54c1.17-.44.62-2.23-.59-1.77Z"/><path class="cls-1" d="M447.28,174q-38.7,9.38-77.3,19.14-38.13,9.59-76.27,19.14-22,5.47-44,10.81c-1.2.29-.77,2.23.39,1.95q38.7-9.37,77.3-19.14,38.13-9.58,76.27-19.14,22-5.46,44-10.81c1.2-.29.77-2.23-.39-1.95Z"/><path class="cls-1" d="M250.4,223.21c-10.53-4.74-20.92-9.78-31.28-14.85q-21.18-10.35-42.19-21-23-11.61-45.83-23.45-21.39-11.09-42.65-22.4c-10.8-5.77-21.57-11.58-32.2-17.65l-2.85-1.64a1,1,0,0,0-.93,1.69c10,5.82,20.23,11.34,30.44,16.82q20.81,11.17,41.77,22,22.83,11.88,45.8,23.51,21.45,10.88,43,21.51c10.94,5.37,21.9,10.71,33,15.79l3,1.35c1.09.49,2.1-1.17.93-1.69Z"/><path class="cls-1" d="M255.51,482.26q-35.62-24.06-71.71-47.41-36.42-23.67-73.09-47Q90.63,375,70.51,362.26c-1.05-.67-2.16.95-1.16,1.59q36.27,23.07,72.48,46.24,36.55,23.46,72.87,47.32,19.91,13.11,39.65,26.44c1,.7,2.15-.92,1.16-1.59Z"/><path class="cls-1" d="M68,234c.53,19,1.15,38.05,1.7,57.07.5,17.45,1,34.9,1.19,52.35.1,8.36.15,16.72.06,25.08a.93.93,0,1,0,1.86.09c.16-15.7-.11-31.4-.46-47.09-.41-18.38-1-36.76-1.54-55.14q-.48-16.14-1-32.27c0-1.26-1.89-1.37-1.86-.09Z"/><path class="cls-1" d="M447,174.91a915.3,915.3,0,0,0-9.1,94.24c-1.54,31.49-1.88,63-1.93,94.54,0,17.74,0,35.48,0,53.22,0,1.18,1.94,1.55,1.94.29,0-31.64-.19-63.28.29-94.92.48-31.48,1.65-63,4.41-94.35,1.56-17.64,3.62-35.23,6.3-52.73a1,1,0,0,0-1.94-.29Z"/><path class="cls-1" d="M448.48,173.22c-21.42-11.37-42.82-22.77-64.4-33.81s-43.25-21.66-65.31-31.55q-18.67-8.35-37.7-15.94c-1.11-.43-1.81,1.4-.64,1.86,22.52,8.93,44.63,18.84,66.46,29.34s43.17,21.49,64.51,32.71q18,9.46,36,19.06c1.05.55,2.18-1.09,1.09-1.67Z"/><path class="cls-1" d="M280.85,91.11C266.2,91.9,251.58,93.38,237,95c-18.5,2-37,4.27-55.41,6.7q-28.14,3.69-56.21,7.88c-15.52,2.32-31,4.73-46.46,7.44-5.39.94-10.78,1.92-16.14,3-3.26.66-6.55,1.31-9.74,2.29-.43.13-.86.27-1.28.43a1,1,0,0,0,.65,1.82,53.65,53.65,0,0,1,8.06-2.1c4.89-1.06,9.81-2,14.73-2.86,14.72-2.65,29.51-5,44.3-7.23q27.81-4.22,55.7-7.93c18.56-2.48,37.15-4.81,55.76-6.88,15.17-1.69,30.36-3.27,45.59-4.26L281,93a1,1,0,0,0-.16-1.89Z"/><path class="cls-1" d="M280,91.9c-.16,15.52-.87,31-1.4,46.54-.66,19.16-1.35,38.32-1.66,57.48-.12,7.07-.27,14.17.06,21.24.06,1.25,1.92,1.07,1.86-.21-.28-6.06-.17-12.15-.09-18.22.12-8.9.36-17.81.62-26.71.56-19.21,1.29-38.41,1.91-57.61.24-7.4.49-14.8.57-22.2,0-1.22-1.86-1.6-1.87-.31Z"/><path class="cls-1" d="M281.37,92.21a251.83,251.83,0,0,1,10.22-34.84,230.11,230.11,0,0,1,17.56-38.22A105.22,105.22,0,0,1,321.54,1.83c.79-.88-.37-2.48-1.22-1.55C311.4,10.14,304.84,22,299.21,34A282.78,282.78,0,0,0,284.3,73.35c-1.84,6.15-3.48,12.36-4.79,18.64-.25,1.23,1.6,1.47,1.86.22Z"/><path class="cls-1" d="M448.8,175.4c4.43-12.61,10.17-24.77,16.05-36.75q10-20.33,21.14-40c3.44-6.06,7-12.08,10.67-18,.68-1.07-.78-2.23-1.46-1.15-7.18,11.4-13.76,23.2-20.1,35.09-7.1,13.3-13.9,26.79-20.06,40.55-2.88,6.44-5.64,12.94-8,19.59a.94.94,0,1,0,1.74.69Z"/><path class="cls-1" d="M497.18,83.14c-23.58-10.46-47-21.19-70.47-32-23.17-10.68-46.31-21.42-69.52-32q-20-9.1-40-18c-1.18-.53-1.6,1.34-.49,1.83,23.58,10.46,47,21.19,70.46,32,23.17,10.68,46.31,21.42,69.53,32q20,9.09,40,18c1.18.52,1.6-1.34.49-1.83Z"/><path class="cls-1" d="M249,223.65c-6.63,10.92-13.57,21.66-20.59,32.34-8.25,12.55-16.66,25-25.49,37.18-3.77,5.2-7.61,10.38-11.78,15.28-.82,1,.77,2.12,1.55,1.21,8.33-9.79,15.64-20.5,22.91-31.08Q228.4,260,240.51,241c3.5-5.47,7-11,10.33-16.51.64-1.05-1.2-1.82-1.82-.81Z"/><path class="cls-1" d="M52,122.56c-6.69,9.73-13.14,19.61-19.51,29.54Q21.82,168.66,11.6,185.47q-4.86,8-9.53,16.11c-.62,1.09,1.13,2,1.72.95,5.87-10.24,12-20.31,18.27-30.33q10.4-16.69,21.2-33.15,5.13-7.81,10.42-15.54c.71-1-1-1.93-1.72-1Z"/><path class="cls-1" d="M202.36,308.17c-12.47-6.54-24.79-13.35-37.05-20.28-13.34-7.54-26.6-15.21-39.84-22.9-13.66-7.92-27.3-15.87-41-23.74-13.42-7.71-26.88-15.36-40.44-22.8-12.57-6.9-25.24-13.64-38.08-20l-4.61-2.26c-1.13-.55-1.92,1.25-.85,1.77,12.78,6.23,25.37,12.85,37.86,19.64,13.52,7.36,26.92,14.92,40.27,22.57q20.55,11.78,41,23.72,20,11.63,40.07,23.1c12.35,7,24.76,13.95,37.32,20.61q2.24,1.19,4.48,2.36c1.11.58,1.9-1.22.85-1.77Z"/></g><path class="cls-2" d="M91.49,344.82a4.45,4.45,0,0,0-5.14,0c-1.73,1.1-2.59,3-3.28,4.88a1.58,1.58,0,0,0,.43,1.85,1,1,0,0,0,0,.17A20.85,20.85,0,0,0,83.2,357c.38,3.22,3,6.67,6.61,5.56s4.46-5.41,4.56-8.71a18.85,18.85,0,0,0-.63-5.39A6.63,6.63,0,0,0,91.49,344.82Zm-1.83,14.62c-1.91,1.24-3.46-1-3.67-2.69a17.14,17.14,0,0,1,.19-4.23,6.6,6.6,0,0,1,1.2-3.5,1.45,1.45,0,0,0,.22-1.54,2,2,0,0,1,2-.38,3.12,3.12,0,0,1,1.4,2,14.1,14.1,0,0,1,.6,3.71C91.66,354.86,91.64,358.16,89.66,359.44Z"/><path class="cls-3" d="M104.83,351.18a4.88,4.88,0,0,0-2.88,2.11c0-1.22,0-2.44.07-3.66a1.39,1.39,0,0,0-1.2-1.58,1.56,1.56,0,0,0-1.63,1.35q-.21,9.94-.43,19.9a1.42,1.42,0,0,0,2.84.23c.21-1.49.43-3,.64-4.47,4.93.11,8.68-5.23,7.67-10.1C109.41,352.56,107.46,350.5,104.83,351.18Zm2.07,7.4c-.58,1.91-2.23,3.62-4.25,3.61l.27-1.84c.23-1.58.23-6.36,2.69-6.38C107.62,354,107.24,357.44,106.9,358.58Z"/><path class="cls-4" d="M131.07,366a1.43,1.43,0,0,0-1.38-2.5c-2.55,1.42-5.12,2.81-7.66,4.24-.47-1.07-1-2.13-1.49-3.17-.77-1.51-1.66-3-1.62-4.77a1.39,1.39,0,0,0-2.64-.6l-5,11.5a1.49,1.49,0,0,0,.49,2,1.46,1.46,0,0,0,1.95-.64l3.38-7.76c.72,1.63,1.66,3.21,2.35,4.78a1,1,0,0,1,.07.15c-1.84,1.26-3.45,3-3.24,5.41.24,2.64,2.77,4.82,5.35,3.28,2.8-1.68,2.41-4.87,1.49-7.52C125.75,368.9,128.42,367.46,131.07,366Zm-11.32,9.42c-.62-.25-.78-1.3-.61-1.86a3.57,3.57,0,0,1,1.49-1.72,7.24,7.24,0,0,1,.39,1.75C121.07,374.2,120.75,375.82,119.75,375.42Z"/><path class="cls-5" d="M132.25,382.37a1.15,1.15,0,0,0-.46-.33,1.2,1.2,0,0,0-.53-.15l-.37,0a1.3,1.3,0,0,0-.65.35l-.22.29a1.51,1.51,0,0,0-.18.72v.33a1.07,1.07,0,0,0,.12.56,1.21,1.21,0,0,0,.31.52,1.15,1.15,0,0,0,.46.33,1.2,1.2,0,0,0,.53.15l.37,0a1.26,1.26,0,0,0,.65-.35l.22-.3a1.47,1.47,0,0,0,.18-.71v-.33a1.13,1.13,0,0,0-.12-.57A1.23,1.23,0,0,0,132.25,382.37Z"/><path class="cls-6" d="M137.15,386.79a1.39,1.39,0,1,0-.2,2.78A1.39,1.39,0,1,0,137.15,386.79Z"/><path class="cls-7" d="M145.9,392.29c-1.78-.05-2.12,2.88-.23,2.94S147.79,392.35,145.9,392.29Z"/><path class="cls-8" d="M290.27,289.47c0,1.81,3,1.8,3,0,0-.69,0-1.39,0-2.09l18.17-4.32c1.84-.44.73-3.18-1-2.77l-9.15,2.17a202.64,202.64,0,0,1,1-34.74l8.51,7.7,17.59,15.9,1.95,1.75c0,.67-.05,1.33-.06,2l-13.51,3.22c-1.84.43-.73,3.18,1,2.77L353,272.66c1.84-.43.73-3.18-1-2.77l-9.15,2.18a202.7,202.7,0,0,1,1.31-37.35,1.34,1.34,0,0,0-.14-.81l8.05-2.39a1.4,1.4,0,1,0-.81-2.68l-18.18,5.4a1.53,1.53,0,0,0-2.42-.48,15.13,15.13,0,0,1-3.11,2.12l-5.21,1.55c-1.54.46-1.31,2.94.41,2.74.13,0,.26,0,.4-.06h0l.07,0a18.56,18.56,0,0,0,5.33-1.58l1.92-.57c.75,10.48.35,21,0,31.45l-7.28-6.58-17.59-15.9c-1-.89-2-1.78-2.95-2.66l7.87-2.34a1.4,1.4,0,1,0-.81-2.69l-18.18,5.4a1.54,1.54,0,0,0-2.42-.47,15.54,15.54,0,0,1-3.11,2.12l-5.21,1.55c-1.54.46-1.31,2.94.41,2.74l.4-.07h0l.07,0A18.56,18.56,0,0,0,287,248.9l2-.58a366.44,366.44,0,0,1,1.36,36.75l-15.08,3.58c-1.84.44-.73,3.19,1,2.78l14-3.34C290.28,288.55,290.28,289,290.27,289.47Zm43.16-52.4,7.76-2.31a207.14,207.14,0,0,0-1.22,38L334.82,274a1.42,1.42,0,0,0-.51-1.15l-.89-.8C333.79,260.36,334.34,248.72,333.43,237.07Zm-41.52,10.38,7.66-2.28.06.07a207,207,0,0,0-1.21,37.91l-5.06,1.2A366.52,366.52,0,0,0,291.91,247.45Z"/><path class="cls-9" d="M360.5,259c2.22,6.42,9.95,9.65,16.32,8.33a16.5,16.5,0,0,0,2.87-.9,4.21,4.21,0,0,0,2.18-1.08A20.29,20.29,0,0,0,391,253c1.59-6.44-.75-14.27-8.05-15.55-4-.71-8.28.6-11.84,2.49a1.63,1.63,0,0,0-1.94.88c-.05.12-.09.24-.14.35a24.84,24.84,0,0,0-6.17,5.93A12.52,12.52,0,0,0,360.5,259Zm4,1.2a9.52,9.52,0,0,1-.43-9.94,2.26,2.26,0,0,0,.23-.29c.25-.42.53-.82.81-1.22a7.61,7.61,0,0,1,2.71-2c0,.53-.06,1.06-.07,1.59-.06,2.94,0,5.88.06,8.81,0,1.84-.35,4.42.48,6.26A10.77,10.77,0,0,1,364.49,260.24Zm8.46,4.52a2.69,2.69,0,0,0,.86-1.17c.64-1.72-1.78-2.46-2.6-1.09-.06-.15-.27-.34-.34-.54a8.71,8.71,0,0,1-.16-2.65l-.06-6.44c0-3.31-.26-6.79.76-10a19.51,19.51,0,0,1,6.14-2.49,1.54,1.54,0,0,0,.9.11c1-.16,1,4.68,1.05,5.24.18,2.24.36,4.49.53,6.73s.35,4.31.52,6.47c.05.68.32,3-.23,4.13a14.47,14.47,0,0,1-1.3.67,1.57,1.57,0,0,0-1.34.49A12.63,12.63,0,0,1,373,264.76ZM387,243.26a11.2,11.2,0,0,1,1.42,7.15,17.22,17.22,0,0,1-4.85,10.11c0-.83-.11-1.67-.17-2.5l-.42-5.23q-.39-5-.79-9.95a11.18,11.18,0,0,0-.42-2.71A7.06,7.06,0,0,1,387,243.26Z"/><path class="cls-10" d="M297.91,347.34q-3.39.82-6.77,1.74c-1.74.48-1.17,3.33.68,2.82q6.42-1.77,12.94-3.16a1.57,1.57,0,0,0,1-1.85,1.36,1.36,0,0,0-1.72-1c-1.09.24-2.16.5-3.25.75a.9.9,0,0,0-.15-.19q-.76-17.76-1.54-35.52l3.41-.63c1.75-.32,1.65-3.32-.16-3l-3.67.68a1.43,1.43,0,0,0-1.83-.25,10.74,10.74,0,0,1-2.25,1l-3.19.59c-1.73.32-1.72,3.08.16,3a13.93,13.93,0,0,0,3.66-.67l1.09-.2Q297.14,329.41,297.91,347.34Z"/><path class="cls-11" d="M323.15,337.82a19.42,19.42,0,0,0,1.57-2.58,7.07,7.07,0,0,0,3.57,3.33c4.9,2,10.34-1.67,11.2-6.64a6.39,6.39,0,0,0,.09-.75,32.41,32.41,0,0,0,3.71-2.32c1.26-.89,2.44-2,3.78-2.79s1.78.46,1.88,1.62c.15,1.64-.05,3.2.64,4.76a1.4,1.4,0,0,0,2.7-.25,25.58,25.58,0,0,1,1.36-5.08,12.57,12.57,0,0,1,2.34-4.39c1.35-1.3,1.71.78,1.83,1.79a6.78,6.78,0,0,0,7.94,6.63c3.16-.27,5.86-2.27,8.29-4.13,1.42-1.09-.28-3.54-1.75-2.42-2.39,1.83-5.28,4.13-8.5,3.49A3.84,3.84,0,0,1,361,326.2c-.69-1.45-.33-3.2-1.09-4.68a3.73,3.73,0,0,0-3.24-2.21,4.46,4.46,0,0,0-3.51,2.3,20.69,20.69,0,0,0-1.94,3.74,4.71,4.71,0,0,0-1.09-1.58c-2.49-2.31-5.16.14-7.24,1.69a42.51,42.51,0,0,1-3.67,2.52,6,6,0,0,0-2.38-3.19,7.37,7.37,0,0,0-6.85-.22,9.24,9.24,0,0,0-3.07,2.14,1.37,1.37,0,0,0-1.64.49,6.91,6.91,0,0,0-1.45,4.06,27.48,27.48,0,0,1-3.76,5.91c-2,2.16-5,3.06-7.62,1.23a5.09,5.09,0,0,1-.85-7.39,1.4,1.4,0,1,0-2.24-1.69c-2.89,3.62-2.22,9.36,1.83,11.82C315.61,343.84,320.3,341.66,323.15,337.82Zm10.55-2.28a5,5,0,0,1-5.9-.91,4.79,4.79,0,0,1-1.17-3c.25-.41.5-.82.77-1.21a6.53,6.53,0,0,0,4,2.44,10.15,10.15,0,0,0,5.06-.38A5.5,5.5,0,0,1,333.7,335.54Zm-2-8.51c2.1-.61,4.24.1,4.88,2.24a13.79,13.79,0,0,1-1.57.53c-1.63.41-5.14.58-5.61-1.58A6.63,6.63,0,0,1,331.71,327Z"/><path class="cls-12" d="M307.62,397.25,296.14,404c-.06-5.38-.24-10.76-.51-16.13a122.6,122.6,0,0,0,12.17-6.92c1.5-1,0-3.54-1.58-2.53a120.9,120.9,0,0,1-10.93,6.3c-.72-1-2.83-.61-2.74.89,0,.15,0,.29,0,.43-.5.24-1,.49-1.49.72a1.5,1.5,0,0,0-.87,1.85c.21.66,1.06,1.34,1.79,1l.71-.34q.38,8.28.46,16.56a1.55,1.55,0,0,0-.32,1.66,1.32,1.32,0,0,0,.32.46c0,5.22,0,10.44-.22,15.66-.06,1.85,2.92,1.59,3-.19.18-5.34.24-10.69.22-16L308.74,400a1.59,1.59,0,0,0,.72-2A1.36,1.36,0,0,0,307.62,397.25Z"/><path class="cls-13" d="M411.2,379.91c-1.12,1.86-2.71,4.12-5.19,3.58s-2.76-2.94-2.95-5.14q-1-10.69-1.38-21.43c-.07-1.89-2.78-2-2.8-.13-.05,4.29-.11,8.58-.48,12.84a5.17,5.17,0,0,0-.94-.24c-3.34-.55-6,2-7.27,4.83a19.89,19.89,0,0,0-1.46,6.6,1.51,1.51,0,0,0-.28.5,15.28,15.28,0,0,1-1.73,4c-.9,1.29-2.65,2.54-4.25,1.61-1.12-.65-1.38-2.12-1.61-3.28a12.13,12.13,0,0,0-1.34-4.34c-1.48-2.4-4.55-3.82-6.75-1.39a16.44,16.44,0,0,0-2.29,4.35c-.87,1.92-1.73,3.86-2.57,5.8l-.48,1.13a31.78,31.78,0,0,0-.89-4.23,3.54,3.54,0,0,0-5.68-1.93,16.73,16.73,0,0,0-2.23,2.87l-3.36,4.59c-.84,1.15-1.63,2.38-2.56,3.47-1.08,1.28-2.71,1.64-3.78.06-1.18-1.74-.58-4.14-.14-6a1.49,1.49,0,0,0-.83-1.87,1.47,1.47,0,0,0-1.81,1c0,.21-.1.43-.14.65a42.3,42.3,0,0,1-4.08,11.17c-.34.61-.71,1.35-1.47,1.49a2.29,2.29,0,0,1-2.12-1c-1.21-1.57-.84-3.86-.63-5.68a1.39,1.39,0,0,0-1.64-1.52c-3.84.83-6.33,3.81-9,6.44a20.42,20.42,0,0,1-2.26,1.93c-.35-2.42-1.7-4.85-4.1-5.72a4.66,4.66,0,0,0-5.85,2.28,5.73,5.73,0,0,0,.92,5.61,6,6,0,0,0,5.68,2.36l.43-.08a9.54,9.54,0,0,1-1.77,3.69,4.06,4.06,0,0,1-4.51,1.55c-1.41-.49-3-1.87-2.37-3.49a1.39,1.39,0,1,0-2.63-.92c-1.71,4.71,3.87,8.83,8.17,7.24,3.7-1.37,5.63-5.27,6.06-9.12a19.49,19.49,0,0,0,4.43-3.54c1.66-1.69,3.32-3.6,5.45-4.66a8.5,8.5,0,0,0,1.33,5.47,4.75,4.75,0,0,0,6.17,1.53c2-1.23,3-4.12,3.86-6.18.13-.32.25-.65.38-1a5.52,5.52,0,0,0,1.58,1.62c3,2,5.74,0,7.54-2.46,2-2.68,3.94-5.38,5.9-8.07.51-.69,1.65-2.63,2.34-.87a24.47,24.47,0,0,1,1.12,6.37,2.88,2.88,0,0,0,.72,2.12,1.79,1.79,0,0,0,2,.22,3.07,3.07,0,0,0,1.24-1.78c.44-1,.89-2.1,1.34-3.15q1.29-3,2.66-6c.42-.93.82-1.88,1.28-2.79.29-.58.64-1.35,1.41-1.21,1.43.27,2,2.29,2.26,3.49.63,3.33,1.77,7.4,6,7.08a6.67,6.67,0,0,0,5.14-3.37c.57,1.89,1.87,3.35,4.28,3.09,2.14-.24,3.38-1.8,4.23-3.63a7.68,7.68,0,0,0,1.7-1.54,9.83,9.83,0,0,0,1.46-2.61l0,.13a6.25,6.25,0,0,0,5.64,4.31c3.28.14,5.54-2.41,7.1-5C414.45,379.94,412.2,378.24,411.2,379.91Zm-93,21.18c-.6-.67-1.31-2-.78-2.88,1-1.61,3.24-.2,3.92.9a6.09,6.09,0,0,1,.83,2.88A3.48,3.48,0,0,1,318.23,401.09Zm75-26.66c.94-1.5,3.42-3,4.86-1.64l-.06.57a51.16,51.16,0,0,1-1.8,8.3c-.17.56-.4,1.53-.74,2.49a2.86,2.86,0,0,1-.83.18,3.69,3.69,0,0,1-3.19-1.27c0-.76.08-1.52.15-2.26A14.48,14.48,0,0,1,393.2,374.43Z"/></g></g></svg>