<?xml version="1.0" encoding="UTF-8"?>
<svg id="Livello_1" data-name="Livello 1" xmlns="http://www.w3.org/2000/svg" viewBox="0 0 24 24">
  <path d="M10.56,3.78c-1.89-.49-3.76,.51-5.11,2.74-.35,.58-1.14,1.47-1.75,2.07-1,.97-1.64,2.23-1.84,3.64-.4,2.82,1.22,5.64,3.86,6.72,.78,.31,1.59,.46,2.4,.46,.98,0,1.95-.22,2.83-.66,.11-.05,.22-.11,.32-.18-.37-.36-.69-.76-.96-1.19-.01,0-.02,0-.03,.02-1.26,.64-2.67,.69-3.99,.16-2.02-.82-3.25-2.97-2.94-5.12,.15-1.08,.63-2.04,1.39-2.78,.51-.49,1.5-1.54,1.99-2.36,.62-1.02,1.58-2.14,2.86-2.14,.19,0,.39,.02,.59,.07,1.15,.31,1.81,1.37,1.97,3.16,.01,.12,.02,.23,.04,.35,.05-.04,.1-.07,.15-.1,.38-.23,.84-.54,1.25-.85-.38-2.75-1.85-3.7-3.03-4.01Z"/>
  <path d="M9.19,14.94c-.49,.29-1.06,.37-1.61,.22-.55-.14-1.01-.49-1.29-.98-.29-.49-.37-1.06-.23-1.61,.25-.95,1.12-1.59,2.06-1.59,.18,0,.36,.02,.54,.07,.44,.12,.82,.37,1.09,.7,.19-.5,.44-.96,.74-1.38-.4-.36-.89-.62-1.45-.77-1.94-.51-3.92,.66-4.43,2.59-.24,.94-.11,1.91,.38,2.75,.49,.83,1.28,1.43,2.21,1.67,.31,.08,.62,.12,.93,.12,.57,0,1.14-.14,1.65-.41-.19-.49-.32-1.01-.38-1.53-.07,.06-.14,.11-.21,.15Z"/>
  <path d="M20.09,5.48c-1.74-.91-3.77-.34-5.58,1.54-.22,.23-.55,.5-.92,.77-.41,.31-.87,.62-1.25,.85-.05,.03-.1,.06-.15,.1-.67,.43-1.25,.99-1.7,1.63-.3,.42-.55,.88-.74,1.38,0,0-.01,.02-.01,.03-.37,.97-.48,2.01-.34,3.01,.06,.52,.19,1.04,.38,1.53,.14,.37,.32,.73,.53,1.06,.27,.43,.59,.83,.96,1.19,.23,.23,.48,.43,.75,.62,1.08,.75,2.35,1.15,3.64,1.15,.5,0,1.01-.06,1.5-.18,1.77-.44,3.26-1.61,4.1-3.22,.49-.95,.74-2.01,.71-3.06-.03-1.31,0-2.38,.15-3.35,.41-3.09-.87-4.45-2.03-5.05Zm.54,4.85c-.14,1.05-.19,2.2-.16,3.59v.12c0,.76-.18,1.52-.54,2.2-.64,1.23-1.78,2.13-3.13,2.46-1.36,.34-2.76,.07-3.92-.74-.13-.09-.26-.19-.38-.31-.39-.32-.72-.71-.97-1.15-.23-.37-.41-.78-.52-1.21-.27-.96-.24-2,.13-2.97,.09-.23,.19-.44,.31-.65,.26-.48,.6-.9,1-1.26,.2-.18,.43-.34,.67-.49,.18-.11,.42-.27,.69-.45,.6-.4,1.32-.93,1.78-1.41,.71-.75,1.71-1.51,2.78-1.51,.34,0,.68,.08,1.03,.26,1.06,.55,1.47,1.73,1.23,3.52Z"/>
  <path d="M18.15,12.74c-.72-1.38-2.42-1.92-3.79-1.21-.03,.02-.07,.04-.1,.06-.67,.37-1.12,.99-1.32,1.68h0c-.07,.27-.11,.55-.1,.82,.01,.42,.11,.84,.31,1.23,.15,.28,.33,.53,.55,.73,.53,.51,1.23,.79,1.95,.79,.44,0,.88-.1,1.29-.31,.67-.35,1.16-.93,1.39-1.65,.23-.71,.16-1.48-.18-2.14Zm-.76,1.84c-.15,.47-.47,.85-.9,1.07-.05,.03-.1,.04-.15,.05-.03,.01-.05,.01-.08,.01-.18,0-.36-.1-.44-.27-.13-.25-.03-.55,.21-.67,.2-.11,.34-.28,.41-.49,.07-.21,.05-.43-.05-.63-.13-.25-.03-.55,.21-.68,.19-.1,.43-.06,.58,.09h.01s.06,.08,.08,.13c.23,.43,.27,.93,.12,1.39Z"/>
</svg>