<?xml version="1.0" encoding="UTF-8"?>
<svg id="Livello_1" data-name="Livello 1" xmlns="http://www.w3.org/2000/svg" viewBox="0 0 24 24">
  <path d="M17.92,6.67c0-1.19-.96-2.16-2.15-2.16-.11,0-.24-.12-.33-.3-.49-.97-1.4-1.65-2.43-1.8-.94-.14-1.86,.18-2.53,.88-.17,.17-.31,.35-.43,.52-.63-.54-1.48-.83-2.32-.79-1.23,.06-2.23,.75-2.68,1.84-.13,.29-.2,.6-.21,.94,0,.34,.03,.69,.06,1.07l.62,6.22c.09,.86,.82,1.51,1.72,1.51,.03,0,.05,0,.08,0,.1,0,.19-.03,.28-.05l.72,6.4c.04,.38,.36,.66,.75,.66h5.88c.38,0,.7-.29,.75-.67l1.38-12.59c.53-.4,.85-1.01,.85-1.69ZM7.34,13.04s-.07,.06-.11,.07c-.09,0-.2-.06-.21-.17l-.62-6.24c-.03-.31-.05-.61-.06-.87,0-.13,.04-.26,.09-.4,.33-.79,1.06-.9,1.36-.92,.03,0,.06,0,.09,0,.68,0,1.3,.37,1.61,.95,.14,.26,.43,.42,.7,.4,.29-.02,.55-.2,.66-.47,0,0,.22-.55,.72-1.07,.33-.34,.76-.49,1.22-.43,.55,.08,1.04,.45,1.31,.99,.35,.7,.98,1.12,1.67,1.12,.36,0,.65,.3,.65,.66,0,.21-.1,.4-.26,.52h-2.28c-.41,0-.75,.34-.75,.75v2.06c0,.17-.13,.31-.3,.31s-.31-.13-.31-.31v-2.06c0-.41-.34-.75-.75-.75H7.64c-.21,0-.41,.09-.56,.25-.14,.16-.21,.37-.19,.58l.22,2.13s0,.11,0,.14l.27,2.62c0,.07-.02,.11-.04,.14Zm7.25,4.16h-5.2l-.51-4.45-.11-1.07s0,0,0,0l-.16-1.61s0,0,0,0l-.14-1.37h2.55v1.31c0,1,.81,1.81,1.81,1.81s1.8-.81,1.8-1.81v-1.31h.9l-.94,8.52Zm-4.86,2.91l-.16-1.41h4.86l-.16,1.41h-4.54Z"/>
</svg>