<?xml version="1.0" encoding="UTF-8"?>
<svg id="Livello_1" data-name="Livello 1" xmlns="http://www.w3.org/2000/svg" viewBox="0 0 24 24">
  <path d="M18.27,5.72c-.09-.02-.17-.04-.26-.05-.21-1.02-.98-1.86-2.03-2.13-.53-.14-1.07-.11-1.57,.05-.4-.42-.9-.72-1.47-.87-1.22-.32-2.5,.16-3.24,1.13-1.34-.33-2.69,.47-3.06,1.8-.5-.02-.96,.1-1.38,.35-.59,.34-1,.9-1.17,1.56-.19,.72-.05,1.47,.35,2.05-.32,.36-.55,.8-.68,1.29-.43,1.65,.57,3.34,2.22,3.77,.55,.14,1.13,.13,1.67-.04,.34,.39,.78,.67,1.29,.81,.21,.06,.43,.08,.65,.08,.33,0,.65-.09,.96-.21,2.08,1,2.71,3.02,3.32,4.98l.18,.56c.06,.19,.2,.35,.38,.44,.11,.05,.22,.08,.34,.08,.08,0,.16-.01,.24-.04,1.06-.36,2.04-.61,2.05-.61,.22-.06,.4-.21,.5-.41,.09-.2,.09-.44,0-.64-.43-.89-1.79-3.94-1.31-5.91,0-.01,0-.03,0-.04,1.04-.28,1.9-1.08,2.19-2.19,.04-.17,.07-.35,.09-.52,.84-.3,1.5-1,1.73-1.91,.38-1.48-.5-3-1.98-3.38Zm-3.02,13.95c-.58-1.87-1.34-4.1-3.49-5.41,.03-.05,.07-.09,.09-.14,.75,.06,1.47-.21,1.99-.72,.25,.15,.52,.26,.81,.34,.02,0,.04,0,.07,.01-.31,1.89,.42,4.17,1.1,5.75-.17,.05-.36,.11-.57,.17Zm3.54-10.95c-.14,.52-.58,.9-1.1,.94-.21,.02-.4,.12-.53,.28-.13,.16-.19,.37-.15,.58,.03,.2,.02,.4-.04,.62-.22,.85-1.09,1.36-1.94,1.14-.32-.08-.58-.24-.78-.46-.17-.19-.42-.28-.67-.24-.25,.04-.46,.2-.57,.43-.21,.47-.72,.71-1.22,.58-.06-.01-.1-.04-.15-.06-.25-.1-.53-.07-.75,.1-.19,.14-.29,.36-.29,.6-.07,.27-.24,.49-.48,.63-.24,.14-.52,.18-.79,.11-.3-.08-.56-.3-.7-.6-.09-.19-.25-.33-.45-.4-.08-.02-.15-.04-.23-.04-.13,0-.26,.03-.37,.1-.27,.15-.69,.3-1.21,.17-.85-.22-1.36-1.09-1.14-1.94,.11-.41,.36-.76,.71-.97,.22-.13,.35-.37,.36-.62s-.12-.5-.33-.64c-.36-.24-.52-.68-.41-1.11,.07-.27,.24-.5,.48-.64,.24-.14,.52-.18,.79-.11,.06,.02,.12,.04,.17,.06,.25,.13,.56,.11,.78-.06,.23-.17,.34-.45,.3-.73-.02-.13-.02-.26,.02-.4,.15-.56,.71-.9,1.28-.75,.09,.02,.16,.05,.21,.09,.18,.13,.42,.17,.64,.11,.22-.06,.4-.22,.49-.43,.31-.72,1.11-1.11,1.87-.91,.41,.11,.76,.37,.98,.74,.11,.18,.28,.31,.49,.35,.2,.04,.42,0,.59-.12,.28-.19,.63-.25,.98-.16,.6,.16,1,.73,.96,1.35-.02,.23,.07,.45,.24,.61s.4,.23,.62,.19c.14-.02,.3-.01,.47,.03,.67,.18,1.08,.87,.9,1.55Z"/>
  <path d="M14.95,7.41c-.64,.47-1.51,1.72-.7,3.38,.13,.27,.4,.42,.68,.42,.11,0,.22-.02,.33-.08,.37-.18,.53-.63,.35-1-.46-.94,.12-1.43,.24-1.52,.33-.25,.4-.72,.16-1.05-.25-.33-.71-.4-1.05-.16Z"/>
  <path d="M9.62,7.05c-.4,.11-.64,.52-.53,.92,.27,1.01-.39,1.38-.53,1.44-.37,.18-.53,.62-.36,1,.13,.27,.4,.43,.68,.43,.11,0,.22-.02,.32-.07,.72-.34,1.81-1.4,1.33-3.18-.11-.4-.52-.64-.92-.53Z"/>
</svg>