<?xml version="1.0" encoding="UTF-8"?>
<svg id="Livello_1" data-name="Livello 1" xmlns="http://www.w3.org/2000/svg" viewBox="0 0 24 24">
  <path d="M8,9.94c.06,.01,.12,.02,.17,.02,.34,0,.65-.23,.73-.58,.24-1.01,1-1.02,1.15-1.02,.41,.02,.77-.3,.79-.71,.02-.41-.3-.77-.71-.79-.82-.03-2.25,.38-2.68,2.17-.1,.4,.15,.81,.56,.9Z"/>
  <path d="M13.51,9.64c1.02-.11,1.3,.6,1.34,.74,.1,.33,.39,.54,.72,.54,.07,0,.14,0,.21-.03,.4-.12,.62-.54,.51-.93-.23-.76-1.11-2-2.94-1.81-.41,.04-.71,.41-.67,.82,.04,.41,.42,.71,.82,.67Z"/>
  <path d="M20.42,11.45s0-.01,0-.02c.32-.56,.48-1.19,.48-1.84,0-1.73-1.21-3.23-2.85-3.64-.49-1.51-1.91-2.56-3.56-2.56-.92,0-1.8,.34-2.48,.94-.68-.6-1.56-.94-2.49-.94-1.64,0-3.06,1.05-3.56,2.56-1.64,.4-2.85,1.91-2.85,3.64,0,.66,.17,1.28,.48,1.84,0,0,0,0,0,0-.1,.09-.17,.21-.21,.35-.64,2.41,.05,5,1.82,6.77,1.33,1.34,3.13,2.06,4.97,2.06,.6,0,1.21-.08,1.81-.24,0,0,.01,0,.02-.01,0,0,.01,0,.02,.01,.6,.16,1.2,.24,1.8,.24,1.84,0,3.64-.73,4.97-2.06,1.77-1.77,2.47-4.37,1.82-6.77-.03-.13-.11-.24-.2-.34ZM6.63,7.35c.34-.03,.61-.29,.67-.62,.18-1.07,1.11-1.85,2.21-1.85,.74,0,1.44,.37,1.88,.99,.14,.2,.37,.32,.62,.32h0c.25,0,.48-.12,.62-.33,.42-.62,1.12-.98,1.86-.98,1.1,0,2.03,.78,2.21,1.85,.06,.33,.33,.59,.67,.62,1.14,.1,2.03,1.09,2.03,2.23,0,.48-.15,.94-.43,1.32-.03,.04-.06,.09-.08,.14-.19-.02-.38-.02-.57-.02-.06,0-.13,0-.19,0-.27,0-.54,.03-.81,.07-.11,.02-.23,.04-.34,.06-.16,.03-.32,.06-.47,.1-.12,.03-.24,.07-.36,.11-.14,.05-.29,.09-.43,.15-.12,.05-.23,.09-.35,.15-.14,.06-.28,.14-.42,.21-.11,.06-.21,.11-.31,.17-.15,.09-.3,.19-.44,.3-.08,.06-.17,.11-.24,.17-.22,.17-.43,.36-.64,.56-.24,.24-.46,.5-.66,.77-.06,.08-.12,.17-.17,.25-.14,.2-.26,.41-.38,.63-.03,.05-.07,.1-.1,.16-.03-.06-.07-.1-.1-.16-.11-.22-.24-.42-.38-.63-.06-.09-.11-.17-.17-.25-.2-.27-.42-.53-.66-.77-.19-.19-.4-.37-.62-.54-.07-.05-.13-.1-.2-.15-.16-.11-.32-.22-.48-.32-.08-.05-.15-.09-.23-.14-.19-.1-.38-.2-.57-.28-.05-.02-.1-.05-.16-.07-.25-.1-.5-.19-.75-.26-.07-.02-.14-.03-.21-.05-.19-.05-.38-.09-.58-.12-.09-.01-.18-.03-.27-.04-.19-.03-.39-.04-.59-.05-.08,0-.15-.01-.23-.01-.03,0-.06,0-.08,0-.2,0-.41,0-.61,.03-.02-.05-.05-.09-.08-.14-.28-.38-.43-.84-.43-1.32,0-1.15,.89-2.13,2.03-2.23Zm4.52,11.68c-1.77,.32-3.61-.24-4.89-1.53-1.28-1.28-1.85-3.11-1.54-4.87,.07-.01,.13-.03,.2-.04,.11-.02,.21-.03,.32-.04,.12-.01,.24-.02,.36-.02,.11,0,.22,0,.33,0,.12,0,.24,.02,.36,.03,.11,.01,.21,.02,.32,.04,.12,.02,.24,.05,.36,.08,.1,.02,.2,.04,.3,.07,.12,.04,.25,.08,.37,.13,.09,.03,.19,.06,.28,.1,.13,.06,.25,.12,.38,.19,.08,.04,.16,.08,.24,.12,.14,.08,.27,.17,.4,.26,.06,.04,.12,.08,.18,.12,.18,.14,.36,.29,.52,.46,.64,.64,1.11,1.43,1.37,2.29,.26,.84,.32,1.74,.16,2.61Zm6.58-1.53s0,0,0,0c-1.28,1.29-3.13,1.85-4.89,1.53-.16-.87-.11-1.77,.16-2.62,.25-.85,.72-1.64,1.36-2.28,.17-.17,.34-.32,.52-.46,.06-.05,.12-.08,.18-.13,.13-.09,.25-.18,.39-.26,.08-.05,.16-.08,.24-.12,.12-.06,.25-.13,.37-.18,.09-.04,.18-.07,.27-.1,.12-.05,.24-.09,.37-.13,.1-.03,.2-.05,.3-.07,.12-.03,.24-.06,.37-.08,.1-.02,.21-.03,.32-.04,.12-.01,.24-.02,.36-.03,.11,0,.22,0,.33,0,.12,0,.24,0,.36,.02,.11,0,.22,.02,.32,.04,.07,0,.13,.02,.2,.04,.31,1.76-.25,3.59-1.54,4.87Z"/>
</svg>