<?xml version="1.0" encoding="UTF-8"?>
<svg id="Livello_1" data-name="Livello 1" xmlns="http://www.w3.org/2000/svg" viewBox="0 0 24 24">
  <path d="M18.6,18.96l-3.18-10.14c-.31-1-1.04-1.82-2-2.25-.12-.05-.25-.08-.37-.12l.8-2.12c.17-.44,.15-.93-.04-1.36-.2-.44-.55-.78-1-.94-.83-.31-1.74,.03-2.17,.77-.48-.71-1.41-.99-2.21-.63-.82,.37-1.22,1.24-1,2.08-.36-.07-.74-.03-1.07,.12-.44,.2-.77,.55-.94,1-.35,.92,.12,1.96,1.04,2.31l2.11,.8c-.05,.12-.12,.23-.16,.36-.31,1-.18,2.09,.36,3l5.49,9.1c.45,.74,1.24,1.16,2.06,1.16,.33,0,.67-.07,.99-.21,1.11-.5,1.67-1.75,1.3-2.91ZM6.81,6.12s-.04-.12,0-.22c.04-.1,.11-.14,.16-.16,.07-.03,.15-.03,.22,0l1.35,.51c.29,.11,.6,.03,.81-.19,.21-.22,.26-.55,.14-.82l-.59-1.31c-.07-.16,0-.32,.15-.39,.14-.07,.31,0,.38,.15l.59,1.31c.12,.28,.45,.46,.71,.44,.3,0,.57-.2,.68-.48l.51-1.35c.06-.15,.22-.22,.37-.17,.1,.04,.14,.11,.16,.16,.03,.07,.03,.15,0,.22l-.94,2.49c-.38,.04-.75,.12-1.1,.28-.35,.16-.66,.38-.94,.64l-2.49-.94c-.1-.04-.14-.11-.16-.15Zm9.87,14.39c-.41,.19-.91,.03-1.14-.36l-.82-1.36,.14-.06c.38-.17,.54-.61,.38-.99-.17-.38-.62-.55-.99-.38l-.3,.14-2.77-4.58,1.6-.72c.38-.17,.54-.61,.38-.99-.17-.38-.62-.55-.99-.38l-1.77,.8-.34-.56c-.32-.53-.4-1.18-.21-1.77,.19-.59,.62-1.08,1.18-1.34,.28-.13,.59-.19,.89-.19s.61,.06,.89,.19c.57,.25,1,.74,1.19,1.33l1.26,4.01-.86,.39c-.38,.17-.54,.61-.38,.99,.12,.28,.4,.44,.68,.44,.1,0,.21-.02,.31-.07l.7-.31,1.47,4.69c.14,.44-.07,.9-.49,1.09Z"/>
</svg>