<?xml version="1.0" encoding="UTF-8"?>
<svg id="Livello_1" data-name="Livello 1" xmlns="http://www.w3.org/2000/svg" viewBox="0 0 24 24">
  <path d="M19.59,11.37c-.7-1.8-2.58-3-4.23-4.05-1.22-.78-2.48-1.58-2.62-2.29-.07-.35-.38-.6-.74-.6s-.67,.25-.74,.6c-.14,.71-1.4,1.51-2.62,2.29-1.66,1.05-3.53,2.24-4.23,4.05-.39,.99-.76,3.4,.61,5.4,.06,.09,.13,.16,.19,.24,.04,.05,.07,.1,.11,.14,1.33,1.6,3.56,2.43,6.68,2.43s5.36-.83,6.69-2.44c.06-.06,.12-.12,.16-.2,.04-.06,.09-.1,.13-.16,1.37-2,1-4.4,.61-5.39Zm-13.79,.54c.52-1.34,2.18-2.4,3.64-3.32,.98-.62,1.92-1.22,2.56-1.92,.63,.69,1.58,1.29,2.56,1.92,1.46,.93,3.12,1.98,3.64,3.33,.22,.56,.54,2.26-.3,3.73-3.6-1.5-8.2-1.5-11.79,0-.84-1.48-.52-3.17-.3-3.73Zm1.34,4.93c3-1.11,6.7-1.11,9.71,0-1.09,.82-2.71,1.23-4.85,1.23s-3.76-.41-4.85-1.23Z"/>
  <path d="M15.92,12.2c.04,.1,.09,.35,.03,.63-.06,.27,.12,.54,.39,.59,.03,0,.07,.01,.1,.01,.23,0,.44-.16,.49-.4,.1-.47,.02-.93-.08-1.2-.19-.5-.62-.84-.97-1.09-.23-.16-.54-.1-.7,.13-.16,.23-.1,.54,.13,.7,.21,.15,.51,.38,.61,.63Z"/>
</svg>