<?xml version="1.0" encoding="UTF-8"?>
<svg id="Livello_1" data-name="Livello 1" xmlns="http://www.w3.org/2000/svg" viewBox="0 0 24 24">
  <path d="M18.15,14.03c-.28-1.04-.81-1.99-1.53-2.74-.84-.87-1.49-1.64-2.03-2.4,.13-.06,.25-.17,.33-.3,.14-.25,.13-.56-.03-.8-1.29-1.87-2.81-2.86-4.45-2.9-.28-.8-.72-1.6-1.33-2.38-.23-.28-.55-.46-.92-.49-.36-.03-.74,.08-1.04,.33l-.58,.52c-.54,.48-.62,1.28-.17,1.86,.36,.47,.63,.96,.78,1.44,0,.01,0,.02,0,.03v.04c-.95,1.01-1.49,2.55-1.55,4.49,0,.21,.08,.41,.22,.55,.14,.14,.33,.22,.53,.22,0,0,.02,0,.03,0,0,0,.02,0,.03,0-.06,.69-.27,1.69-.49,2.41-.39,1.33-.32,2.74,.2,4.07,.94,2.41,3.33,3.99,5.88,3.99,.27,0,.53-.02,.8-.05,1.81-.24,3.43-1.24,4.44-2.75,1.01-1.51,1.33-3.39,.86-5.15Zm-5.75-6.71c-.4-.04-.82-.07-1.22-.1-.22-.02-.45,.07-.6,.23-.16,.16-.23,.39-.2,.61,.06,.5,.06,.99,0,1.42-.41-.34-.7-.69-.82-1.02-.1-.26-.33-.44-.6-.47-.03,0-.06,0-.09,0,0,0-.02,0-.03,0-.11,0-.21,.03-.3,.07-.01,0-.02,.01-.03,.02-.1,.05-.18,.12-.25,.21-.05,.07-.13,.16-.21,.26-.02,.03-.05,.06-.08,.09-.07,.08-.14,.16-.22,.25-.03,.04-.07,.07-.1,.11-.11,.12-.23,.24-.35,.35,.18-.86,.53-1.72,1.21-2.29,.32-.28,.67-.46,1.09-.57,.14-.03,.27-.06,.4-.08,.86-.1,1.7,.2,2.51,.92-.04,0-.07,0-.11,0Zm-4.37-3.74c.38,.52,.68,1.03,.89,1.55-.16,.05-.31,.11-.46,.19-.2-.48-.47-.95-.81-1.4l.37-.33Zm8.01,14.77c-.78,1.17-1.99,1.91-3.4,2.1-2.15,.29-4.3-.97-5.08-3-.4-1.03-.45-2.1-.16-3.1,.2-.67,.55-2.07,.57-3.04,0-.2,.02-.39,.04-.58,.03-.03,.06-.06,.1-.09,.23-.2,.46-.41,.67-.63,.53,.62,1.21,1.07,1.65,1.33,.18,.1,.39,.13,.58,.07,.2-.06,.36-.19,.46-.37,.37-.71,.46-1.56,.46-2.24,.25,.02,.49,.04,.72,.06,.2,.22,.39,.46,.58,.74,.61,.88,1.35,1.76,2.31,2.75,.55,.57,.95,1.29,1.16,2.08,.35,1.34,.11,2.77-.66,3.93Z"/>
</svg>