<?xml version="1.0" encoding="UTF-8"?>
<svg id="Livello_1" data-name="Livello 1" xmlns="http://www.w3.org/2000/svg" viewBox="0 0 24 24">
  <path d="M12,13.88c-1.71,0-3.04,.99-3.04,2.25s1.33,2.25,3.04,2.25,3.04-.99,3.04-2.25-1.33-2.25-3.04-2.25Zm0,3c-.94,0-1.54-.44-1.54-.75s.6-.75,1.54-.75,1.54,.45,1.54,.75-.61,.75-1.54,.75Z"/>
  <path d="M19.36,8.24c-.15-.18-.35-.3-.57-.36l.67-2.42s.01-.01,.01-.01c.17-.69-.23-1.37-.93-1.58l-1.03-.28c-.6-.16-1.26,.16-1.5,.72l-.97-.19c-.35-.09-.7-.01-1,.18-.2,.14-.37,.33-.46,.56-.05-.23-.16-.44-.32-.6-.25-.25-.56-.39-.88-.39l-1.08-.04c-.35-.01-.67,.11-.93,.34-.25,.23-.4,.56-.41,.91l-.05,1.5-.07-.24c-.1-.34-.32-.61-.63-.77-.28-.16-.58-.2-.89-.13l-.22-1.11c-.06-.35-.26-.65-.54-.84-.29-.2-.64-.27-.97-.2l-1.08,.21c-.69,.15-1.13,.81-1.01,1.51l.57,2.92c-.17,.06-.32,.17-.44,.31-.22,.26-.31,.6-.26,.93l1.68,10.36c.11,.7,.7,1.2,1.41,1.2h9.08c.72,0,1.31-.5,1.41-1.19l1.67-10.37c.06-.33-.04-.67-.26-.93Zm-2.54-1.14l.53-1.96,.56,.15-.71,2.56c-.28,.03-.51,.23-.6,.5-.01,.02-.02,.05-.02,.07h-.04l.28-1.32Zm-1.86-1.43l.56,.11-.19,.96-.85,4.21c-.21,.12-.42,.23-.64,.32l1.13-5.59Zm-3.47-.29l.58,.02-.18,6.22c-.19,0-.38-.02-.57-.04l.17-6.2Zm-3.54,1.78l.48-.14,1.38,4.1c-.26-.13-.5-.28-.73-.45l-1.19-3.49,.06-.02Zm-1.32-2.3l.22,1.09s-.02,.02-.02,.02c-.05,.03-.11,.07-.16,.12-.03,.02-.06,.05-.08,.08-.06,.07-.11,.15-.15,.23-.03,.04-.06,.09-.07,.13l-.3-1.57,.56-.1Zm11.37,5h-.01l-1.51,9.37H7.52l-1.5-9.29-.1-.61h.25c.09,.21,.19,.42,.32,.62,.8,1.45,2.17,2.5,3.79,2.94,.05,.02,.1,.03,.15,.05,.07,.02,.13,.03,.2,.05,.44,.09,.9,.14,1.37,.14,.4,0,.78-.03,1.16-.11,.12-.01,.23-.04,.35-.07,1.7-.4,3.16-1.49,4.01-3,.12-.2,.22-.41,.31-.62h.25l-.08,.53Z"/>
</svg>