<?xml version="1.0" encoding="UTF-8"?>
<svg id="Livello_1" data-name="Livello 1" xmlns="http://www.w3.org/2000/svg" viewBox="0 0 24 24">
  <path d="M19.51,15.65h-1.77v-.71h2.47c.41,0,.75-.34,.75-.75s-.34-.75-.75-.75h-3.22c-.17,0-.31,.06-.43,.15-.19,.14-.32,.34-.32,.6v2.16c0,.16-.13,.29-.29,.29s-.29-.13-.29-.29v-2.15s0-.01,0-.02c0-.41-.34-.75-.75-.75H3.85c-.41,0-.75,.34-.75,.75s.34,.75,.75,.75H14.16v.71H4.49c-.77,0-1.4,.63-1.4,1.4v.63c0,1.43,1.17,2.6,2.6,2.6h12.61c1.43,0,2.6-1.17,2.6-2.6v-.63c0-.77-.63-1.4-1.39-1.4Zm-.11,2.03c0,.61-.49,1.1-1.1,1.1H5.69c-.6,0-1.1-.49-1.1-1.1v-.53H14.36c.29,.59,.9,.99,1.59,.99s1.31-.4,1.59-.99h1.86v.53Z"/>
  <path d="M4.63,12.72h14.74c.47,0,.92-.21,1.23-.58,.3-.37,.42-.85,.33-1.32-.81-4.11-4.57-7.09-8.93-7.09S3.87,6.71,3.06,10.82c-.09,.47,.03,.95,.34,1.32,.3,.37,.75,.58,1.23,.58Zm7.37-7.49c3.65,0,6.79,2.47,7.44,5.96-.01,.01-.04,.03-.07,.03H4.63l-.1-.11c.68-3.41,3.81-5.88,7.47-5.88Z"/>
  <circle cx="14.01" cy="7.44" r=".68"/>
  <circle cx="17.35" cy="9.73" r=".68"/>
  <path d="M14.37,9.78c0,.3,.24,.55,.55,.55s.55-.24,.55-.55-.24-.55-.55-.55-.55,.24-.55,.55Z"/>
</svg>