<?xml version="1.0" encoding="UTF-8"?>
<svg id="Livello_1" data-name="Livello 1" xmlns="http://www.w3.org/2000/svg" viewBox="0 0 24 24">
  <path d="M21.88,10.59c-.52-1.01-1.3-1.89-2.28-2.54-1.35-.91-2.97-1.37-4.6-1.28-.15,.01-.3,.02-.45,.04,.03-.35,0-.71-.1-1.06-.38-1.37-1.54-2.24-2.19-2.64-.97-.59-2.1-.93-3.27-.98-1.64-.07-3.27,.41-4.59,1.32-1.75,1.2-3.3,3.47-2.82,5.84,.24,1.13,1.07,2.08,2.17,2.48,.37,.13,.79,.21,1.22,.21,.52,0,1.05-.12,1.5-.4l.68,3.68c.16,.67,.59,1.25,1.19,1.59,.37,.21,.79,.31,1.21,.31,.26,0,.51-.04,.76-.12l1.45-.47s.05-.02,.08-.03l-.67,1.73c-.22,.66-.15,1.38,.19,1.98,.33,.6,.9,1.04,1.57,1.2l1.48,.35c.19,.05,.38,.07,.58,.07,.48,0,.96-.14,1.37-.42,.57-.39,.96-1,1.07-1.7l.42-3.71c.38,.19,.81,.29,1.25,.29,.11,0,.21,0,.31,0,1.44-.16,2.6-1.08,2.95-2.34,.39-1.36-.13-2.71-.48-3.39Zm-16.02-.44c-.33,.39-1.06,.4-1.61,.2-.6-.21-1.07-.75-1.2-1.37-.35-1.68,.85-3.37,2.2-4.29,1.06-.73,2.37-1.11,3.68-1.06,.91,.04,1.79,.3,2.55,.76,.79,.48,1.34,1.13,1.52,1.76,.1,.37,.06,.72-.06,1.03-.69,.25-1.36,.6-1.93,1.08-.1-.06-.18-.17-.24-.3-.08-.19-.11-.42-.06-.62,.04-.16,.1-.21,.26-.21h.04c.41,0,.74-.32,.75-.73,.01-.41-.32-.76-.73-.77-.89-.02-1.56,.49-1.78,1.34-.12,.49-.08,1.07,.15,1.59,0,0,0,.01,0,.02,0,.01,0,.02,.01,.02l.08,.16,.38,.81c-.13,.22-.24,.45-.33,.7-.39,1.09-.18,2.33,.55,3.25,.42,.52,1.05,.98,1.74,1.17-.12,.22-.31,.38-.55,.46l-1.44,.47c-.27,.08-.54,.05-.77-.08-.24-.13-.41-.35-.46-.58l-1.01-5.49s-.02-.09-.04-.13t0-.02c-.04-.47-.24-.93-.59-1.28-.7-.71-1.79-.83-2.51-.27-.33,.26-.39,.73-.14,1.06,.25,.32,.72,.39,1.05,.13,.14-.1,.39-.01,.54,.14,.27,.27,.19,.76-.06,1.05Zm15.06,3.42c-.23,.82-1.05,1.19-1.67,1.26-.46,.05-.92-.15-1.12-.47-.04-.07-.06-.17-.06-.28v-.13c.04-.21,.13-.43,.27-.57,.13-.12,.21-.12,.36-.02,.34,.22,.81,.12,1.03-.22,.23-.35,.13-.82-.22-1.04-.73-.48-1.58-.4-2.21,.2-.37,.35-.64,.88-.72,1.45-.01,.09-.02,.18-.02,.28v.04l-.62,5.48c-.04,.27-.19,.5-.41,.66-.23,.15-.5,.2-.77,.13l-1.48-.35c-.26-.07-.48-.23-.61-.47-.14-.24-.16-.51-.09-.74l2.01-5.2s.02-.07,.03-.11c0-.01,0-.02,.01-.03,0,0,.01,0,.01-.01,.21-.43,.28-.92,.17-1.4-.24-.97-1.09-1.63-2.01-1.54-.29,.03-.52,.22-.62,.48-.04,.1-.06,.22-.05,.34,.04,.31,.25,.56,.52,.64,.1,.03,.2,.04,.31,.03,.17-.01,.34,.2,.39,.4,.06,.23-.05,.46-.22,.62-.11,.11-.24,.2-.38,.24-.1,.03-.2,.04-.31,.04-.41-.03-.86-.32-1.15-.68,0-.01,0-.02-.02-.03-.19-.23-.31-.51-.36-.8-.08-.33-.06-.68,.05-.99,.04-.12,.09-.23,.15-.34,.1-.21,.23-.4,.38-.57,.03-.05,.07-.09,.11-.13,.6-.65,1.46-1.08,2.34-1.29,.38-.11,.77-.16,1.14-.18,1.28-.07,2.6,.29,3.69,1.02,.76,.51,1.37,1.19,1.77,1.98,.43,.83,.56,1.67,.38,2.3Z"/>
</svg>