<?xml version="1.0" encoding="UTF-8"?>
<svg id="Livello_1" data-name="Livello 1" xmlns="http://www.w3.org/2000/svg" viewBox="0 0 24 24">
  <path d="M18.88,14.52c0-.28,0-.58,0-.87,.01-1.65,.03-3.53-1.19-4.99-1.01-1.23-2.38-1.35-3.48-.91-.44-.4-.97-.7-1.53-.85-.28-1.17-.85-2.3-1.72-3.34-.24-.28-.57-.44-.94-.47-.37-.02-.75,.11-1.03,.37l-.56,.54c-.53,.5-.57,1.3-.1,1.86,.4,.48,.67,.95,.84,1.43,0,.01,0,.02,.01,.03l.14,.63c-.11,.14-.22,.3-.33,.48-.1,.18-.19,.36-.27,.54-.68-.21-1.4-.22-2.04,0-.86,.3-1.51,.98-1.83,1.9-.63,1.78,.04,3.53,.62,5.07,.11,.28,.21,.56,.31,.83,.69,1.95,1.6,4.09,3.7,4.9,.32,.12,.66,.17,1,.17,.6,0,1.21-.18,1.79-.54,.23-.16,.5-.35,.67-.55,.08-.08,.15-.15,.22-.24,.29,.19,.61,.33,.98,.43,.1,.03,.23,.06,.27,.06,1.01,.22,2.01,0,2.73-.64,1.7-1.48,1.79-3.8,1.75-5.86ZM9.91,4.65c.57,.71,.97,1.42,1.21,2.18-.07,.01-.14,.04-.21,.06-.07,.02-.14,.04-.21,.06-.02,0-.05,.01-.07,.02v-.03s-.03-.09-.05-.15c-.22-.62-.55-1.21-1.03-1.8l.36-.35Zm6.24,14.6s0,0,0,0c-.49,.43-1.09,.37-1.48,.29-.04,0-.08-.02-.12-.03-.44-.12-.75-.32-.94-.61-.16-.24-.45-.37-.73-.33-.29,.04-.53,.24-.61,.52-.07,.24-.19,.43-.41,.64-.1,.12-.28,.25-.4,.33-.34,.21-.87,.42-1.45,.22-1.48-.57-2.2-2.28-2.8-3.99-.1-.28-.21-.57-.32-.87-.52-1.36-1.05-2.77-.61-4.04,.17-.5,.48-.83,.9-.98,.16-.06,.33-.08,.51-.08,.37,0,.75,.11,1.09,.33,.21,.13,.47,.16,.69,.06,.23-.09,.39-.29,.44-.54,.08-.35,.2-.68,.37-.98,.15-.25,.27-.38,.38-.48,.11-.11,.22-.19,.34-.26,.02,0,.03-.01,.05-.02,.1-.05,.2-.09,.3-.12,.03,0,.06,0,.09-.01,.14-.03,.27-.04,.39-.03,.05,0,.1,0,.15,0,.56,.07,1.12,.39,1.49,.86,.24,.3,.67,.37,.99,.16,.58-.37,1.42-.48,2.08,.31,.87,1.05,.86,2.56,.85,4.02,0,.31,0,.61,0,.91,.04,1.72-.02,3.64-1.23,4.7Z"/>
  <path d="M10.55,11.85c-.06-.41-.44-.68-.86-.63-.41,.06-.69,.45-.63,.86,.31,1.97,.86,3.51,1.66,4.56,.15,.2,.37,.3,.6,.3,.16,0,.32-.05,.45-.15,.33-.25,.4-.72,.15-1.05-.63-.84-1.11-2.18-1.37-3.89Z"/>
  <path d="M13.9,11.03c-.4,.11-.64,.52-.53,.92,.34,1.27,.4,3.19,.13,4.09-.12,.4,.1,.82,.5,.94,.07,.02,.15,.03,.22,.03,.32,0,.62-.21,.72-.53,.4-1.3,.25-3.57-.11-4.92-.11-.4-.51-.64-.92-.53Z"/>
</svg>