<?xml version="1.0" encoding="UTF-8"?>
<svg id="Livello_1" data-name="Livello 1" xmlns="http://www.w3.org/2000/svg" viewBox="0 0 24 24">
  <path d="M20.74,19.78L14.99,4.45c-.37-.98-1.45-1.48-2.45-1.14-4.49,1.54-7.59,4.64-9.22,9.23-.35,.99,.16,2.1,1.13,2.47l15.32,5.75c.09,.03,.17,.05,.26,.05,.2,0,.39-.08,.53-.22,.21-.21,.28-.52,.17-.79ZM4.74,13.04c1.48-4.19,4.2-6.91,8.29-8.31,.05-.02,.1-.03,.15-.03,.18,0,.34,.1,.4,.27l.31,.82c-3.8,1.52-6.51,4.25-8.07,8.12l-.84-.31c-.22-.08-.33-.33-.24-.56Zm2.49,1.4c1.4-3.45,3.82-5.88,7.19-7.24l1.69,4.51c-.43,.1-.71,.51-.64,.94,.08,.45,.51,.76,.96,.68,.09-.02,.17-.05,.25-.1l2.07,5.53L7.22,14.44Z"/>
  <path d="M15.97,15.03c-.45,.08-.76,.51-.68,.96,.08,.45,.51,.76,.96,.68,.45-.08,.76-.51,.68-.96s-.51-.76-.96-.68Z"/>
  <circle cx="10.37" cy="12.8" r=".83"/>
  <path d="M12.63,11.84c.14,0,.27-.04,.4-.12,.35-.22,.46-.68,.24-1.03,0-.02-.01-.06,0-.11,.02-.07,.06-.12,.08-.14,.37,.1,.77-.1,.91-.48,.14-.39-.07-.82-.46-.96-.58-.2-1.23,0-1.64,.52-.47,.58-.53,1.37-.16,1.96,.14,.23,.39,.35,.64,.35Z"/>
  <path d="M12.53,13.07c-.4,.09-.69,.48-.6,.89,.09,.4,.46,.66,.86,.57,.02,.02,.08,.1,.1,.25,.02,.14,0,.28-.08,.36-.26,.33-.2,.8,.13,1.05,.14,.11,.3,.16,.46,.16,.22,0,.44-.1,.59-.29,.49-.63,.54-1.59,.1-2.29-.35-.56-.95-.83-1.56-.7Z"/>
</svg>