<?xml version="1.0" encoding="UTF-8"?>
<svg id="Livello_1" data-name="Livello 1" xmlns="http://www.w3.org/2000/svg" viewBox="0 0 24 24">
  <path d="M21.95,13.84c0-3.73-1.96-6.26-4.89-6.33-.6-.42-1.28-.65-2.02-.65-.24,0-.48,.03-.71,.08,.1-.7,.35-1.38,1.02-1.92,.31-.25,.37-.7,.14-1.02-.3-.41-.73-.93-1.09-1.11-.1-.05-.21-.08-.31-.08-1.22-.03-2.34,.51-3.18,1.52-.64,.78-1.08,1.8-1.15,2.63-.25-.06-.52-.1-.79-.1-.74,0-1.42,.23-2.02,.65-2.93,.08-4.89,2.6-4.89,6.33s1.93,6.23,4.83,6.34c.62,.45,1.31,.69,2.08,.69,.41,0,.79-.09,1.16-.22,.54,.36,1.16,.56,1.81,.56s1.29-.2,1.84-.58c.39,.15,.82,.24,1.27,.24,.77,0,1.47-.24,2.08-.69,2.9-.11,4.83-2.63,4.83-6.34ZM13.8,4.3s.04,.04,.06,.06c-.65,.74-.91,1.59-1.02,2.37-.49-.14-1.01-.17-1.52-.08,.12-.41,.35-.92,.73-1.37,.35-.42,.93-.91,1.75-.97ZM3.55,13.84c0-1.62,.49-3.45,1.76-4.32-.03,.07-.05,.14-.08,.21-.08,.19-.16,.38-.23,.59-.04,.11-.07,.23-.1,.34-.06,.2-.11,.41-.16,.62-.03,.12-.05,.24-.07,.37-.04,.23-.07,.48-.1,.72-.01,.12-.03,.23-.04,.35-.03,.37-.05,.75-.05,1.14s.02,.76,.05,1.12c0,.12,.03,.23,.04,.34,.03,.24,.06,.48,.1,.71,.02,.13,.05,.25,.07,.37,.05,.21,.1,.42,.15,.62,.03,.11,.06,.22,.1,.33,.07,.21,.15,.41,.23,.61,.03,.06,.04,.13,.07,.19-1.26-.88-1.74-2.7-1.74-4.32Zm4.06,5.02c-1.02-.85-1.63-2.72-1.63-5,0-.29,0-.57,.03-.85,.13-1.92,.72-3.45,1.64-4.17,.38-.31,.8-.47,1.27-.48-.06,.09-.11,.18-.17,.27-.76,1.3-1.17,3.16-1.17,5.26s.4,3.89,1.12,5.18c.06,.1,.11,.2,.17,.29-.47-.02-.89-.18-1.27-.51Zm3.11,.37c-.26-.21-.49-.51-.7-.89-.6-1.08-.94-2.66-.94-4.45s.34-3.43,.97-4.5c.22-.38,.45-.67,.71-.87,.35-.29,.74-.44,1.17-.44,.46,0,.85,.15,1.23,.5,.25,.19,.47,.49,.68,.88,.6,1.06,.92,2.63,.92,4.43s-.32,3.33-.89,4.4c-.2,.38-.43,.68-.7,.92-.71,.65-1.7,.68-2.46,.02Zm4.27,.14c.08-.12,.15-.24,.22-.37,.7-1.3,1.07-3.07,1.07-5.11s-.4-3.89-1.11-5.15c-.07-.13-.14-.26-.22-.38,.51-.02,.99,.13,1.42,.49,1.04,.82,1.66,2.7,1.66,5.01,0,.29,0,.57-.03,.84-.13,1.9-.71,3.43-1.61,4.17-.41,.35-.91,.52-1.4,.5Zm3.73-1.23c.03-.07,.05-.15,.08-.22,.08-.18,.15-.37,.21-.56,.04-.11,.07-.23,.1-.35,.05-.2,.1-.4,.15-.6,.03-.12,.05-.25,.07-.38,.04-.23,.07-.46,.1-.7,.01-.12,.03-.23,.04-.35,.03-.36,.05-.73,.05-1.12s-.02-.77-.05-1.14c0-.12-.03-.23-.04-.34-.03-.25-.06-.49-.1-.73-.02-.12-.05-.24-.07-.36-.05-.22-.1-.43-.16-.64-.03-.11-.06-.22-.1-.32-.07-.23-.16-.44-.25-.65-.02-.05-.04-.11-.06-.16,1.27,.87,1.76,2.7,1.76,4.32s-.48,3.41-1.73,4.3Z"/>
</svg>