<?xml version="1.0" encoding="UTF-8"?>
<svg id="Livello_1" data-name="Livello 1" xmlns="http://www.w3.org/2000/svg" viewBox="0 0 24 24">
  <path d="M11.98,4.29c-.04-.41-.39-.71-.81-.68-.41,.04-.72,.4-.68,.81l.44,5.05c.04,.46-.21,.9-.63,1.1l-.61,.29c-.27,.13-.44,.41-.42,.7l.27,7.02c0,.16-.05,.31-.16,.42-.22,.23-.61,.23-.82,0-.11-.11-.17-.26-.16-.42l.27-7.02c.01-.3-.15-.57-.42-.7l-.61-.29c-.42-.2-.67-.64-.63-1.11l.44-5.05c.04-.41-.27-.78-.68-.81-.41-.03-.78,.27-.81,.68l-.44,5.05c-.1,1.08,.49,2.12,1.47,2.59l.17,.08-.25,6.53c-.02,.57,.18,1.11,.58,1.52,.39,.41,.92,.63,1.49,.63s1.1-.23,1.49-.63c.39-.41,.6-.95,.58-1.52l-.25-6.53,.17-.08c.98-.47,1.57-1.51,1.47-2.59l-.44-5.05Z"/>
  <path d="M9.67,10.01h0c.28,0,.5-.23,.5-.5l-.04-5.15c0-.27-.23-.5-.5-.5h0c-.28,0-.5,.23-.5,.5l.04,5.15c0,.27,.23,.5,.5,.5Z"/>
  <path d="M8.29,10.01h0c.28,0,.5-.23,.5-.5l-.04-5.15c0-.27-.23-.5-.5-.5h0c-.28,0-.5,.23-.5,.5l.04,5.15c0,.27,.23,.5,.5,.5Z"/>
  <path d="M18.06,3.38c-.27-.12-.59-.07-.81,.13-.16,.15-3.94,3.69-3.94,9.85,0,.41,.34,.75,.75,.75h.98v4.81c0,.96,.78,1.74,1.74,1.74s1.74-.78,1.74-1.74V4.07c0-.3-.18-.57-.45-.69Zm-1.05,15.55c0,.26-.47,.26-.47,0v-5.56c0-.41-.34-.75-.75-.75h-.95c.17-2.89,1.27-5.09,2.18-6.44v12.75Z"/>
</svg>