<?xml version="1.0" encoding="UTF-8"?>
<svg id="Livello_1" data-name="Livello 1" xmlns="http://www.w3.org/2000/svg" viewBox="0 0 24 24">
  <path d="M15.77,4.29c-.04-.41-.38-.71-.81-.68-.41,.04-.72,.4-.68,.81l.44,5.05c.04,.46-.21,.9-.63,1.1l-.61,.29c-.27,.13-.44,.41-.42,.7l.27,7.02c0,.16-.05,.31-.16,.42-.22,.23-.61,.23-.82,0-.11-.11-.17-.26-.16-.42l.27-7.02c.01-.3-.16-.57-.42-.7l-.61-.29c-.42-.2-.67-.64-.63-1.11l.44-5.05c.04-.41-.27-.78-.68-.81-.41-.03-.78,.27-.81,.68l-.44,5.05c-.1,1.08,.5,2.12,1.47,2.59l.17,.08-.25,6.53c-.02,.57,.18,1.11,.58,1.52,.39,.41,.92,.63,1.49,.63s1.1-.23,1.49-.63c.39-.41,.6-.95,.58-1.52l-.25-6.53,.17-.08c.98-.47,1.57-1.51,1.47-2.59l-.44-5.05Z"/>
  <path d="M13.45,10.01h0c.28,0,.5-.23,.5-.5l-.04-5.15c0-.27-.23-.5-.5-.5h0c-.28,0-.5,.23-.5,.5l.04,5.15c0,.27,.23,.5,.5,.5Z"/>
  <path d="M12.07,10.01h0c.28,0,.5-.23,.5-.5l-.04-5.15c0-.27-.23-.5-.5-.5h0c-.28,0-.5,.23-.5,.5l.04,5.15c0,.27,.23,.5,.5,.5Z"/>
  <path d="M21.43,3.38c-.27-.12-.59-.07-.81,.13-.16,.15-3.94,3.69-3.94,9.85,0,.41,.34,.75,.75,.75h.98v4.81c0,.96,.78,1.74,1.74,1.74s1.74-.78,1.74-1.74V4.07c0-.3-.18-.57-.45-.69Zm-1.05,15.55c0,.26-.47,.26-.47,0v-5.56c0-.41-.34-.75-.75-.75h-.95c.17-2.89,1.27-5.09,2.18-6.44v12.75Z"/>
  <path d="M5.26,3.65c-1.33,0-2.53,.91-3.13,2.37-.27,.63-.41,1.33-.41,2.09,0,.37,.04,.74,.12,1.17,.25,1.12,.82,2.06,1.61,2.65l-.25,6.6c-.02,.57,.18,1.1,.58,1.51,.39,.41,.92,.64,1.49,.64,1.14,0,2.07-.93,2.07-2.15l-.24-6.6c.78-.59,1.36-1.53,1.61-2.68,.08-.41,.11-.78,.11-1.15,0-.75-.14-1.46-.41-2.08-.61-1.47-1.81-2.38-3.14-2.38Zm1.97,5.31c-.19,.86-.66,1.58-1.25,1.91-.02,.01-.04,.02-.06,.04-.04,.02-.08,.05-.11,.08-.16,.15-.25,.36-.24,.58l.26,7.04c0,.31-.26,.57-.57,.57-.16,0-.3-.06-.41-.18-.11-.11-.16-.26-.16-.42l.27-7.02c0-.21-.07-.41-.22-.56-.07-.07-.1-.1-.2-.14-.58-.33-1.05-1.05-1.24-1.89-.06-.31-.09-.6-.09-.87,0-.54,.1-1.06,.29-1.5,.37-.9,1.04-1.46,1.75-1.46s1.39,.56,1.76,1.47c.19,.43,.29,.95,.29,1.49,0,.27-.03,.56-.08,.85Z"/>
</svg>