<svg xmlns="http://www.w3.org/2000/svg" viewBox="0 0 24 24"><title>computer</title><g id="Livello_1" data-name="Livello 1"><path d="M20.84,3.12H3.16a2,2,0,0,0-2,2V16.19a2,2,0,0,0,2,2H10a6.9,6.9,0,0,1-.68,1.24.9.9,0,0,0-.07,1,.91.91,0,0,0,.82.5h4a.92.92,0,0,0,.75-1.46,6.9,6.9,0,0,1-.68-1.24h6.79a2,2,0,0,0,2-2V5.11A2,2,0,0,0,20.84,3.12ZM11,19.38a8.26,8.26,0,0,0,.52-1.19h.89A9.54,9.54,0,0,0,13,19.38Zm10.31-3.19a.5.5,0,0,1-.5.49H3.16a.5.5,0,0,1-.5-.49V14.77H21.34Zm0-2.92H2.66V5.11a.5.5,0,0,1,.5-.49H20.84a.5.5,0,0,1,.5.49Z"/></g></svg>