<svg xmlns="http://www.w3.org/2000/svg" viewBox="0 0 24 24"><title>graphics-tablet</title><g id="Livello_1" data-name="Livello 1"><path d="M21.28,7.6c0-.32-.12-.58-.44-.58s-.44.26-.44.58l-.14,1.12V16.4a.58.58,0,1,0,1.16,0V8.72Z"/><path d="M17.53,5.17H3.27A1.45,1.45,0,0,0,1.83,6.61V17.39a1.45,1.45,0,0,0,1.44,1.44H17.53A1.45,1.45,0,0,0,19,17.39V6.61A1.45,1.45,0,0,0,17.53,5.17Zm-.06,1.5V7.4H15.91a.51.51,0,0,0-.5.5.5.5,0,0,0,.5.5h1.56v.73H3.32l0-.73H4.89a.5.5,0,0,0,.5-.5.51.51,0,0,0-.5-.5H3.28V6.67ZM3.33,17.33v-6.7H17.47l.06,6.7Z"/></g></svg>