<svg xmlns="http://www.w3.org/2000/svg" viewBox="0 0 24 24"><title>laptop</title><g id="Livello_1" data-name="Livello 1"><path d="M3.07,19.05a1.88,1.88,0,0,1-1.84-1.88V15.69A.75.75,0,0,1,2,14.94h.34V5.7A.74.74,0,0,1,3.07,5H20.93a.74.74,0,0,1,.75.75v9.24H22a.75.75,0,0,1,.75.75v1.48A1.87,1.87,0,0,1,21,19.05Zm-.34-2.61v.73a.37.37,0,0,0,.37.38H20.93a.37.37,0,0,0,.34-.38v-.73H14a1.38,1.38,0,0,1-1.11.56H11.12A1.42,1.42,0,0,1,10,16.44Zm8.47-.94h1.59a.75.75,0,0,1,.73-.56h6.66V6.45H3.82v8.49h6.66A.74.74,0,0,1,11.2,15.5Z"/></g></svg>