<svg xmlns="http://www.w3.org/2000/svg" viewBox="0 0 24 24"><title>mouse-2</title><g id="Livello_1" data-name="Livello 1"><path d="M19.09,4.16A12.25,12.25,0,0,0,12,1.94,12.1,12.1,0,0,0,4.91,4.16a.75.75,0,0,0,.87,1.22A10.62,10.62,0,0,1,12,3.44a10.73,10.73,0,0,1,6.23,1.94.69.69,0,0,0,.43.14.75.75,0,0,0,.44-1.36Z"/><path d="M12,4.64A9.33,9.33,0,0,0,6.35,6.5a.76.76,0,0,0-.14,1,.77.77,0,0,0,.6.3.69.69,0,0,0,.45-.16A7.82,7.82,0,0,1,12,6.14a7.9,7.9,0,0,1,4.75,1.55.75.75,0,1,0,.9-1.19A9.34,9.34,0,0,0,12,4.64Z"/><path d="M12,12.47a.74.74,0,0,0-.75.75V14.4a.75.75,0,0,0,1.5,0V13.22A.75.75,0,0,0,12,12.47Z"/><path d="M12,7.36A6.41,6.41,0,0,0,7.8,8.87a.74.74,0,0,0-.09,1.05A.75.75,0,0,0,8.77,10a5.21,5.21,0,0,1,6.46,0,.78.78,0,0,0,.49.18.74.74,0,0,0,.57-.27.75.75,0,0,0-.09-1.06A6.52,6.52,0,0,0,12,7.36Z"/><path d="M12.19,10h-.38a4,4,0,0,0-4,4v4.14a4,4,0,0,0,4,3.95h.38a4,4,0,0,0,4-3.95V14A4,4,0,0,0,12.19,10Zm2.46,8.09a2.46,2.46,0,0,1-2.46,2.45h-.38a2.46,2.46,0,0,1-2.46-2.45V14a2.46,2.46,0,0,1,2.46-2.45h.38A2.46,2.46,0,0,1,14.65,14Z"/></g></svg>