<svg xmlns="http://www.w3.org/2000/svg" viewBox="0 0 24 24"><title>mouse-3</title><g id="Livello_1" data-name="Livello 1"><path d="M13.11,11.87a.76.76,0,0,0-.75.75v1.19a.75.75,0,1,0,1.5,0V12.62A.76.76,0,0,0,13.11,11.87Z"/><path d="M13.86,9.46V9A1.9,1.9,0,0,0,12,7.07H8.67a.43.43,0,1,1,0-.85H15A1.93,1.93,0,0,0,16.88,4.3v-1a.75.75,0,0,0-1.5,0v1a.42.42,0,0,1-.43.42H8.67a1.93,1.93,0,1,0,0,3.85H12a.39.39,0,0,1,.39.4v.49A4,4,0,0,0,9,13.37v4.14a4,4,0,0,0,4,4h.38a4,4,0,0,0,4-4V13.37A4,4,0,0,0,13.86,9.46Zm1.9,8.05A2.46,2.46,0,0,1,13.3,20h-.38a2.46,2.46,0,0,1-2.46-2.46V13.37a2.46,2.46,0,0,1,2.46-2.45h.38a2.46,2.46,0,0,1,2.46,2.45Z"/></g></svg>