<svg xmlns="http://www.w3.org/2000/svg" viewBox="0 0 24 24"><title>mouse-4</title><g id="Livello_1" data-name="Livello 1"><path d="M12.18,14.15a.75.75,0,0,0-1.49.09,1.4,1.4,0,0,0,1.4,1.4.75.75,0,0,0,.09-1.49Z"/><path d="M15.86,11.7c0-.5,0-1.09,0-1.94h0a7.3,7.3,0,0,0-.4-2.21A2.46,2.46,0,0,0,13,6H11A2.48,2.48,0,0,0,8.58,7.54a7.62,7.62,0,0,0-.39,2.21c0,.81,0,1.39,0,1.87v.75c0,.49,0,1.06,0,1.87a7.68,7.68,0,0,0,.39,2.22A2.48,2.48,0,0,0,11,18H13a2.47,2.47,0,0,0,2.38-1.56,7.36,7.36,0,0,0,.4-2.22c0-.85,0-1.45,0-2V11.7Zm-1.5.57c0,.49,0,1.07,0,1.9a6.15,6.15,0,0,1-.26,1.66,1,1,0,0,1-1,.69H11a1,1,0,0,1-1-.7,6,6,0,0,1-.25-1.65c0-.79,0-1.35,0-1.82v-.71c0-.46,0-1,0-1.81a6.07,6.07,0,0,1,.25-1.66,1,1,0,0,1,1-.69H13a1,1,0,0,1,1,.69,6.42,6.42,0,0,1,.26,1.66c0,.83,0,1.41,0,1.9v.54Z"/></g></svg>