<svg xmlns="http://www.w3.org/2000/svg" viewBox="0 0 24 24"><title>phone</title><g id="Livello_1" data-name="Livello 1"><path d="M14.57,3.88H9.43A2.11,2.11,0,0,0,7.32,6V18a2.11,2.11,0,0,0,2.11,2.11h5.14A2.11,2.11,0,0,0,16.68,18V6A2.11,2.11,0,0,0,14.57,3.88ZM15.18,18a.61.61,0,0,1-.61.61H9.43A.61.61,0,0,1,8.82,18V6a.61.61,0,0,1,.61-.61h5.14a.61.61,0,0,1,.61.61Z"/><path d="M12.16,6.47H10.33a.5.5,0,0,0,0,1h1.83a.5.5,0,0,0,0-1Z"/><path d="M13.67,6.47h0a.5.5,0,0,0-.5.5.5.5,0,0,0,.51.5.5.5,0,0,0,0-1Z"/><path d="M12,16.59a.64.64,0,0,0-.63.64.63.63,0,0,0,1.26,0A.64.64,0,0,0,12,16.59Z"/></g></svg>